<svg xmlns="http://www.w3.org/2000/svg" width="527" height="524" viewBox="0 0 527 524" version="1.1">
	<path d="M 306.553 45.750 C 303.318 57.712, 299.135 73.350, 297.256 80.500 C 295.378 87.650, 293.219 95.750, 292.460 98.500 C 282.787 133.507, 282.461 136.839, 287.587 148.194 C 291.336 156.496, 291.389 157.555, 288.620 169 C 288.420 169.825, 288.713 171.073, 289.270 171.773 C 290.038 172.739, 289.853 172.881, 288.502 172.362 C 287.027 171.796, 286.891 171.983, 287.713 173.452 C 288.890 175.555, 298.717 179.266, 299.548 177.922 C 299.862 177.415, 299.754 176.986, 299.309 176.970 C 298.864 176.953, 299.190 176.535, 300.032 176.042 C 303.177 174.200, 302.438 164.721, 298.463 155.918 L 294.888 148.001 297.998 136.251 C 299.708 129.788, 301.502 123.150, 301.984 121.500 C 304.419 113.163, 305.324 109.927, 307.017 103.500 C 308.031 99.650, 310.213 91.550, 311.864 85.500 C 320.665 53.265, 323.997 40.268, 323.998 38.166 C 324 35.639, 315.431 24, 313.569 24 C 312.937 24, 309.828 33.637, 306.553 45.750 M 187.010 32.750 C 187.019 34.353, 190.835 48.801, 202.655 92 C 206.087 104.543, 206.982 107.853, 208.873 115 C 216.223 142.770, 217.510 145.268, 227.904 151.939 C 233.104 155.275, 237 160.828, 237 164.901 C 237 165.991, 237.481 167.179, 238.068 167.542 C 238.656 167.905, 238.909 168.795, 238.631 169.518 C 238.354 170.242, 238.777 171.084, 239.572 171.389 C 240.368 171.695, 240.902 172.294, 240.759 172.722 C 240.327 174.018, 241.764 174.173, 247.522 173.454 C 253.086 172.759, 255.130 171.648, 252.618 170.684 C 251.786 170.364, 251.427 169.219, 251.704 167.768 C 251.977 166.338, 251.526 164.851, 250.580 164.067 C 249.711 163.345, 249 162.204, 249 161.531 C 249 159.753, 246.137 156.809, 241 153.304 C 238.525 151.615, 235.659 149.298, 234.631 148.157 C 232.987 146.330, 229.058 134.076, 227.367 125.500 C 227.041 123.850, 226.117 120.475, 225.313 118 C 224.508 115.525, 223.466 111.700, 222.998 109.500 C 222.529 107.300, 221.475 103.025, 220.656 100 C 219.261 94.854, 215.968 82.655, 214.446 77 C 214.076 75.625, 211.547 66.175, 208.827 56 C 206.107 45.825, 203.570 37.230, 203.191 36.899 C 202.222 36.056, 189.193 31, 187.989 31 C 187.445 31, 187.005 31.788, 187.010 32.750 M 251.187 56.714 L 248.875 57.155 249.209 96.328 C 249.584 140.208, 249.241 138.044, 257.283 147.326 L 262.500 153.346 262.785 191.908 C 262.949 214.239, 262.698 230.055, 262.187 229.485 C 261.702 228.943, 254.413 216.575, 245.990 202 C 224.746 165.240, 225.637 166.297, 211.823 161.431 C 205.235 159.111, 205.365 159.293, 182.703 120.533 C 171.459 101.301, 161.570 85.132, 160.729 84.601 C 159.041 83.536, 148 89.512, 148 91.490 C 148 92.077, 153.458 101.995, 160.129 113.529 C 166.799 125.063, 174.051 137.650, 176.244 141.500 C 186.448 159.414, 188.059 161.119, 197.959 164.486 C 201.973 165.851, 205.896 167.499, 206.678 168.148 C 208.903 169.994, 245.574 232.760, 244.850 233.483 C 244.637 233.696, 234.346 228.010, 221.981 220.848 C 184.286 199.012, 181.453 197.994, 166.999 201.094 L 161.899 202.187 124.027 180.594 C 103.196 168.717, 85.538 159, 84.785 159 C 83.432 159, 78 168.859, 78 171.315 C 78 173.005, 136.854 206.923, 143.949 209.322 C 147.864 210.645, 150.826 211.011, 154 210.561 C 168.476 208.510, 167.095 208.298, 177.707 214.207 C 193.634 223.076, 233.421 246.147, 234.450 247.110 C 235.006 247.631, 220.694 248.002, 199.950 248.006 C 179.678 248.009, 163.001 248.434, 161 248.998 C 159.075 249.541, 154.403 252.463, 150.617 255.493 L 143.734 261 102.617 261.014 C 80.003 261.021, 60.488 261.299, 59.250 261.630 C 57.193 262.182, 57 262.824, 57 269.117 L 57 276 95.634 276 C 139.627 276, 139.140 276.071, 147.971 268.370 L 154.128 263 192.264 263 C 215.422 263, 230.027 263.360, 229.450 263.917 C 228.928 264.422, 215.900 272.094, 200.500 280.966 C 168.191 299.580, 167.276 300.324, 163.111 311.356 C 161.219 316.367, 159.163 320.072, 157.768 320.986 C 156.521 321.804, 139.750 331.561, 120.500 342.668 C 93.937 357.995, 85.422 363.370, 85.177 364.961 C 84.697 368.070, 90.033 375.996, 92.607 375.998 C 95.145 376, 153.717 342.680, 159.060 338.195 C 162.045 335.689, 163.376 333.377, 165.490 327.030 C 167.552 320.839, 168.868 318.513, 171.301 316.763 C 175.655 313.630, 234.406 280.073, 234.817 280.483 C 235 280.666, 229.855 289.970, 223.384 301.158 C 200.156 341.318, 201.500 338.502, 201.500 347 C 201.500 351.125, 201.863 356.525, 202.306 359 C 203.092 363.386, 202.900 363.867, 194.734 378 C 166.205 427.374, 159.961 438.547, 160.216 439.768 C 160.757 442.365, 171.893 447.546, 173.440 445.920 C 174.931 444.354, 204.483 393.874, 208.720 385.656 C 211.604 380.063, 212.208 372.742, 210.672 362 L 209.886 356.500 229.193 323.500 L 248.500 290.500 249 326.500 C 249.559 366.733, 249.474 366.220, 256.876 374.250 C 263.091 380.992, 263 380.221, 263 426.065 L 263 468 268.918 468 C 278.878 468, 278 471.632, 278 430.442 C 278 387.016, 277.903 386.356, 270.155 377.226 L 264.500 370.561 264.215 332.046 C 264.051 309.741, 264.302 293.945, 264.813 294.515 C 265.298 295.057, 272.595 307.425, 281.029 322 C 302.040 358.312, 301.587 357.775, 315.287 362.611 C 321.795 364.907, 321.768 364.870, 345 404.760 C 359.580 429.795, 366.009 439.966, 367.262 439.980 C 369.422 440.005, 378.957 433.896, 378.982 432.471 C 378.992 431.905, 373.540 422.005, 366.867 410.471 C 360.195 398.937, 352.210 385.065, 349.124 379.645 C 340.997 365.372, 338.334 362.597, 330.239 359.964 C 319.002 356.309, 321.188 359.242, 292.030 308.702 C 286.382 298.914, 281.936 290.730, 282.150 290.517 C 282.363 290.304, 292.654 295.990, 305.019 303.152 C 342.714 324.988, 345.547 326.006, 360.001 322.906 L 365.101 321.813 402.973 343.406 C 423.804 355.283, 441.462 365, 442.215 365 C 443.568 365, 449 355.141, 449 352.685 C 449 350.995, 390.146 317.077, 383.051 314.678 C 379.119 313.349, 376.188 312.990, 373 313.448 C 357.181 315.721, 363.545 318.438, 305.524 284.641 L 291.547 276.500 329.070 276 C 371.001 275.441, 367.180 276.105, 377.436 267.595 L 382.372 263.500 426.104 263 C 450.156 262.725, 470.137 262.198, 470.506 261.829 C 470.874 261.459, 470.859 258.197, 470.472 254.579 L 469.767 248 431.250 248 C 387.385 248, 387.858 247.931, 379.029 255.630 L 372.872 261 334.736 261 C 311.578 261, 296.973 260.640, 297.550 260.083 C 298.072 259.578, 311.100 251.930, 326.500 243.087 C 357.666 225.190, 360.167 223.146, 363.930 212.485 C 365.246 208.756, 367.347 204.816, 368.597 203.729 C 369.848 202.641, 386.762 192.613, 406.185 181.444 C 432.371 166.386, 441.581 160.611, 441.815 159.106 C 442.324 155.819, 437.208 148, 434.548 148 C 431.898 148, 373.469 181.163, 367.940 185.805 C 364.955 188.311, 363.624 190.623, 361.510 196.970 C 359.448 203.161, 358.132 205.487, 355.699 207.237 C 351.348 210.368, 292.594 243.928, 292.184 243.517 C 292.001 243.334, 296.891 234.481, 303.050 223.842 C 326.834 182.760, 325.500 185.541, 325.500 177.034 C 325.500 172.891, 325.137 167.475, 324.694 165 C 323.908 160.614, 324.100 160.133, 332.266 146 C 359.693 98.532, 367 85.581, 367 84.433 C 367 82.894, 356.048 76.767, 354.416 77.394 C 353.369 77.796, 323.327 128.526, 317.934 139 C 315.414 143.896, 314.864 151.763, 316.328 162 L 317.114 167.500 297.807 200.500 L 278.500 233.500 278 197.500 C 277.441 157.267, 277.526 157.780, 270.124 149.750 C 263.909 143.008, 264 143.779, 264 97.935 L 264 56 258.750 56.136 C 255.863 56.211, 252.459 56.471, 251.187 56.714 M 405.500 99.869 C 394.500 110.751, 384.922 120.295, 384.215 121.078 C 383.508 121.860, 379.008 126.397, 374.215 131.160 C 344.331 160.853, 343.161 162.423, 341.822 174.604 C 340.823 183.698, 339.674 186.303, 334.250 191.783 C 330.216 195.859, 330.216 196.549, 334.250 200.952 L 337.500 204.500 333.765 201.068 C 329.506 197.156, 327.803 197.512, 330.783 201.692 C 333.987 206.188, 337 208.645, 337 206.763 C 337 205.913, 338.084 204.945, 339.409 204.612 C 343.001 203.711, 347 195.067, 347 188.205 C 347 185.233, 347.691 181.346, 348.535 179.567 C 350.073 176.326, 367.939 158, 369.561 158 C 371.409 158, 429 98.917, 429 97.021 C 429 93.295, 426.752 80, 426.128 80.041 C 425.783 80.064, 416.500 88.987, 405.500 99.869 M 88.750 98.261 C 83.681 98.900, 81 99.676, 81 100.504 C 81 101.200, 88.808 109.359, 98.351 118.635 C 107.894 127.911, 125.803 145.457, 138.147 157.626 C 162.952 182.078, 164.936 183.465, 176.258 184.285 C 184.616 184.890, 188.249 186.507, 193.437 191.930 C 197.032 195.688, 197.612 195.711, 201.400 192.250 C 204.370 189.537, 204.366 189.551, 201.143 193.355 C 199.347 195.475, 198.117 197.451, 198.411 197.744 C 198.953 198.287, 203.756 194.865, 207.619 191.185 C 209.604 189.294, 209.854 189.272, 211.586 190.833 C 213.379 192.451, 213.380 192.435, 211.618 190.312 C 210.140 188.531, 209.344 188.299, 207.334 189.063 C 205.138 189.898, 204.935 189.780, 205.501 187.998 C 206.817 183.851, 199.991 180.011, 189.625 179.066 C 185.141 178.657, 180.578 177.841, 179.486 177.253 C 178.394 176.665, 159.829 158.367, 138.232 136.592 C 116.634 114.816, 98.409 97.064, 97.732 97.141 C 97.054 97.219, 93.013 97.723, 88.750 98.261 M 467 192.673 C 451.875 196.782, 436.125 201.025, 432 202.101 C 384.050 214.609, 381.118 215.836, 374.206 226.276 C 370.361 232.082, 368.859 233.539, 366 234.235 C 364.075 234.703, 361.825 235.365, 361 235.707 C 360.175 236.048, 359.275 236.382, 359 236.449 C 358.725 236.516, 357.488 237.133, 356.250 237.821 C 355.012 238.508, 354 238.740, 354 238.335 C 354 237.931, 353.530 238.070, 352.956 238.644 C 352.294 239.306, 352.166 242.160, 352.605 246.453 C 353.114 251.418, 353.547 252.774, 354.233 251.548 C 354.747 250.630, 356.142 249.990, 357.334 250.127 C 360.770 250.521, 369.283 245.567, 371.398 241.942 C 374.188 237.163, 380.134 231.352, 383 230.605 C 384.375 230.246, 394.275 227.664, 405 224.867 C 415.725 222.069, 427.200 219.140, 430.500 218.358 C 433.800 217.575, 438.750 216.281, 441.500 215.482 C 444.250 214.683, 455.950 211.528, 467.500 208.470 C 479.050 205.412, 488.989 202.368, 489.587 201.705 C 491.024 200.111, 496 188.263, 496 186.434 C 496 184.627, 498.960 183.990, 467 192.673 M 30.500 205.977 C 27.200 208.645, 24.500 211.405, 24.500 212.112 C 24.500 213.548, 23.905 213.378, 91 231.027 C 140.142 243.954, 137.098 243.555, 147.899 238.486 C 155.398 234.967, 156.326 234.766, 161.719 235.485 C 164.899 235.909, 168.920 236.310, 170.655 236.378 C 172.389 236.445, 173.574 236.881, 173.286 237.346 C 172.998 237.812, 173.528 238.037, 174.462 237.846 C 175.835 237.566, 180.712 227.080, 179.738 226.502 C 174.298 223.276, 164.579 223.491, 157.160 227.001 C 149.141 230.795, 147.766 230.763, 132.271 226.423 C 119.862 222.947, 113.568 221.240, 98 217.127 C 93.875 216.038, 88.025 214.467, 85 213.636 C 68.296 209.050, 37.683 201.009, 37.136 201.064 C 36.786 201.099, 33.800 203.310, 30.500 205.977 M 172.724 272.322 C 172.273 273.469, 171.172 274.048, 169.754 273.884 C 165.320 273.374, 157.766 278.505, 153.547 284.894 C 151.372 288.186, 148.672 291.352, 147.547 291.928 C 145.852 292.797, 114.641 301.354, 106 303.319 C 99.595 304.776, 90.039 307.199, 85.500 308.518 C 82.750 309.317, 71.050 312.472, 59.500 315.530 C 47.950 318.588, 38.011 321.632, 37.413 322.295 C 35.948 323.920, 31 335.753, 31 337.633 C 31 338.605, 31.617 338.942, 32.750 338.588 C 34.380 338.078, 78.157 326.324, 95 321.873 C 144.536 308.784, 145.491 308.385, 152.670 297.794 C 156.608 291.984, 158.196 290.456, 161.017 289.766 C 162.933 289.297, 165.175 288.635, 166 288.293 C 166.825 287.952, 167.725 287.618, 168 287.551 C 168.275 287.484, 169.625 286.807, 171 286.046 C 172.375 285.285, 173.725 284.756, 174 284.871 C 174.953 285.268, 175.061 281.474, 174.253 276 C 173.690 272.188, 173.221 271.059, 172.724 272.322 M 379 285.533 C 371.882 289.019, 371.169 289.169, 365 288.471 C 361.425 288.066, 357.305 287.682, 355.845 287.618 C 354.386 287.553, 353.400 287.163, 353.655 286.750 C 353.909 286.337, 353.459 286, 352.653 286 C 351.327 286, 348 293.521, 348 296.520 C 348 298.032, 354.631 300, 359.725 300 C 362.177 300, 365.992 298.847, 369.609 297.013 C 377.133 293.197, 379.263 293.245, 394.729 297.577 C 407.243 301.082, 413.930 302.895, 429 306.869 C 433.125 307.956, 439.650 309.712, 443.500 310.771 C 447.350 311.829, 459.359 315.044, 470.186 317.915 L 489.872 323.134 496.478 317.943 C 500.111 315.088, 502.920 312.260, 502.719 311.658 C 502.365 310.595, 498.340 309.414, 466 300.884 C 457.475 298.636, 443.750 295.009, 435.500 292.824 C 388.239 280.308, 389.371 280.454, 379 285.533 M 190 317.808 C 190 318.344, 188.916 319.055, 187.591 319.388 C 183.999 320.289, 180 328.933, 180 335.795 C 180 338.767, 179.309 342.654, 178.465 344.433 C 176.949 347.627, 159.072 366, 157.480 366 C 155.666 366, 98 425.128, 98 426.988 C 98 430.704, 100.249 444, 100.872 443.963 C 101.407 443.931, 139.069 407.059, 142.785 402.928 C 143.492 402.143, 147.992 397.603, 152.785 392.840 C 182.669 363.147, 183.839 361.577, 185.178 349.396 C 186.177 340.302, 187.326 337.697, 192.750 332.217 C 194.537 330.411, 196 328.407, 196 327.764 C 196 327.121, 194.537 324.999, 192.750 323.048 L 189.500 319.500 193.235 322.932 C 197.937 327.252, 199.319 326.198, 195.363 321.309 C 192.333 317.567, 190 316.043, 190 317.808 M 324.330 328.876 C 319.577 332.319, 318.132 334.211, 319.823 334.774 C 320.470 334.990, 321 335.836, 321 336.655 C 321 340.587, 327.888 344.069, 337.375 344.934 C 341.859 345.343, 346.422 346.159, 347.514 346.747 C 348.606 347.336, 367.144 365.612, 388.709 387.361 L 427.918 426.904 436.959 425.791 C 442.298 425.134, 446 424.220, 446 423.559 C 446 421.652, 366.365 344.225, 362.310 342.189 C 360.035 341.047, 355.363 340.050, 350.712 339.713 C 345.690 339.349, 341.916 338.501, 340.084 337.324 C 336.322 334.908, 329.342 328.526, 328.851 327.053 C 328.606 326.318, 326.926 326.995, 324.330 328.876 M 227.448 346.083 C 227.137 346.588, 227.246 347.014, 227.691 347.030 C 228.136 347.047, 227.772 347.486, 226.882 348.006 C 223.746 349.839, 224.525 359.197, 228.558 368.128 L 232.112 375.999 229.002 387.749 C 227.292 394.212, 225.498 400.850, 225.016 402.500 C 222.561 410.903, 221.675 414.078, 219.992 420.500 C 218.984 424.350, 214.748 440.100, 210.581 455.500 C 206.413 470.900, 203.002 484.551, 203.002 485.834 C 203 488.355, 211.567 500, 213.423 500 C 214.058 500, 217.953 487.204, 222.328 470.750 C 226.605 454.663, 230.798 439.025, 231.646 436 C 243.748 392.833, 244.844 385.768, 240.593 378.332 C 235.722 369.815, 235.490 367.421, 238.352 355.271 C 238.641 354.045, 238.433 352.768, 237.890 352.432 C 237.261 352.044, 237.325 351.314, 238.064 350.423 C 238.979 349.320, 238.831 348.899, 237.363 348.437 C 236.338 348.114, 233.816 347.246, 231.757 346.508 C 229.586 345.730, 227.777 345.552, 227.448 346.083 M 277.578 350.892 C 273.872 351.467, 271.182 354, 274.278 354 C 275.248 354, 275.578 354.759, 275.281 356.311 C 275.023 357.659, 275.498 359.168, 276.420 359.933 C 277.289 360.655, 278 361.844, 278 362.577 C 278 364.357, 281.526 367.743, 287.800 371.991 C 293.911 376.127, 295.221 379.118, 300.074 400 C 301.045 404.175, 304.524 417.507, 306.468 424.500 C 307.233 427.250, 308.973 433.775, 310.335 439 C 316.672 463.312, 323.183 486.556, 323.809 487.101 C 324.778 487.944, 337.807 493, 339.011 493 C 340.710 493, 340.153 490.091, 334.415 469 C 331.347 457.725, 327.498 443.550, 325.862 437.500 C 324.225 431.450, 322.262 424.250, 321.499 421.500 C 320.736 418.750, 319.219 413.125, 318.127 409 C 310.777 381.230, 309.490 378.732, 299.096 372.061 C 294.172 368.902, 290.422 363.793, 289.721 359.289 C 289.568 358.305, 289.091 356.938, 288.662 356.250 C 288.233 355.563, 288.160 354.550, 288.500 354 C 288.855 353.426, 287.947 353, 286.368 353 C 283.735 353, 283.701 352.937, 285.559 351.532 C 287.401 350.139, 287.347 350.069, 284.500 350.174 C 282.850 350.234, 279.735 350.557, 277.578 350.892" stroke="none" fill="#000000" fill-rule="evenodd"/>
</svg>