<?xml version="1.0" encoding="UTF-8"?>
<svg id="logo" xmlns="http://www.w3.org/2000/svg" version="1.1" xmlns:xlink="http://www.w3.org/1999/xlink" viewBox="0 0 1080 1080">
  <!-- Generator: Adobe Illustrator 29.8.3, SVG Export Plug-In . SVG Version: 2.1.1 Build 3)  -->
  <defs>
    <style>
      .st0 {
        fill: url(#radial-gradient);
      }

      .st1 {
        fill: url(#radial-gradient1);
      }
    </style>
    <radialGradient id="radial-gradient" cx="540" cy="540" fx="540" fy="540" r="500" gradientUnits="userSpaceOnUse">
      <stop offset="0" stop-color="#fff"/>
      <stop offset=".25" stop-color="#ffd886"/>
      <stop offset=".5" stop-color="#f37021"/>
      <stop offset=".55" stop-color="#f37735" stop-opacity=".95"/>
      <stop offset=".64" stop-color="#f58a6c" stop-opacity=".83"/>
      <stop offset=".65" stop-color="#f68c71" stop-opacity=".82"/>
      <stop offset=".9" stop-color="#456b9c" stop-opacity=".95"/>
      <stop offset="1" stop-color="#005fae"/>
    </radialGradient>
    <radialGradient id="radial-gradient1" cx="647.16" cy="45.76" fx="647.16" fy="45.76" r="500" gradientTransform="translate(50.03 965.25) rotate(-45)" gradientUnits="userSpaceOnUse">
      <stop offset=".35" stop-color="#fff" stop-opacity="0"/>
      <stop offset="1" stop-color="#005fae"/>
    </radialGradient>
  </defs>
  <g id="_x33_">
    <path id="primary" class="st0" d="M737.63,567.51c9.91-1,18.7-4.32,23.81-8.87l14.36-12.78c.57-.51,3.2-2.59,4.09-2.93,2.39-1.41,5.69-2.35,9.35-2.68.87-.15,4.28-.23,5.23-.23h224.15l21.37-28.29h-213.68c-2.75.02-12.83.29-15.33.78-9.91,1-18.7,4.32-23.81,8.87l-14.36,12.78c-.57.51-3.2,2.6-4.1,2.94-2.39,1.41-5.68,2.34-9.32,2.67-.87.15-4.32.23-5.27.24h-157.54l115.45-66.65c2.37-1.39,10.97-6.67,12.88-8.34,8.08-5.82,14.03-13.09,16.19-19.59l6.05-18.25c.24-.73,1.47-3.85,2.08-4.59,1.36-2.42,3.76-4.88,6.76-6.99.68-.56,3.59-2.34,4.41-2.82l194.12-112.07,4.36-35.19-185.06,106.84c-2.37,1.39-10.97,6.67-12.88,8.34-8.08,5.82-14.03,13.09-16.19,19.59l-6.05,18.25c-.24.73-1.47,3.85-2.08,4.59-1.36,2.41-3.75,4.87-6.74,6.98-.68.57-3.62,2.36-4.45,2.84l-136.43,78.77,66.65-115.45c1.36-2.39,6.16-11.26,6.99-13.66,4.09-9.09,5.61-18.36,4.22-25.06l-3.89-18.83c-.15-.75-.65-4.07-.49-5.01-.03-2.78.81-6.1,2.36-9.43.3-.82,1.94-3.82,2.41-4.65l112.07-194.12-13.82-32.65-106.84,185.06c-1.36,2.39-6.17,11.26-6.99,13.66-4.09,9.08-5.61,18.35-4.22,25.06l3.89,18.83c.15.75.65,4.07.49,5.01.03,2.77-.81,6.09-2.35,9.41-.31.83-1.96,3.85-2.43,4.69l-78.77,136.43v-133.31c-.02-2.75-.29-12.83-.78-15.32-1-9.91-4.32-18.7-8.88-23.81l-12.78-14.36c-.51-.57-2.6-3.2-2.93-4.09-1.41-2.39-2.35-5.69-2.68-9.35-.15-.87-.23-4.28-.23-5.23V61.37l-28.29-21.37v213.68c.02,2.75.29,12.83.78,15.33,1,9.91,4.32,18.7,8.87,23.81l12.78,14.36c.51.57,2.6,3.2,2.94,4.1,1.41,2.39,2.34,5.68,2.67,9.32.15.87.23,4.32.24,5.27v157.54l-66.65-115.45c-1.39-2.37-6.67-10.97-8.34-12.88-5.82-8.08-13.09-14.03-19.59-16.19l-18.25-6.05c-.72-.24-3.85-1.47-4.59-2.08-2.42-1.36-4.88-3.76-6.99-6.76-.56-.68-2.34-3.59-2.82-4.41l-112.07-194.12-35.19-4.36,106.84,185.06c1.39,2.37,6.67,10.97,8.34,12.88,5.82,8.08,13.09,14.03,19.59,16.19l18.25,6.05c.73.24,3.85,1.47,4.59,2.08,2.41,1.36,4.87,3.75,6.98,6.74.57.68,2.36,3.62,2.84,4.45l78.77,136.43-115.45-66.65c-2.39-1.36-11.26-6.16-13.66-6.99-9.09-4.09-18.36-5.61-25.06-4.22l-18.83,3.89c-.75.15-4.07.65-5.01.49-2.78.03-6.1-.81-9.44-2.36-.82-.3-3.82-1.94-4.65-2.41l-194.12-112.07-32.65,13.82,185.06,106.84c2.39,1.36,11.26,6.17,13.66,6.99,9.08,4.09,18.35,5.61,25.06,4.22l18.83-3.89c.75-.15,4.07-.65,5.01-.49,2.77-.03,6.09.81,9.41,2.35.83.31,3.85,1.96,4.69,2.43l136.43,78.77h-133.3c-2.75.02-12.83.29-15.32.78-9.91,1-18.7,4.32-23.81,8.88l-14.36,12.78c-.57.51-3.2,2.6-4.09,2.93-2.39,1.41-5.69,2.35-9.35,2.68-.87.15-4.28.23-5.23.23H61.37l-21.37,28.29h213.68c2.75-.02,12.83-.29,15.33-.78,9.91-1,18.7-4.32,23.81-8.87l14.36-12.78c.57-.51,3.2-2.6,4.1-2.94,2.39-1.41,5.68-2.34,9.33-2.67.87-.15,4.32-.23,5.27-.24h157.54l-115.45,66.65c-2.37,1.39-10.97,6.67-12.88,8.34-8.08,5.82-14.03,13.09-16.19,19.59l-6.05,18.25c-.24.72-1.47,3.85-2.08,4.59-1.36,2.42-3.76,4.88-6.76,6.99-.68.56-3.59,2.34-4.41,2.82l-194.12,112.07-4.36,35.19,185.06-106.84c2.37-1.39,10.97-6.67,12.88-8.34,8.08-5.82,14.03-13.09,16.19-19.59l6.05-18.25c.24-.73,1.47-3.85,2.08-4.59,1.36-2.41,3.75-4.87,6.74-6.98.68-.57,3.62-2.36,4.45-2.84l136.44-78.77-66.66,115.45c-1.36,2.39-6.16,11.26-6.99,13.66-4.09,9.09-5.61,18.36-4.22,25.06l3.89,18.83c.15.75.65,4.07.49,5.01.03,2.78-.81,6.1-2.36,9.44-.3.82-1.94,3.82-2.41,4.65l-112.07,194.12,13.82,32.65,106.84-185.06c1.36-2.39,6.17-11.26,6.99-13.66,4.09-9.08,5.61-18.35,4.22-25.06l-3.89-18.83c-.15-.75-.65-4.07-.49-5.01-.03-2.77.81-6.09,2.35-9.41.31-.83,1.96-3.85,2.43-4.69l78.77-136.43v133.31c.02,2.75.29,12.83.78,15.32,1,9.91,4.32,18.7,8.88,23.81l12.78,14.36c.51.57,2.6,3.2,2.93,4.09,1.41,2.39,2.35,5.69,2.68,9.35.15.87.23,4.28.23,5.23v224.15l28.29,21.37v-213.68c-.02-2.75-.29-12.83-.78-15.33-1-9.91-4.32-18.7-8.87-23.81l-12.78-14.36c-.51-.57-2.6-3.2-2.94-4.1-1.41-2.39-2.34-5.68-2.67-9.32-.15-.87-.23-4.32-.24-5.27v-157.53l66.65,115.44c1.39,2.37,6.67,10.97,8.34,12.88,5.82,8.08,13.09,14.04,19.59,16.19l18.25,6.05c.72.24,3.85,1.47,4.59,2.08,2.42,1.36,4.88,3.76,6.99,6.76.56.68,2.34,3.59,2.82,4.41l112.07,194.12,35.19,4.36-106.84-185.06c-1.39-2.37-6.67-10.97-8.34-12.88-5.82-8.08-13.09-14.03-19.59-16.19l-18.25-6.05c-.73-.24-3.85-1.47-4.59-2.08-2.41-1.36-4.87-3.75-6.98-6.74-.57-.68-2.36-3.62-2.84-4.45l-78.77-136.43,115.45,66.65c2.39,1.36,11.26,6.16,13.66,6.99,9.09,4.09,18.36,5.61,25.06,4.22l18.83-3.89c.75-.15,4.07-.65,5.01-.49,2.78-.03,6.1.81,9.44,2.36.82.3,3.82,1.94,4.65,2.41l194.12,112.07,32.65-13.82-185.06-106.84c-2.39-1.36-11.26-6.17-13.66-6.99-9.08-4.09-18.35-5.61-25.06-4.22l-18.83,3.89c-.75.15-4.07.65-5.01.49-2.77.03-6.09-.81-9.41-2.35-.83-.31-3.85-1.96-4.69-2.43l-136.43-78.77h133.3c2.75-.02,12.83-.29,15.32-.78Z"/>
    <path id="secondary" class="st1" d="M699.2,419.7c6.3-7.72,10.17-16.28,10.56-23.11l1.12-19.19c.04-.76.43-4.09.82-4.97.69-2.69,2.36-5.69,4.72-8.5.51-.72,2.86-3.19,3.53-3.86l158.5-158.5-4.9-35.12-151.1,151.1c-1.93,1.96-8.87,9.28-10.28,11.39-6.3,7.72-10.17,16.28-10.56,23.11l-1.12,19.19c-.04.76-.42,4.1-.82,4.97-.69,2.68-2.36,5.67-4.7,8.48-.51.72-2.89,3.22-3.56,3.9l-111.39,111.39,34.5-128.76c.7-2.66,3.04-12.47,3.21-15,1.6-9.83.67-19.18-2.41-25.3l-8.63-17.18c-.34-.68-1.68-3.76-1.78-4.71-.75-2.68-.8-6.11-.17-9.72.08-.88.89-4.19,1.13-5.11l58.01-216.51-21.8-27.96-55.31,206.4c-.7,2.66-3.04,12.47-3.21,15.01-1.6,9.83-.67,19.18,2.41,25.3l8.63,17.18c.34.68,1.68,3.76,1.78,4.72.74,2.67.79,6.09.17,9.7-.08.88-.89,4.23-1.13,5.16l-40.77,152.17-34.5-128.76c-.73-2.65-3.6-12.32-4.72-14.6-3.53-9.32-9.01-16.95-14.74-20.71l-16.06-10.57c-.64-.42-3.33-2.42-3.89-3.2-1.98-1.94-3.74-4.89-5-8.34-.37-.8-1.33-4.07-1.58-4.99l-58.01-216.51-32.86-13.32,55.31,206.4c.73,2.65,3.6,12.32,4.72,14.6,3.53,9.32,9.01,16.94,14.74,20.71l16.06,10.57c.64.42,3.33,2.42,3.9,3.2,1.98,1.94,3.73,4.88,4.99,8.32.37.8,1.34,4.11,1.6,5.03l40.77,152.17-94.26-94.26c-1.96-1.93-9.28-8.87-11.39-10.28-7.72-6.3-16.28-10.17-23.11-10.56l-19.19-1.12c-.76-.04-4.1-.42-4.97-.82-2.69-.69-5.69-2.36-8.5-4.72-.72-.51-3.19-2.86-3.86-3.53l-158.5-158.5-35.12,4.9,151.1,151.1c1.96,1.93,9.28,8.87,11.39,10.28,7.72,6.3,16.28,10.17,23.11,10.56l19.19,1.12c.76.04,4.1.43,4.97.82,2.68.69,5.67,2.36,8.48,4.7.72.51,3.22,2.89,3.9,3.56l111.4,111.4-128.76-34.5c-2.66-.7-12.47-3.04-15-3.21-9.83-1.6-19.18-.67-25.3,2.41l-17.18,8.63c-.68.34-3.76,1.68-4.71,1.77-2.68.75-6.11.8-9.72.17-.88-.08-4.19-.89-5.11-1.13l-216.51-58.01-27.96,21.8,206.4,55.31c2.66.7,12.47,3.04,15.01,3.21,9.83,1.6,19.18.67,25.3-2.41l17.18-8.63c.68-.34,3.76-1.68,4.72-1.78,2.67-.74,6.09-.79,9.7-.17.88.08,4.23.89,5.16,1.13l152.17,40.77-128.76,34.5c-2.65.73-12.32,3.6-14.6,4.72-9.32,3.53-16.95,9.01-20.71,14.74l-10.57,16.06c-.42.64-2.42,3.33-3.2,3.89-1.94,1.98-4.89,3.74-8.34,5-.8.37-4.07,1.33-4.99,1.58l-216.51,58.01-13.32,32.86,206.4-55.31c2.65-.73,12.32-3.6,14.6-4.72,9.31-3.53,16.94-9.01,20.7-14.74l10.56-16.06c.42-.64,2.42-3.33,3.2-3.9,1.94-1.98,4.88-3.73,8.32-4.99.8-.37,4.11-1.34,5.03-1.6l152.17-40.77-94.26,94.26c-1.93,1.96-8.87,9.28-10.28,11.39-6.3,7.72-10.17,16.28-10.56,23.11l-1.12,19.19c-.04.76-.42,4.09-.82,4.97-.69,2.69-2.36,5.69-4.72,8.5-.51.72-2.86,3.19-3.53,3.86l-158.5,158.5,4.9,35.12,151.1-151.1c1.93-1.96,8.87-9.28,10.28-11.39,6.3-7.72,10.17-16.28,10.56-23.11l1.12-19.19c.04-.76.43-4.1.82-4.97.69-2.68,2.36-5.67,4.7-8.48.51-.72,2.89-3.22,3.56-3.9l111.4-111.4-34.5,128.77c-.7,2.66-3.04,12.47-3.21,15-1.6,9.83-.67,19.18,2.41,25.3l8.63,17.18c.34.68,1.68,3.76,1.78,4.71.75,2.68.8,6.11.17,9.72-.08.88-.89,4.19-1.13,5.11l-58.01,216.51,21.8,27.96,55.31-206.4c.7-2.66,3.04-12.47,3.21-15.01,1.6-9.83.67-19.18-2.41-25.3l-8.63-17.18c-.34-.68-1.68-3.76-1.78-4.72-.74-2.67-.79-6.09-.17-9.7.08-.88.89-4.23,1.13-5.16l40.78-152.17,34.5,128.77c.73,2.65,3.6,12.32,4.72,14.6,3.53,9.32,9.01,16.95,14.74,20.71l16.06,10.57c.64.42,3.33,2.42,3.89,3.2,1.98,1.94,3.74,4.89,5,8.34.37.8,1.33,4.07,1.58,4.99l58.01,216.51,32.86,13.32-55.31-206.4c-.73-2.65-3.6-12.32-4.72-14.6-3.53-9.32-9.01-16.94-14.74-20.71l-16.06-10.56c-.64-.42-3.33-2.42-3.9-3.2-1.98-1.94-3.73-4.88-4.99-8.32-.37-.8-1.34-4.11-1.6-5.03l-40.77-152.17,94.26,94.26c1.96,1.93,9.28,8.87,11.39,10.28,7.72,6.3,16.28,10.17,23.12,10.56l19.19,1.12c.76.04,4.1.42,4.97.82,2.69.69,5.69,2.36,8.5,4.72.72.51,3.19,2.86,3.86,3.53l158.5,158.5,35.12-4.9-151.1-151.1c-1.96-1.93-9.28-8.87-11.39-10.28-7.72-6.3-16.28-10.17-23.11-10.56l-19.19-1.12c-.76-.04-4.1-.43-4.97-.82-2.68-.69-5.67-2.36-8.48-4.7-.72-.51-3.22-2.89-3.9-3.56l-111.39-111.39,128.76,34.5c2.66.7,12.47,3.04,15,3.21,9.83,1.6,19.18.67,25.3-2.41l17.18-8.63c.68-.34,3.76-1.68,4.71-1.78,2.68-.75,6.11-.8,9.72-.17.88.08,4.19.89,5.11,1.13l216.51,58.01,27.96-21.8-206.4-55.31c-2.66-.7-12.47-3.04-15.01-3.21-9.83-1.6-19.18-.67-25.3,2.41l-17.18,8.63c-.68.34-3.76,1.68-4.72,1.78-2.67.74-6.09.79-9.7.17-.88-.08-4.23-.89-5.16-1.13l-152.17-40.77,128.77-34.5c2.65-.73,12.32-3.6,14.6-4.72,9.32-3.53,16.95-9.01,20.71-14.74l10.57-16.06c.42-.64,2.42-3.33,3.2-3.89,1.94-1.98,4.89-3.74,8.34-5,.8-.37,4.07-1.33,4.99-1.58l216.51-58.01,13.32-32.86-206.4,55.31c-2.65.73-12.32,3.6-14.6,4.72-9.31,3.53-16.94,9.01-20.7,14.74l-10.56,16.06c-.42.64-2.42,3.33-3.2,3.9-1.94,1.98-4.88,3.73-8.32,4.99-.8.37-4.11,1.34-5.03,1.6l-152.17,40.77,94.26-94.26c1.93-1.96,8.87-9.28,10.28-11.39Z"/>
  </g>
</svg>