<svg width="139" height="42" viewBox="0 0 139 42" fill="none" xmlns="http://www.w3.org/2000/svg">
<path d="M124.544 34.163C118.883 34.163 113.316 30.8801 113.316 23.4102C113.316 15.8451 118.651 8.85096 126.91 8.85096C132.617 8.85096 138.139 12.0863 138.139 19.6038C138.139 27.1689 132.849 34.163 124.544 34.163ZM120.971 22.982C120.971 25.9319 122.688 27.2641 124.822 27.2641C128.117 27.2641 130.483 23.3626 130.483 20.032C130.483 17.0821 128.766 15.7499 126.632 15.7499C123.338 15.7499 120.971 19.6514 120.971 22.982Z" fill="#2DA551"/>
<path fill-rule="evenodd" clip-rule="evenodd" d="M117.873 6.03975L115.631 12.0285H111.553C111.883 12.4877 112.165 13.0003 112.393 13.5689C115.088 20.2823 109.449 25.7967 103.02 25.7967H97.9166C97.1743 25.7967 96.5247 26.3202 96.5247 27.0815C96.5247 27.6048 96.8959 28.0329 97.731 28.033H104.041C109.052 28.033 111.465 30.2692 111.465 34.0756C111.465 38.3101 108.264 41.9736 102.603 41.9736H93.88C89.1474 41.9736 87.1522 39.2617 87.1522 36.3594C87.1522 33.9329 88.7297 31.6965 91.6992 30.6974C90.7713 29.7458 90.2609 28.5088 90.2609 27.129C90.2609 24.8928 91.8384 22.7993 95.1327 21.9904C94.0192 20.7534 93.5553 19.2308 93.5553 17.6131C93.5553 13.1883 97.0351 8.85866 103.856 8.85864C106.227 8.85864 108.255 9.3274 109.801 10.3494L111.415 6.03975H117.873ZM96.1699 33.5999C94.8708 33.5999 94.1284 34.266 94.1284 35.1699C94.1284 35.9312 94.6852 36.4069 95.5204 36.4069H102.527C103.687 36.4069 104.475 35.6458 104.475 34.7894C104.475 34.0281 103.872 33.6 102.991 33.5999H96.1699ZM103.64 14.5682C101.645 14.5682 100.485 16.186 100.485 17.6609C100.485 19.231 101.691 20.0874 103.176 20.0874C105.218 20.0874 106.331 18.4696 106.331 16.9947C106.331 15.4246 105.171 14.5682 103.64 14.5682Z" fill="#2DA551"/>
<path d="M79.1081 33.4023V9.61277H85.6039V13.8949C86.207 11.0877 88.1558 9.61277 91.1717 9.61277H92.6707V16.2738H90.2437C87.7382 16.2738 86.5318 17.4157 86.5318 19.8899V33.4023H79.1081Z" fill="#2DA551"/>
<path d="M66.4133 34.1633C59.2215 34.1633 54.5353 29.0247 54.5353 21.3645C54.5353 13.7994 59.2679 8.85119 66.2277 8.85119C73.5123 8.85119 77.8737 13.6567 77.8737 21.3645C77.8737 22.3161 77.8273 23.3152 77.7345 24.2668H61.8198C62.1446 26.6458 63.7686 27.8828 66.4597 27.8828C68.3156 27.8828 69.4292 27.1216 69.8468 26.2176H77.5025C76.157 30.9755 72.5843 34.1633 66.4133 34.1633ZM61.7734 18.5573H70.4036C70.4036 16.3211 69.0116 14.8462 66.2277 14.8462C63.5366 14.8462 61.959 16.2735 61.7734 18.5573Z" fill="#2DA551"/>
<path d="M47.2058 33.4022C42.8444 33.4022 40.8028 31.5942 40.8028 26.8363V2.80884H48.2266V9.61265H54.3026V16.2737H48.2266V24.8855C48.2266 26.1226 48.6906 26.7411 50.0361 26.7411H54.3026V33.4022H47.2058Z" fill="#2DA551"/>
<path d="M31.6792 33.4018C31.6792 24.72 31.6792 0.0966797 31.6792 0.0966797L39.103 0.0966797V33.4018H31.6792Z" fill="#2DA551"/>
<path d="M22.5556 33.4021V9.37409H29.9794V33.4021H22.5556ZM22.5556 7.47086V0.0966797L29.9794 0.0966797V7.47086H22.5556Z" fill="#2DA551"/>
<path d="M0.0299683 33.4021L0.0299683 0.0966797L20.8165 0.0966797V7.47144H7.68572V12.8003H20.8165V20.1751H7.68572V33.4021H0.0299683Z" fill="#2DA551"/>
</svg>
