<svg width="440" height="49" viewBox="0 0 440 49" fill="none" xmlns="http://www.w3.org/2000/svg">
<g id="Group 1538234218">
<g id="Group 1538234217">
<path id="Vector" d="M0.00997925 0.370361H10.96V2.48035H2.35999V7.7804H9.97V9.89038H2.35999V18.0403H0V0.360352L0.00997925 0.370361Z" fill="white"/>
<path id="Vector_2" d="M15.0205 0.370117H22.0405C25.3605 0.370117 27.6905 2.09015 27.6905 5.53015C27.6905 8.39015 26.0805 10.0601 23.6305 10.5401L26.8605 17.5701V18.0601H24.4705L21.2405 10.6901H17.3905V18.0601H15.0305V0.380127L15.0205 0.370117ZM21.8005 8.57013C24.0705 8.57013 25.3405 7.69015 25.3405 5.53015C25.3405 3.37015 24.0805 2.4801 21.8005 2.4801H17.3805V8.57013H21.8005Z" fill="white"/>
<path id="Vector_3" d="M30.7607 17.5601L36.0308 0.370117H39.6608L44.9308 17.5601V18.0501H42.5807L40.9507 12.6001H34.7408L33.1108 18.0501H30.7607V17.5601ZM40.3207 10.4901L38.0208 2.80011C37.9908 2.73011 37.9408 2.70013 37.8508 2.70013C37.7608 2.70013 37.7008 2.73011 37.6808 2.80011L35.3807 10.4901H40.3207Z" fill="white"/>
<path id="Vector_4" d="M49.0605 0.370117H53.3606L59.0106 15.5701C59.0606 15.6901 59.1306 15.7201 59.2606 15.7201C59.3906 15.7201 59.4306 15.6401 59.4306 15.5201V0.370117H61.7906V18.0501H57.4906L51.8406 2.8501C51.7906 2.7301 51.7206 2.70013 51.5906 2.70013C51.4606 2.70013 51.4206 2.78015 51.4206 2.90015V18.0501H49.0605V0.370117Z" fill="white"/>
<path id="Vector_5" d="M74.9701 0C80.3701 0 82.9501 3.32998 83.0001 7.22998H80.6401C80.5401 4.49998 78.8501 2.10999 74.9701 2.10999C71.0901 2.10999 68.4601 4.87002 68.4601 9.21002C68.4601 13.55 71.0401 16.31 74.9701 16.31C78.9001 16.31 80.7201 13.93 80.8601 10.8H83.2201C83.0501 14.95 80.3701 18.43 74.9701 18.43C69.5701 18.43 66.0801 14.75 66.0801 9.21997C66.0801 3.68997 69.5701 0.0100098 74.9701 0.0100098V0Z" fill="white"/>
<path id="Vector_6" d="M87.3701 0.370117H89.7302V7.9101H97.5901V0.370117H99.9501V18.0501H97.5901V10.0201H89.7302V18.0501H87.3701V0.370117Z" fill="white"/>
<path id="Vector_7" d="M107.711 0.370117V18.0501H105.351V0.370117H107.711Z" fill="white"/>
<path id="Vector_8" d="M125.44 5.40997H123.06C122.94 3.09997 121.29 2.09003 118.89 2.09003C116.49 2.09003 114.94 3.07998 114.94 4.97998C114.94 6.87998 116.51 7.51001 118.28 7.82001L120.51 8.21002C123.1 8.67002 125.62 9.83999 125.62 13.18C125.62 16.52 122.82 18.42 119.16 18.42C115.5 18.42 112.16 16.53 112.04 12.28H114.42C114.59 15.15 116.56 16.33 119.16 16.33C121.76 16.33 123.26 15.14 123.26 13.2C123.26 11.26 121.55 10.61 119.7 10.28L117.47 9.89001C115.11 9.47001 112.58 8.3 112.58 5C112.58 1.7 115.45 0 118.89 0C122.33 0 125.3 1.72002 125.45 5.40002L125.44 5.40997Z" fill="white"/>
<path id="Vector_9" d="M130.03 0.370361H141.23V2.48035H132.39V7.7804H140.37V9.89038H132.39V15.9304H141.35V18.0403H130.03V0.360352V0.370361Z" fill="white"/>
<path id="Vector_10" d="M161.811 0C167.211 0 169.791 3.32998 169.841 7.22998H167.481C167.381 4.49998 165.691 2.10999 161.811 2.10999C157.931 2.10999 155.301 4.87002 155.301 9.21002C155.301 13.55 157.881 16.31 161.811 16.31C165.741 16.31 167.561 13.93 167.701 10.8H170.061C169.891 14.95 167.211 18.43 161.811 18.43C156.411 18.43 152.921 14.75 152.921 9.21997C152.921 3.68997 156.411 0.0100098 161.811 0.0100098V0Z" fill="white"/>
<path id="Vector_11" d="M191.381 9.21002C191.381 14.74 187.621 18.42 182.241 18.42C176.861 18.42 173.101 14.74 173.101 9.21002C173.101 3.68002 176.861 0 182.241 0C187.621 0 191.381 3.68002 191.381 9.21002ZM175.491 9.21002C175.491 13.72 178.191 16.33 182.241 16.33C186.051 16.33 188.991 13.71 188.991 9.21002C188.991 4.71002 186.041 2.09003 182.241 2.09003C178.191 2.09003 175.491 4.71002 175.491 9.21002Z" fill="white"/>
<path id="Vector_12" d="M195.681 0.370117H199.981L205.631 15.5701C205.681 15.6901 205.751 15.7201 205.881 15.7201C206.011 15.7201 206.051 15.6401 206.051 15.5201V0.370117H208.411V18.0501H204.111L198.461 2.8501C198.411 2.7301 198.341 2.70013 198.211 2.70013C198.081 2.70013 198.041 2.78015 198.041 2.90015V18.0501H195.681V0.370117Z" fill="white"/>
<path id="Vector_13" d="M219.44 15.6201C219.47 15.6901 219.52 15.7201 219.61 15.7201C219.7 15.7201 219.76 15.6901 219.78 15.6201L224.35 0.370117H226.7V0.860107L221.43 18.0501H217.8L212.53 0.860107V0.370117H214.88L219.45 15.6201H219.44Z" fill="white"/>
<path id="Vector_14" d="M230.82 0.370361H242.02V2.48035H233.18V7.7804H241.16V9.89038H233.18V15.9304H242.14V18.0403H230.82V0.360352V0.370361Z" fill="white"/>
<path id="Vector_15" d="M246.561 0.370117H250.861L256.511 15.5701C256.561 15.6901 256.631 15.7201 256.761 15.7201C256.891 15.7201 256.931 15.6401 256.931 15.5201V0.370117H259.291V18.0501H254.991L249.341 2.8501C249.291 2.7301 249.221 2.70013 249.091 2.70013C248.961 2.70013 248.921 2.78015 248.921 2.90015V18.0501H246.561V0.370117Z" fill="white"/>
<path id="Vector_16" d="M263.091 0.370117H276.751V2.4801H271.101V18.0501H268.741V2.4801H263.091V0.370117Z" fill="white"/>
<path id="Vector_17" d="M282.911 0.370117V18.0501H280.551V0.370117H282.911Z" fill="white"/>
<path id="Vector_18" d="M305.48 9.21002C305.48 14.74 301.72 18.42 296.34 18.42C290.96 18.42 287.2 14.74 287.2 9.21002C287.2 3.68002 290.96 0 296.34 0C301.72 0 305.48 3.68002 305.48 9.21002ZM289.59 9.21002C289.59 13.72 292.29 16.33 296.34 16.33C300.15 16.33 303.09 13.71 303.09 9.21002C303.09 4.71002 300.14 2.09003 296.34 2.09003C292.29 2.09003 289.59 4.71002 289.59 9.21002Z" fill="white"/>
<path id="Vector_19" d="M309.78 0.370117H314.08L319.73 15.5701C319.78 15.6901 319.85 15.7201 319.98 15.7201C320.11 15.7201 320.15 15.6401 320.15 15.5201V0.370117H322.51V18.0501H318.21L312.56 2.8501C312.51 2.7301 312.44 2.70013 312.31 2.70013C312.18 2.70013 312.14 2.78015 312.14 2.90015V18.0501H309.78V0.370117Z" fill="white"/>
<g id="Group">
<path id="Vector_20" d="M178.873 47.3891L185.323 30.0791H188.223L194.683 47.3891V47.7591H192.433L190.593 42.7591H182.893L181.063 47.7591H178.883V47.3891H178.873ZM189.993 40.9791L186.873 32.4091H186.623L183.493 40.9791H189.983H189.993Z" fill="white"/>
<path id="Vector_21" d="M205.963 39.8793V47.7493H203.733V30.0693H212.013C214.993 30.0693 217.403 31.8494 217.403 34.9794C217.403 38.1094 215.073 39.9094 212.213 39.9094H209.133L217.273 47.3893V47.7593H214.743L206.223 39.8893H205.973L205.963 39.8793ZM205.963 38.1893H211.643C213.713 38.1893 215.193 37.0793 215.193 35.0193C215.193 32.9593 213.723 31.8593 211.643 31.8593H205.963V38.1793V38.1893Z" fill="white"/>
<path id="Vector_22" d="M228.973 30.0693V47.7493H226.713V30.0693H228.973Z" fill="white"/>
<path id="Vector_23" d="M251.893 30.0693V31.5894L241.353 45.9594H252.143V47.7493H238.453V46.2294L248.983 31.8593H238.833V30.0693H251.883H251.893Z" fill="white"/>
<path id="Vector_24" d="M268.733 29.7295C273.973 29.7295 277.553 33.0395 277.553 38.9095C277.553 44.7795 273.983 48.0995 268.733 48.0995C263.483 48.0995 259.923 44.7895 259.923 38.9095C259.923 33.0295 263.493 29.7295 268.733 29.7295ZM268.733 46.2595C272.683 46.2595 275.253 43.5994 275.253 38.9194C275.253 34.2394 272.683 31.5695 268.733 31.5695C264.783 31.5695 262.203 34.2494 262.203 38.9194C262.203 43.5894 264.783 46.2595 268.733 46.2595Z" fill="white"/>
<path id="Vector_25" d="M289.773 30.0693L298.733 44.5193H298.983V30.0693H301.153V47.7493H298.373L289.443 33.3293H289.193V47.7493H287.023V30.0693H289.763H289.773Z" fill="white"/>
<path id="Vector_26" d="M310.223 47.3891L316.673 30.0791H319.573L326.033 47.3891V47.7591H323.783L321.943 42.7591H314.243L312.413 47.7591H310.233V47.3891H310.223ZM321.333 40.9791L318.213 32.4091H317.963L314.833 40.9791H321.323H321.333Z" fill="white"/>
</g>
</g>
<path id="Vector_27" d="M365.908 18.2647L363.5 22.5395C363.404 22.7098 362.963 23.4073 362.812 23.5198C362.414 23.9922 361.861 24.304 361.25 24.4133C361.103 24.4647 360.527 24.4904 360.367 24.4936H352.357L347.031 33.9527H355.038C355.497 33.9463 357.188 33.8563 357.606 33.6924C359.267 33.3581 360.739 32.2492 361.598 30.7258L364.005 26.451C364.101 26.2807 364.542 25.5832 364.693 25.4707C365.094 24.9983 365.647 24.6865 366.261 24.5772C366.406 24.529 366.978 24.5001 367.139 24.5001H375.151L380.48 15.041H372.477C372.018 15.0474 370.327 15.1374 369.909 15.3014C368.247 15.6356 366.775 16.7445 365.917 18.268L365.908 18.2647Z" fill="white"/>
<path id="Vector_28" d="M400.222 16.1609H394.038L393.977 14.3128C393.977 9.19922 394.745 5.60265 396.281 3.52314C397.837 1.42112 400.444 0.370117 404.101 0.370117C410.992 0.370117 414.438 4.18846 414.438 11.8284C414.438 16.9805 411.86 24.4083 406.708 34.1084L402.98 41.1119C402.96 41.1537 402.899 41.2726 402.796 41.4751C402.694 41.6776 402.555 41.9701 402.372 42.3526H413.949V47.749H393.398C393.742 46.9809 394.459 45.4542 395.549 43.1722C396.638 40.8902 398.126 37.8078 400.003 33.9284C401.601 30.5344 402.935 27.6545 404.005 25.289C405.075 22.9234 405.885 20.9853 406.432 19.4682C407.524 16.4374 408.068 13.8211 408.068 11.6162C408.068 7.73682 406.724 5.7955 404.037 5.7955C401.35 5.7955 400.158 8.19965 400.158 13.0111L400.187 15.6788L400.219 16.1642L400.222 16.1609Z" fill="white"/>
<path id="Vector_29" d="M419.078 0.94043H439.993L425.806 47.744H419.075L432.079 6.27582H419.075V0.94043H419.078Z" fill="white"/>
</g>
</svg>
