<svg width="2221" height="212" viewBox="0 0 2221 212" fill="none" xmlns="http://www.w3.org/2000/svg">
<g id="Frame 1618875120">
<g id="Group 1000006389">
<mask id="mask0_0_1" style="mask-type:luminance" maskUnits="userSpaceOnUse" x="0" y="0" width="137" height="212">
<g id="Group">
<path id="Vector" d="M3.05176e-05 211.242L136.037 211.242L136.037 -0.000823975L3.05176e-05 -0.000823975L3.05176e-05 211.242Z" fill="url(#paint0_linear_0_1)"/>
</g>
</mask>
<g mask="url(#mask0_0_1)">
<g id="Group_2">
<g id="_x33_">
<path id="primary" d="M148.421 111.478C150.532 111.263 152.4 110.558 153.49 109.591L156.544 106.871C156.666 106.763 157.223 106.318 157.415 106.245C157.925 105.946 158.627 105.746 159.402 105.677C159.586 105.647 160.311 105.627 160.515 105.627H208.204L212.751 99.6077H167.29C166.703 99.6077 164.558 99.6691 164.029 99.7727C161.919 99.9875 160.05 100.693 158.961 101.66L155.907 104.381C155.784 104.488 155.228 104.933 155.036 105.006C154.529 105.305 153.827 105.505 153.052 105.574C152.868 105.604 152.135 105.624 151.928 105.624H118.411L142.973 91.4433C143.48 91.1479 145.306 90.0237 145.713 89.6707C147.432 88.4315 148.698 86.8853 149.158 85.5041L150.443 81.6214C150.493 81.4679 150.758 80.8042 150.885 80.6469C151.176 80.1328 151.683 79.6072 152.323 79.1583C152.465 79.0393 153.087 78.6595 153.263 78.5598L194.561 54.7149L195.49 47.2295L156.118 69.9618C155.611 70.2572 153.785 71.3813 153.378 71.7343C151.66 72.9736 150.393 74.5198 149.933 75.9009L148.648 79.7837C148.598 79.9371 148.333 80.6009 148.207 80.762C147.919 81.2761 147.409 81.7979 146.772 82.2468C146.626 82.3657 146.001 82.7494 145.824 82.853L116.796 99.6115L130.976 75.0492C131.264 74.5389 132.288 72.6551 132.461 72.141C133.332 70.2073 133.654 68.2353 133.359 66.808L132.53 62.8026C132.495 62.6453 132.392 61.9393 132.426 61.736C132.419 61.1451 132.599 60.4392 132.929 59.7294C132.994 59.5529 133.343 58.916 133.443 58.7395L157.288 17.4417L154.349 10.4935L131.617 49.8653C131.329 50.3756 130.305 52.2594 130.132 52.7735C129.261 54.7072 128.939 56.6792 129.234 58.1065L130.063 62.112C130.098 62.2693 130.201 62.9752 130.167 63.1786C130.174 63.7694 129.994 64.4754 129.668 65.1813C129.603 65.3578 129.253 66.0023 129.15 66.1788L112.391 95.2071V66.8464C112.391 66.2632 112.33 64.1147 112.226 63.5853C112.011 61.4751 111.306 59.6066 110.339 58.517L107.618 55.463C107.511 55.3402 107.066 54.7839 106.993 54.5921C106.694 54.0818 106.494 53.3797 106.425 52.6047C106.395 52.4206 106.375 51.6954 106.375 51.4921V3.80231L100.356 -0.744141V44.7165C100.356 45.3035 100.417 47.4482 100.521 47.9777C100.736 50.0878 101.441 51.9563 102.408 53.0459L105.129 56.0999C105.236 56.2227 105.681 56.779 105.754 56.9708C106.053 57.4773 106.253 58.1794 106.322 58.9544C106.352 59.1385 106.372 59.8714 106.372 60.0747V93.5918L92.1913 69.0295C91.8958 68.523 90.7717 66.6968 90.4187 66.2901C89.1795 64.5713 87.6333 63.3052 86.2521 62.8448L82.3694 61.5595C82.2159 61.5096 81.5522 61.2449 81.3949 61.1183C80.8808 60.8267 80.3551 60.3202 79.9062 59.6795C79.7873 59.5376 79.4075 58.916 79.3077 58.7395L55.4628 17.4417L47.9775 16.5132L70.7098 55.8851C71.0052 56.3915 72.1293 58.2177 72.4823 58.6244C73.7215 60.3433 75.2677 61.6094 76.6489 62.0698L80.5316 63.355C80.6851 63.4049 81.3488 63.6697 81.51 63.7963C82.0241 64.084 82.5459 64.5943 82.9948 65.2312C83.1137 65.377 83.4974 66.0023 83.601 66.1788L100.36 95.2071L75.7972 81.0267C75.2869 80.739 73.4031 79.7146 72.889 79.5419C70.9553 78.671 68.9833 78.3487 67.556 78.6442L63.5505 79.4729C63.3932 79.5074 62.6873 79.611 62.4839 79.5765C61.8931 79.5841 61.1872 79.4038 60.4774 79.0739C60.3009 79.0086 59.664 78.6595 59.4875 78.5598L18.1896 54.7149L11.2414 57.6538L50.6133 80.386C51.1236 80.6738 53.0074 81.6982 53.5215 81.8708C55.4552 82.7417 57.4272 83.064 58.8545 82.7686L62.8599 81.9399C63.0172 81.9053 63.727 81.8017 63.9265 81.8363C64.5174 81.8286 65.2233 82.0089 65.9293 82.335C66.1058 82.4003 66.7503 82.7494 66.9268 82.853L95.9512 99.6115H67.5906C67.0074 99.6115 64.8588 99.6729 64.3294 99.7765C62.2192 99.9914 60.3508 100.697 59.2612 101.664L56.2072 104.384C56.0844 104.492 55.5281 104.937 55.3362 105.01C54.826 105.309 54.1239 105.508 53.3488 105.578C53.1647 105.608 52.4396 105.627 52.2362 105.627H4.54645L0 111.647H45.4607C46.0477 111.647 48.1924 111.586 48.7218 111.482C50.832 111.267 52.7004 110.561 53.7901 109.595L56.8441 106.874C56.9668 106.767 57.5231 106.322 57.715 106.249C58.2214 105.95 58.9235 105.75 59.6985 105.681C59.8827 105.65 60.6155 105.631 60.8188 105.631H94.336L69.7736 119.812C69.2672 120.107 67.4409 121.231 67.0342 121.584C65.3154 122.823 64.0493 124.37 63.5889 125.751L62.3036 129.633C62.2537 129.787 61.989 130.451 61.8624 130.608C61.5708 131.122 61.0644 131.648 60.4237 132.097C60.2817 132.216 59.6602 132.595 59.4837 132.695L18.1858 156.54L17.2573 164.025L56.6292 141.293C57.1356 140.998 58.9619 139.874 59.3686 139.521C61.0874 138.281 62.3535 136.735 62.8139 135.354L64.0992 131.471C64.1491 131.318 64.4138 130.654 64.5404 130.493C64.8282 129.979 65.3384 129.457 65.9753 129.008C66.1211 128.889 66.7465 128.505 66.923 128.402L95.9512 111.643L81.7709 136.206C81.4831 136.716 80.4587 138.6 80.2861 139.114C79.4152 141.048 79.0929 143.02 79.3883 144.447L80.217 148.452C80.2515 148.61 80.3551 149.316 80.3206 149.519C80.3283 150.11 80.148 150.816 79.818 151.525C79.7528 151.702 79.4036 152.339 79.3039 152.515L55.459 193.813L58.3979 200.761L81.1301 161.39C81.4179 160.879 82.4423 158.995 82.6149 158.481C83.4859 156.548 83.8081 154.576 83.5127 153.148L82.684 149.143C82.6495 148.982 82.5459 148.276 82.5804 148.076C82.5727 147.485 82.7531 146.78 83.0792 146.074C83.1444 145.897 83.4935 145.253 83.5971 145.076L100.356 116.048V144.408C100.356 144.992 100.417 147.14 100.521 147.67C100.736 149.78 101.441 151.648 102.408 152.738L105.129 155.792C105.236 155.915 105.681 156.471 105.754 156.663C106.053 157.173 106.253 157.875 106.322 158.65C106.352 158.834 106.372 159.559 106.372 159.763V207.453L112.391 211.999V166.538C112.391 165.955 112.33 163.807 112.226 163.277C112.011 161.167 111.306 159.299 110.339 158.209L107.618 155.155C107.511 155.032 107.066 154.476 106.993 154.284C106.694 153.778 106.494 153.076 106.425 152.3C106.395 152.116 106.375 151.384 106.375 151.18V117.667L120.556 142.225C120.851 142.732 121.975 144.558 122.328 144.965C123.568 146.684 125.114 147.95 126.495 148.41L130.378 149.695C130.531 149.745 131.195 150.01 131.352 150.137C131.866 150.428 132.392 150.935 132.841 151.575C132.96 151.717 133.339 152.339 133.439 152.515L157.284 193.813L164.769 194.742L142.037 155.37C141.742 154.863 140.618 153.037 140.265 152.63C139.025 150.912 137.479 149.646 136.098 149.185L132.215 147.9C132.062 147.85 131.398 147.585 131.237 147.459C130.723 147.171 130.201 146.661 129.752 146.024C129.633 145.878 129.25 145.253 129.146 145.076L112.387 116.048L136.95 130.228C137.46 130.516 139.344 131.54 139.858 131.713C141.792 132.584 143.764 132.906 145.191 132.611L149.196 131.782C149.354 131.747 150.06 131.644 150.263 131.678C150.854 131.671 151.56 131.851 152.27 132.181C152.446 132.246 153.083 132.595 153.259 132.695L194.557 156.54L201.506 153.601L162.134 130.869C161.623 130.581 159.74 129.557 159.225 129.384C157.292 128.513 155.32 128.191 153.893 128.486L149.887 129.315C149.73 129.35 149.02 129.453 148.82 129.419C148.23 129.426 147.524 129.246 146.818 128.92C146.641 128.855 145.997 128.505 145.82 128.402L116.796 111.643H145.156C145.74 111.643 147.888 111.582 148.418 111.478H148.421Z" fill="url(#paint1_radial_0_1)"/>
<path id="secondary" d="M140.245 80.0275C141.585 78.3854 142.409 76.563 142.494 75.1089L142.732 71.0267C142.739 70.8655 142.824 70.1558 142.904 69.9678C143.05 69.3961 143.407 68.7592 143.91 68.1569C144.017 68.0034 144.52 67.4778 144.661 67.3358L178.382 33.6153L177.342 26.1454L145.195 58.2928C144.784 58.7071 143.307 60.2687 143.008 60.7176C141.669 62.3597 140.844 64.1821 140.76 65.6362L140.522 69.7184C140.514 69.8795 140.43 70.5893 140.349 70.7773C140.203 71.349 139.846 71.982 139.348 72.5805C139.24 72.734 138.734 73.2635 138.592 73.4092L114.893 97.1083L122.232 69.7145C122.382 69.1467 122.881 67.0634 122.915 66.5224C123.257 64.4315 123.057 62.4402 122.401 61.1396L120.567 57.4833C120.494 57.3375 120.21 56.6852 120.191 56.4819C120.034 55.9141 120.022 55.1813 120.157 54.4139C120.172 54.2259 120.345 53.5238 120.395 53.3281L132.737 7.26513L128.099 1.31445L116.332 45.2289C116.182 45.7968 115.683 47.8839 115.649 48.421C115.307 50.512 115.507 52.5033 116.163 53.8039L117.997 57.4602C118.07 57.606 118.353 58.2583 118.373 58.4616C118.53 59.0294 118.541 59.7584 118.407 60.5257C118.392 60.7137 118.219 61.4273 118.165 61.623L109.491 93.9968L102.151 66.603C101.998 66.039 101.384 63.9826 101.146 63.4953C100.394 61.5117 99.2277 59.8888 98.0115 59.0908L94.593 56.8425C94.4587 56.7543 93.8832 56.3284 93.7643 56.1634C93.3423 55.7491 92.9701 55.1237 92.6977 54.3909C92.621 54.2221 92.4138 53.5238 92.3601 53.3281L80.0175 7.26513L73.0271 4.42982L84.7942 48.3443C84.9476 48.9083 85.5615 50.9648 85.7994 51.452C86.5514 53.4356 87.7177 55.0585 88.9339 55.8565L92.3524 58.1048C92.4867 58.193 93.0622 58.6189 93.1811 58.7839C93.6031 59.1982 93.9753 59.8236 94.2439 60.5526C94.3244 60.7252 94.5278 61.4273 94.5853 61.623L103.26 93.9968L83.2058 73.9426C82.7914 73.532 81.2337 72.0549 80.7849 71.7557C79.1428 70.4167 77.3203 69.5918 75.8662 69.5074L71.784 69.2695C71.6229 69.2618 70.9131 69.1774 70.7251 69.0968C70.1535 68.951 69.5166 68.5942 68.9142 68.0916C68.7607 67.9842 68.2351 67.4816 68.0932 67.3396L34.3727 33.6192L26.9027 34.6628L59.0501 66.8102C59.4645 67.2207 61.026 68.6978 61.4749 68.9971C63.117 70.3361 64.9394 71.161 66.3935 71.2454L70.4757 71.4832C70.6369 71.4909 71.3466 71.5753 71.5346 71.6559C72.1063 71.8017 72.7394 72.1585 73.3379 72.6573C73.4913 72.7647 74.0208 73.2711 74.1666 73.4131L97.8657 97.1122L70.4719 89.7726C69.9041 89.623 67.8207 89.1242 67.2798 89.0897C65.1888 88.7482 63.1976 88.9477 61.8969 89.6038L58.2406 91.4378C58.0948 91.5107 57.4426 91.7946 57.2392 91.8137C56.6714 91.971 55.9386 91.9826 55.1713 91.8483C54.9833 91.8329 54.2773 91.6603 54.0855 91.6104L8.02248 79.2678L2.07181 83.9064L45.9863 95.6734C46.5541 95.8231 48.6413 96.3218 49.1784 96.3564C51.2694 96.6978 53.2606 96.4983 54.5612 95.8422L58.2176 94.0083C58.3634 93.9354 59.0156 93.6515 59.219 93.6323C59.7868 93.475 60.5157 93.4635 61.2831 93.5978C61.4711 93.6131 62.1847 93.7858 62.3804 93.8395L94.7542 102.514L67.3604 109.854C66.7964 110.007 64.7399 110.621 64.2527 110.859C62.2691 111.611 60.6462 112.777 59.8482 113.994L57.5999 117.412C57.5116 117.546 57.0858 118.122 56.9208 118.241C56.5064 118.663 55.881 119.035 55.1482 119.307C54.9794 119.384 54.2812 119.591 54.0855 119.645L8.02248 131.987L5.18718 138.978L49.1017 127.211C49.6656 127.057 51.7221 126.443 52.2094 126.206C54.1929 125.454 55.8158 124.287 56.6139 123.071L58.8621 119.653C58.9504 119.518 59.3763 118.943 59.5412 118.824C59.9556 118.402 60.581 118.03 61.3099 117.761C61.4826 117.681 62.1847 117.477 62.3804 117.42L94.7542 108.745L74.6999 128.799C74.2894 129.214 72.8123 130.771 72.513 131.22C71.174 132.862 70.3491 134.685 70.2647 136.139L70.0268 140.221C70.0192 140.382 69.9348 141.092 69.8542 141.28C69.7084 141.852 69.3516 142.488 68.849 143.091C68.7415 143.244 68.239 143.77 68.097 143.912L34.3765 177.632L35.4163 185.102L67.5637 152.955C67.9742 152.54 69.4513 150.979 69.7506 150.53C71.0896 148.888 71.9145 147.066 71.9989 145.611L72.2368 141.529C72.2444 141.368 72.3288 140.658 72.4094 140.47C72.5552 139.899 72.912 139.266 73.4108 138.667C73.5182 138.514 74.0246 137.984 74.1666 137.838L97.8657 114.139L90.5262 141.533C90.3765 142.101 89.8778 144.184 89.8432 144.725C89.5018 146.816 89.7013 148.807 90.3573 150.108L92.1913 153.764C92.2642 153.91 92.5481 154.562 92.5672 154.766C92.7245 155.334 92.7361 156.066 92.6018 156.834C92.5864 157.022 92.4138 157.724 92.3639 157.919L80.0214 203.983L84.6599 209.933L96.4269 166.019C96.5766 165.451 97.0753 163.364 97.1099 162.827C97.4513 160.736 97.2518 158.744 96.5957 157.444L94.7618 153.787C94.6889 153.642 94.405 152.989 94.3858 152.786C94.2285 152.218 94.217 151.489 94.3513 150.722C94.3667 150.534 94.5393 149.82 94.593 149.625L103.268 117.251L110.607 144.645C110.761 145.209 111.375 147.265 111.612 147.752C112.364 149.736 113.531 151.359 114.747 152.157L118.165 154.405C118.3 154.493 118.875 154.919 118.994 155.084C119.416 155.499 119.788 156.124 120.061 156.857C120.138 157.026 120.345 157.724 120.398 157.919L132.741 203.983L139.731 206.818L127.964 162.903C127.811 162.339 127.197 160.283 126.959 159.796C126.207 157.812 125.041 156.189 123.825 155.391L120.406 153.143C120.272 153.055 119.696 152.629 119.577 152.464C119.155 152.049 118.783 151.424 118.515 150.695C118.434 150.522 118.231 149.82 118.173 149.625L109.498 117.251L129.553 137.305C129.967 137.716 131.525 139.193 131.974 139.492C133.616 140.831 135.438 141.656 136.892 141.74L140.974 141.978C141.136 141.986 141.845 142.07 142.033 142.151C142.605 142.297 143.242 142.653 143.844 143.156C143.998 143.263 144.523 143.766 144.665 143.908L178.386 177.628L185.856 176.589L153.708 144.441C153.294 144.031 151.732 142.554 151.284 142.254C149.641 140.915 147.819 140.091 146.365 140.006L142.283 139.768C142.122 139.761 141.412 139.676 141.224 139.596C140.652 139.45 140.019 139.093 139.421 138.594C139.267 138.487 138.738 137.98 138.592 137.838L114.893 114.139L142.287 121.479C142.854 121.628 144.938 122.127 145.479 122.162C147.57 122.503 149.561 122.304 150.862 121.648L154.518 119.814C154.664 119.741 155.316 119.457 155.519 119.438C156.087 119.28 156.82 119.269 157.587 119.403C157.775 119.419 158.477 119.591 158.673 119.641L204.736 131.984L210.687 127.345L166.772 115.578C166.204 115.428 164.117 114.93 163.58 114.895C161.489 114.554 159.498 114.753 158.197 115.409L154.541 117.243C154.395 117.316 153.739 117.6 153.54 117.619C152.972 117.776 152.243 117.788 151.475 117.654C151.287 117.638 150.574 117.466 150.378 117.412L118.004 108.737L145.398 101.398C145.962 101.244 148.019 100.63 148.506 100.393C150.489 99.6405 152.112 98.4742 152.91 97.258L155.159 93.8395C155.247 93.7052 155.673 93.1297 155.838 93.0108C156.252 92.5887 156.877 92.2166 157.61 91.9442C157.779 91.8675 158.477 91.6603 158.673 91.6066L204.736 79.264L207.571 72.2736L163.657 84.0406C163.093 84.1941 161.036 84.808 160.549 85.0459C158.566 85.7979 156.943 86.9642 156.145 88.1804L153.896 91.5989C153.808 91.7332 153.382 92.3087 153.217 92.4276C152.803 92.8496 152.178 93.2218 151.449 93.4904C151.276 93.5709 150.574 93.7743 150.378 93.8318L118.004 102.507L138.059 82.4523C138.469 82.0379 139.946 80.4802 140.245 80.0313V80.0275Z" fill="url(#paint2_radial_0_1)"/>
</g>
</g>
</g>
</g>
<g id="Frame 1618875119">
<g id="Frame 1618875118">
<g id="Frame 1618875112">
<path id="Vector_2" d="M309.647 14.8027V144.033C309.647 152.523 302.767 159.413 294.267 159.413H276.277V103.793H198.407V159.413H165.037V27.6127C165.037 20.5327 170.777 14.8027 177.847 14.8027H198.397V70.4227H276.267V14.8027H309.637H309.647Z" stroke="white" stroke-width="3" stroke-miterlimit="10"/>
<path id="Vector_3" d="M364.017 48.1827V70.3627H475.257V103.753H364.017V126.033H475.257V144.033C475.257 152.523 468.377 159.413 459.877 159.413H330.647V27.6127C330.647 20.5327 336.387 14.8027 343.457 14.8027H475.257V48.1827H364.017Z" stroke="white" stroke-width="3" stroke-miterlimit="10"/>
<path id="Vector_4" d="M640.867 103.753H600.647L640.827 159.413H600.697L560.517 103.753H529.627V159.413H496.257V27.6127C496.257 20.5327 501.997 14.8027 509.067 14.8027H640.857V103.753H640.867ZM607.487 70.3627V48.1827H529.627V70.3627H607.487Z" stroke="white" stroke-width="3" stroke-miterlimit="10"/>
<path id="Vector_5" d="M695.237 48.1827V70.3627H806.477V103.753H695.237V126.033H806.477V144.033C806.477 152.523 799.597 159.413 791.097 159.413H661.867V27.6127C661.867 20.5327 667.607 14.8027 674.677 14.8027H806.477V48.1827H695.237Z" stroke="white" stroke-width="3" stroke-miterlimit="10"/>
</g>
<g id="Frame">
<path id="Vector_6" d="M1009.09 14.8027V144.033C1009.09 152.523 1002.21 159.413 993.707 159.413H864.477V27.6127C864.477 20.5327 870.217 14.8027 877.287 14.8027H897.837V126.043H920.037V27.6127C920.037 20.5327 925.777 14.8027 932.847 14.8027H953.397V126.043H975.687V14.8027H1009.08H1009.09Z" stroke="white" stroke-width="3" stroke-miterlimit="10"/>
<path id="Vector_7" d="M1063.46 48.1827V70.3627H1174.7V103.753H1063.46V126.033H1174.7V144.033C1174.7 152.523 1167.82 159.413 1159.32 159.413H1030.09V27.6127C1030.09 20.5327 1035.83 14.8027 1042.9 14.8027H1174.7V48.1827H1063.46Z" stroke="white" stroke-width="3" stroke-miterlimit="10"/>
</g>
<g id="Frame 1618875114">
<path id="Vector_8" d="M1377.31 70.4227V144.033C1377.31 152.523 1370.43 159.413 1361.93 159.413H1232.7V27.6127C1232.7 20.5327 1238.44 14.8027 1245.51 14.8027H1377.31V48.1727H1266.07V126.043H1343.94V103.793H1305V70.4227H1377.31Z" fill="white" stroke="white" stroke-miterlimit="10"/>
<path id="Vector_9" d="M1542.92 103.753H1502.7L1542.88 159.413H1502.75L1462.57 103.753H1431.68V159.413H1398.31V27.6127C1398.31 20.5327 1404.05 14.8027 1411.12 14.8027H1542.91V103.753H1542.92ZM1509.55 70.3627V48.1827H1431.69V70.3627H1509.55Z" fill="white" stroke="white" stroke-miterlimit="10"/>
<path id="Vector_10" d="M1708.53 14.8027V144.033C1708.53 152.523 1701.65 159.413 1693.15 159.413H1563.92V27.6127C1563.92 20.5327 1569.66 14.8027 1576.73 14.8027H1708.53ZM1675.16 48.1627H1597.29V126.033H1675.16V48.1627Z" fill="white" stroke="white" stroke-miterlimit="10"/>
<path id="Vector_11" d="M1874.14 14.8027V144.033C1874.14 152.523 1867.26 159.413 1858.76 159.413H1729.53V27.6127C1729.53 20.5327 1735.27 14.8027 1742.34 14.8027H1762.89V126.043H1785.09V14.8027H1818.46V126.043H1840.75V14.8027H1874.14Z" fill="white" stroke="white" stroke-miterlimit="10"/>
</g>
<g id="Frame 1618875113">
<path id="Vector_12" d="M1990.87 67.7175L1983.38 81.0175C1983.08 81.5475 1981.71 83.7175 1981.24 84.0675C1980 85.5375 1978.28 86.5075 1976.38 86.8475C1975.92 87.0075 1974.13 87.0875 1973.63 87.0975H1948.71L1932.14 116.527H1957.05C1958.48 116.507 1963.74 116.227 1965.04 115.717C1970.21 114.677 1974.79 111.227 1977.46 106.487L1984.95 93.1875C1985.25 92.6575 1986.62 90.4875 1987.09 90.1375C1988.34 88.6675 1990.06 87.6975 1991.97 87.3575C1992.42 87.2075 1994.2 87.1175 1994.7 87.1175H2019.63L2036.21 57.6875H2011.31C2009.88 57.7075 2004.62 57.9875 2003.32 58.4975C1998.15 59.5375 1993.57 62.9875 1990.9 67.7275L1990.87 67.7175Z" fill="white"/>
<path id="Vector_13" d="M2084.44 62.5323H2065.2L2065.01 56.7823C2065.01 40.8723 2067.4 29.6823 2072.18 23.2123C2077.02 16.6723 2085.13 13.4023 2096.51 13.4023C2117.95 13.4023 2128.67 25.2824 2128.67 49.0524C2128.67 65.0824 2120.65 88.1923 2104.62 118.372L2093.02 140.162C2092.96 140.292 2092.77 140.662 2092.45 141.292C2092.13 141.922 2091.7 142.832 2091.13 144.022H2127.15V160.812H2063.21C2064.28 158.422 2066.51 153.672 2069.9 146.572C2073.29 139.472 2077.92 129.882 2083.76 117.812C2088.73 107.252 2092.88 98.2923 2096.21 90.9323C2099.54 83.5723 2102.06 77.5424 2103.76 72.8224C2107.16 63.3924 2108.85 55.2524 2108.85 48.3924C2108.85 36.3224 2104.67 30.2823 2096.31 30.2823C2087.95 30.2823 2084.24 37.7624 2084.24 52.7324L2084.33 61.0323L2084.43 62.5424L2084.44 62.5323Z" fill="white"/>
<path id="Vector_14" d="M2155.68 14.2969H2220.75L2176.61 159.917H2155.67L2196.13 30.8969H2155.67V14.2969H2155.68Z" fill="white"/>
</g>
</g>
<g id="Frame 1618875117">
<g id="Frame 1618875115">
<path id="Vector_15" d="M178.437 198.228H176.057C175.937 195.918 174.287 194.908 171.887 194.908C169.487 194.908 167.937 195.898 167.937 197.798C167.937 199.698 169.507 200.328 171.277 200.638L173.507 201.028C176.097 201.488 178.617 202.658 178.617 205.998C178.617 209.338 175.817 211.238 172.157 211.238C168.497 211.238 165.157 209.348 165.037 205.098H167.417C167.587 207.968 169.557 209.148 172.157 209.148C174.757 209.148 176.257 207.958 176.257 206.018C176.257 204.078 174.547 203.428 172.697 203.098L170.467 202.708C168.107 202.288 165.577 201.118 165.577 197.818C165.577 194.518 168.447 192.818 171.887 192.818C175.327 192.818 178.297 194.538 178.447 198.218L178.437 198.228Z" fill="white"/>
<path id="Vector_16" d="M185.977 193.188V210.867H183.617V193.188H185.977Z" fill="white"/>
<path id="Vector_17" d="M199.827 192.818C205.257 192.818 207.687 196.258 207.757 199.698H205.377C205.227 197.268 203.667 194.908 199.827 194.908C195.987 194.908 193.367 197.698 193.367 202.028C193.367 206.358 195.897 209.148 199.827 209.148C203.757 209.148 205.127 207.098 205.177 204.608H198.717V202.498H207.577V203.848C207.577 208.428 204.827 211.238 199.747 211.238C194.397 211.238 190.977 207.558 190.977 202.028C190.977 196.498 194.387 192.818 199.817 192.818H199.827Z" fill="white"/>
<path id="Vector_18" d="M212.757 193.188H217.057L222.707 208.388C222.757 208.508 222.827 208.537 222.957 208.537C223.087 208.537 223.127 208.458 223.127 208.338V193.188H225.487V210.867H221.187L215.537 195.667C215.487 195.547 215.417 195.518 215.287 195.518C215.157 195.518 215.117 195.598 215.117 195.718V210.867H212.757V193.188Z" fill="white"/>
<path id="Vector_19" d="M230.487 210.378L235.757 193.188H239.397L244.667 210.378V210.867H242.317L240.687 205.417H234.477L232.847 210.867H230.497V210.378H230.487ZM240.037 203.307L237.737 195.617C237.707 195.547 237.667 195.518 237.567 195.518C237.467 195.518 237.417 195.547 237.397 195.617L235.097 203.307H240.037Z" fill="white"/>
<path id="Vector_20" d="M249.667 193.188H252.027V208.758H260.257V210.867H249.677V193.188H249.667Z" fill="white"/>
<path id="Vector_21" d="M265.267 193.198H276.217V195.307H267.617V200.608H275.227V202.718H267.617V210.867H265.257V193.188L265.267 193.198Z" fill="white"/>
<path id="Vector_22" d="M281.217 193.182H288.237C291.557 193.182 293.887 194.902 293.887 198.342C293.887 201.202 292.277 202.872 289.827 203.352L293.057 210.382V210.872H290.667L287.437 203.502H283.587V210.872H281.227V193.192L281.217 193.182ZM287.997 201.382C290.267 201.382 291.537 200.502 291.537 198.342C291.537 196.182 290.277 195.292 287.997 195.292H283.577V201.382H287.997Z" fill="white"/>
<path id="Vector_23" d="M298.887 210.378L304.157 193.188H307.787L313.057 210.378V210.867H310.707L309.077 205.417H302.867L301.237 210.867H298.887V210.378ZM308.447 203.307L306.147 195.617C306.117 195.547 306.067 195.518 305.977 195.518C305.887 195.518 305.827 195.547 305.807 195.617L303.507 203.307H308.447Z" fill="white"/>
<path id="Vector_24" d="M318.057 193.188H322.357L328.007 208.388C328.057 208.508 328.127 208.537 328.257 208.537C328.387 208.537 328.427 208.458 328.427 208.338V193.188H330.787V210.867H326.487L320.837 195.667C320.787 195.547 320.717 195.518 320.587 195.518C320.457 195.518 320.417 195.598 320.417 195.718V210.867H318.057V193.188Z" fill="white"/>
<path id="Vector_25" d="M344.677 192.812C350.077 192.812 352.657 196.142 352.707 200.042H350.347C350.247 197.312 348.557 194.922 344.677 194.922C340.797 194.922 338.167 197.683 338.167 202.023C338.167 206.363 340.747 209.122 344.677 209.122C348.607 209.122 350.427 206.742 350.567 203.612H352.927C352.757 207.762 350.077 211.242 344.677 211.242C339.277 211.242 335.787 207.562 335.787 202.032C335.787 196.502 339.277 192.823 344.677 192.823V192.812Z" fill="white"/>
<path id="Vector_26" d="M357.927 193.188H360.287V200.727H368.147V193.188H370.507V210.867H368.147V202.838H360.287V210.867H357.927V193.188Z" fill="white"/>
<path id="Vector_27" d="M377.867 193.188V210.867H375.507V193.188H377.867Z" fill="white"/>
<path id="Vector_28" d="M396.267 198.228H393.887C393.767 195.918 392.117 194.908 389.717 194.908C387.317 194.908 385.767 195.898 385.767 197.798C385.767 199.698 387.337 200.328 389.107 200.638L391.337 201.028C393.927 201.488 396.447 202.658 396.447 205.998C396.447 209.338 393.647 211.238 389.987 211.238C386.327 211.238 382.987 209.348 382.867 205.098H385.247C385.417 207.968 387.387 209.148 389.987 209.148C392.587 209.148 394.087 207.958 394.087 206.018C394.087 204.078 392.377 203.428 390.527 203.098L388.297 202.708C385.937 202.288 383.407 201.118 383.407 197.818C383.407 194.518 386.277 192.818 389.717 192.818C393.157 192.818 396.127 194.538 396.277 198.218L396.267 198.228Z" fill="white"/>
<path id="Vector_29" d="M401.447 193.198H412.647V195.307H403.807V200.608H411.787V202.718H403.807V208.758H412.767V210.867H401.447V193.188V193.198Z" fill="white"/>
<path id="Vector_30" d="M426.657 192.812C432.057 192.812 434.637 196.142 434.687 200.042H432.327C432.227 197.312 430.537 194.922 426.657 194.922C422.777 194.922 420.147 197.683 420.147 202.023C420.147 206.363 422.727 209.122 426.657 209.122C430.587 209.122 432.407 206.742 432.547 203.612H434.907C434.737 207.762 432.057 211.242 426.657 211.242C421.257 211.242 417.767 207.562 417.767 202.032C417.767 196.502 421.257 192.823 426.657 192.823V192.812Z" fill="white"/>
<path id="Vector_31" d="M458.187 202.028C458.187 207.558 454.427 211.238 449.047 211.238C443.667 211.238 439.907 207.558 439.907 202.028C439.907 196.498 443.667 192.818 449.047 192.818C454.427 192.818 458.187 196.498 458.187 202.028ZM442.297 202.028C442.297 206.538 444.997 209.148 449.047 209.148C452.857 209.148 455.797 206.528 455.797 202.028C455.797 197.528 452.847 194.908 449.047 194.908C444.997 194.908 442.297 197.528 442.297 202.028Z" fill="white"/>
<path id="Vector_32" d="M463.187 193.188H467.487L473.137 208.388C473.187 208.508 473.257 208.537 473.387 208.537C473.517 208.537 473.557 208.458 473.557 208.338V193.188H475.917V210.867H471.617L465.967 195.667C465.917 195.547 465.847 195.518 465.717 195.518C465.587 195.518 465.547 195.598 465.547 195.718V210.867H463.187V193.188Z" fill="white"/>
<path id="Vector_33" d="M487.827 208.438C487.857 208.507 487.907 208.537 487.997 208.537C488.087 208.537 488.147 208.507 488.167 208.438L492.737 193.188H495.087V193.677L489.817 210.867H486.187L480.917 193.677V193.188H483.267L487.837 208.438H487.827Z" fill="white"/>
<path id="Vector_34" d="M500.087 193.198H511.287V195.307H502.447V200.608H510.427V202.718H502.447V208.758H511.407V210.867H500.087V193.188V193.198Z" fill="white"/>
<path id="Vector_35" d="M516.407 193.188H520.707L526.357 208.388C526.407 208.508 526.477 208.537 526.607 208.537C526.737 208.537 526.777 208.458 526.777 208.338V193.188H529.137V210.867H524.837L519.187 195.667C519.137 195.547 519.067 195.518 518.937 195.518C518.807 195.518 518.767 195.598 518.767 195.718V210.867H516.407V193.188Z" fill="white"/>
<path id="Vector_36" d="M534.137 193.188H547.797V195.297H542.147V210.867H539.787V195.297H534.137V193.188Z" fill="white"/>
<path id="Vector_37" d="M555.157 193.188V210.867H552.797V193.188H555.157Z" fill="white"/>
<path id="Vector_38" d="M578.437 202.028C578.437 207.558 574.677 211.238 569.297 211.238C563.917 211.238 560.157 207.558 560.157 202.028C560.157 196.498 563.917 192.818 569.297 192.818C574.677 192.818 578.437 196.498 578.437 202.028ZM562.547 202.028C562.547 206.538 565.247 209.148 569.297 209.148C573.107 209.148 576.047 206.528 576.047 202.028C576.047 197.528 573.097 194.908 569.297 194.908C565.247 194.908 562.547 197.528 562.547 202.028Z" fill="white"/>
<path id="Vector_39" d="M583.437 193.188H587.737L593.387 208.388C593.437 208.508 593.507 208.537 593.637 208.537C593.767 208.537 593.807 208.458 593.807 208.338V193.188H596.167V210.867H591.867L586.217 195.667C586.167 195.547 586.097 195.518 585.967 195.518C585.837 195.518 585.797 195.598 585.797 195.718V210.867H583.437V193.188Z" fill="white"/>
</g>
<g id="Frame 1618875116">
<path id="Vector_40" d="M659.167 210.497L665.617 193.188H668.517L674.977 210.497V210.867H672.727L670.887 205.867H663.187L661.357 210.867H659.177V210.497H659.167ZM670.287 204.088L667.167 195.518H666.917L663.787 204.088H670.277H670.287Z" fill="white"/>
<path id="Vector_41" d="M686.207 202.992V210.862H683.977V193.182H692.257C695.237 193.182 697.647 194.962 697.647 198.092C697.647 201.222 695.317 203.022 692.457 203.022H689.377L697.517 210.502V210.872H694.987L686.467 203.002H686.217L686.207 202.992ZM686.207 201.302H691.887C693.957 201.302 695.437 200.192 695.437 198.132C695.437 196.072 693.967 194.972 691.887 194.972H686.207V201.292V201.302Z" fill="white"/>
<path id="Vector_42" d="M708.907 193.188V210.867H706.647V193.188H708.907Z" fill="white"/>
<path id="Vector_43" d="M731.347 193.188V194.708L720.807 209.078H731.597V210.867H717.907V209.348L728.437 194.977H718.287V193.188H731.337H731.347Z" fill="white"/>
<path id="Vector_44" d="M749.407 192.842C754.647 192.842 758.227 196.152 758.227 202.022C758.227 207.892 754.657 211.212 749.407 211.212C744.157 211.212 740.597 207.902 740.597 202.022C740.597 196.142 744.167 192.842 749.407 192.842ZM749.407 209.372C753.357 209.372 755.927 206.712 755.927 202.032C755.927 197.352 753.357 194.682 749.407 194.682C745.457 194.682 742.877 197.362 742.877 202.032C742.877 206.702 745.457 209.372 749.407 209.372Z" fill="white"/>
<path id="Vector_45" d="M769.977 193.188L778.937 207.638H779.187V193.188H781.357V210.867H778.577L769.647 196.448H769.397V210.867H767.227V193.188H769.967H769.977Z" fill="white"/>
<path id="Vector_46" d="M790.357 210.497L796.807 193.188H799.707L806.167 210.497V210.867H803.917L802.077 205.867H794.377L792.547 210.867H790.367V210.497H790.357ZM801.467 204.088L798.347 195.518H798.097L794.967 204.088H801.457H801.467Z" fill="white"/>
</g>
</g>
</g>
</g>
<defs>
<linearGradient id="paint0_linear_0_1" x1="3.05176e-05" y1="105.623" x2="136.037" y2="105.623" gradientUnits="userSpaceOnUse">
<stop offset="0.68" stop-color="white"/>
<stop offset="0.84" stop-color="#010101"/>
</linearGradient>
<radialGradient id="paint1_radial_0_1" cx="0" cy="0" r="1" gradientUnits="userSpaceOnUse" gradientTransform="translate(106.375 105.624) scale(106.375 106.375)">
<stop stop-color="white"/>
<stop offset="0.28" stop-color="#FFD886"/>
<stop offset="0.47" stop-color="#F37021"/>
<stop offset="0.53" stop-color="#F37735" stop-opacity="0.95"/>
<stop offset="0.64" stop-color="#F58A6C" stop-opacity="0.83"/>
<stop offset="0.65" stop-color="#F68C71" stop-opacity="0.82"/>
<stop offset="0.9" stop-color="#456B9C" stop-opacity="0.95"/>
<stop offset="1" stop-color="#005FAE"/>
</radialGradient>
<radialGradient id="paint2_radial_0_1" cx="0" cy="0" r="1" gradientUnits="userSpaceOnUse" gradientTransform="translate(106.377 105.624) rotate(-45) scale(106.375)">
<stop offset="0.35" stop-color="#010101" stop-opacity="0"/>
<stop offset="1" stop-color="#005FAE" stop-opacity="0.87"/>
</radialGradient>
</defs>
</svg>
