<svg width="2221" height="239" viewBox="0 0 2221 239" fill="none" xmlns="http://www.w3.org/2000/svg">
<g id="Frame 1618875120">
<g id="Group 1000006389">
<mask id="mask0_0_1" style="mask-type:luminance" maskUnits="userSpaceOnUse" x="0" y="27" width="137" height="212">
<g id="Group">
<path id="Vector" d="M3.05176e-05 238.508L136.037 238.508L136.037 27.2648L3.05176e-05 27.2648L3.05176e-05 238.508Z" fill="url(#paint0_linear_0_1)"/>
</g>
</mask>
<g mask="url(#mask0_0_1)">
<g id="Group_2">
<g id="_x33_">
<path id="primary" d="M148.421 138.744C150.532 138.529 152.4 137.823 153.49 136.856L156.544 134.136C156.666 134.029 157.223 133.584 157.415 133.511C157.925 133.211 158.627 133.012 159.402 132.943C159.586 132.912 160.311 132.893 160.515 132.893H208.204L212.751 126.873H167.29C166.703 126.873 164.558 126.935 164.029 127.038C161.919 127.253 160.05 127.959 158.961 128.926L155.907 131.646C155.784 131.754 155.228 132.199 155.036 132.272C154.529 132.571 153.827 132.77 153.052 132.839C152.868 132.87 152.135 132.889 151.928 132.889H118.411L142.973 118.709C143.48 118.413 145.306 117.289 145.713 116.936C147.432 115.697 148.698 114.151 149.158 112.77L150.443 108.887C150.493 108.734 150.758 108.07 150.885 107.913C151.176 107.398 151.683 106.873 152.323 106.424C152.465 106.305 153.087 105.925 153.263 105.825L194.561 81.9805L195.49 74.4952L156.118 97.2274C155.611 97.5228 153.785 98.647 153.378 98.9999C151.66 100.239 150.393 101.785 149.933 103.167L148.648 107.049C148.598 107.203 148.333 107.866 148.207 108.028C147.919 108.542 147.409 109.064 146.772 109.512C146.626 109.631 146.001 110.015 145.824 110.119L116.796 126.877L130.976 102.315C131.264 101.805 132.288 99.9207 132.461 99.4066C133.332 97.473 133.654 95.5009 133.359 94.0737L132.53 90.0682C132.495 89.9109 132.392 89.2049 132.426 89.0016C132.419 88.4108 132.599 87.7048 132.929 86.995C132.994 86.8185 133.343 86.1816 133.443 86.0052L157.288 44.7073L154.349 37.7591L131.617 77.131C131.329 77.6412 130.305 79.525 130.132 80.0391C129.261 81.9728 128.939 83.9449 129.234 85.3721L130.063 89.3776C130.098 89.5349 130.201 90.2408 130.167 90.4442C130.174 91.035 129.994 91.741 129.668 92.4469C129.603 92.6234 129.253 93.268 129.15 93.4445L112.391 122.473V94.112C112.391 93.5289 112.33 91.3803 112.226 90.8509C112.011 88.7407 111.306 86.8722 110.339 85.7826L107.618 82.7286C107.511 82.6059 107.066 82.0496 106.993 81.8577C106.694 81.3475 106.494 80.6453 106.425 79.8703C106.395 79.6862 106.375 78.961 106.375 78.7577V31.0679L100.356 26.5215V71.9821C100.356 72.5691 100.417 74.7138 100.521 75.2433C100.736 77.3535 101.441 79.2219 102.408 80.3116L105.129 83.3655C105.236 83.4883 105.681 84.0446 105.754 84.2365C106.053 84.7429 106.253 85.445 106.322 86.22C106.352 86.4042 106.372 87.137 106.372 87.3403V120.857L92.1913 96.2951C91.8958 95.7887 90.7717 93.9624 90.4187 93.5557C89.1795 91.8369 87.6333 90.5708 86.2521 90.1104L82.3694 88.8251C82.2159 88.7752 81.5522 88.5105 81.3949 88.3839C80.8808 88.0923 80.3551 87.5859 79.9062 86.9451C79.7873 86.8032 79.4075 86.1816 79.3077 86.0052L55.4628 44.7073L47.9775 43.7788L70.7098 83.1507C71.0052 83.6571 72.1293 85.4834 72.4823 85.8901C73.7215 87.6089 75.2677 88.875 76.6489 89.3354L80.5316 90.6207C80.6851 90.6705 81.3488 90.9353 81.51 91.0619C82.0241 91.3496 82.5459 91.8599 82.9948 92.4968C83.1137 92.6426 83.4974 93.268 83.601 93.4445L100.36 122.473L75.7972 108.292C75.2869 108.005 73.4031 106.98 72.889 106.808C70.9553 105.937 68.9833 105.614 67.556 105.91L63.5505 106.739C63.3932 106.773 62.6873 106.877 62.4839 106.842C61.8931 106.85 61.1872 106.669 60.4774 106.339C60.3009 106.274 59.664 105.925 59.4875 105.825L18.1896 81.9805L11.2414 84.9194L50.6133 107.652C51.1236 107.939 53.0074 108.964 53.5215 109.136C55.4552 110.007 57.4272 110.33 58.8545 110.034L62.8599 109.205C63.0172 109.171 63.727 109.067 63.9265 109.102C64.5174 109.094 65.2233 109.275 65.9293 109.601C66.1058 109.666 66.7503 110.015 66.9268 110.119L95.9512 126.877H67.5906C67.0074 126.877 64.8588 126.939 64.3294 127.042C62.2192 127.257 60.3508 127.963 59.2612 128.93L56.2072 131.65C56.0844 131.757 55.5281 132.202 55.3362 132.275C54.826 132.575 54.1239 132.774 53.3488 132.843C53.1647 132.874 52.4396 132.893 52.2362 132.893H4.54645L0 138.913H45.4607C46.0477 138.913 48.1924 138.851 48.7218 138.748C50.832 138.533 52.7004 137.827 53.7901 136.86L56.8441 134.14C56.9668 134.033 57.5231 133.587 57.715 133.515C58.2214 133.215 58.9235 133.016 59.6985 132.947C59.8827 132.916 60.6155 132.897 60.8188 132.897H94.336L69.7736 147.077C69.2672 147.373 67.4409 148.497 67.0342 148.85C65.3154 150.089 64.0493 151.635 63.5889 153.016L62.3036 156.899C62.2537 157.053 61.989 157.716 61.8624 157.874C61.5708 158.388 61.0644 158.913 60.4237 159.362C60.2817 159.481 59.6602 159.861 59.4837 159.961L18.1858 183.806L17.2573 191.291L56.6292 168.559C57.1356 168.263 58.9619 167.139 59.3686 166.786C61.0874 165.547 62.3535 164.001 62.8139 162.62L64.0992 158.737C64.1491 158.583 64.4138 157.92 64.5404 157.758C64.8282 157.244 65.3384 156.723 65.9753 156.274C66.1211 156.155 66.7465 155.771 66.923 155.668L95.9512 138.909L81.7709 163.471C81.4831 163.982 80.4587 165.865 80.2861 166.38C79.4152 168.313 79.0929 170.285 79.3883 171.712L80.217 175.718C80.2515 175.875 80.3551 176.581 80.3206 176.785C80.3283 177.375 80.148 178.081 79.818 178.791C79.7528 178.968 79.4036 179.604 79.3039 179.781L55.459 221.079L58.3979 228.027L81.1301 188.655C81.4179 188.145 82.4423 186.261 82.6149 185.747C83.4859 183.813 83.8081 181.841 83.5127 180.414L82.684 176.409C82.6495 176.247 82.5459 175.541 82.5804 175.342C82.5727 174.751 82.7531 174.045 83.0792 173.339C83.1444 173.163 83.4935 172.518 83.5971 172.342L100.356 143.313V171.674C100.356 172.257 100.417 174.406 100.521 174.935C100.736 177.045 101.441 178.914 102.408 180.003L105.129 183.057C105.236 183.18 105.681 183.737 105.754 183.928C106.053 184.439 106.253 185.141 106.322 185.916C106.352 186.1 106.372 186.825 106.372 187.028V234.718L112.391 239.265V193.804C112.391 193.221 112.33 191.072 112.226 190.543C112.011 188.433 111.306 186.564 110.339 185.475L107.618 182.421C107.511 182.298 107.066 181.742 106.993 181.55C106.694 181.043 106.494 180.341 106.425 179.566C106.395 179.382 106.375 178.649 106.375 178.446V144.933L120.556 169.491C120.851 169.997 121.975 171.824 122.328 172.23C123.568 173.949 125.114 175.215 126.495 175.676L130.378 176.961C130.531 177.011 131.195 177.276 131.352 177.402C131.866 177.694 132.392 178.2 132.841 178.841C132.96 178.983 133.339 179.604 133.439 179.781L157.284 221.079L164.769 222.007L142.037 182.635C141.742 182.129 140.618 180.303 140.265 179.896C139.025 178.177 137.479 176.911 136.098 176.451L132.215 175.165C132.062 175.116 131.398 174.851 131.237 174.724C130.723 174.436 130.201 173.926 129.752 173.289C129.633 173.144 129.25 172.518 129.146 172.342L112.387 143.313L136.95 157.494C137.46 157.782 139.344 158.806 139.858 158.979C141.792 159.849 143.764 160.172 145.191 159.876L149.196 159.048C149.354 159.013 150.06 158.91 150.263 158.944C150.854 158.936 151.56 159.117 152.27 159.447C152.446 159.512 153.083 159.861 153.259 159.961L194.557 183.806L201.506 180.867L162.134 158.134C161.623 157.847 159.74 156.822 159.225 156.65C157.292 155.779 155.32 155.456 153.893 155.752L149.887 156.581C149.73 156.615 149.02 156.719 148.82 156.684C148.23 156.692 147.524 156.512 146.818 156.185C146.641 156.12 145.997 155.771 145.82 155.668L116.796 138.909H145.156C145.74 138.909 147.888 138.848 148.418 138.744H148.421Z" fill="url(#paint1_radial_0_1)"/>
<path id="secondary" d="M140.245 107.293C141.585 105.651 142.409 103.829 142.494 102.375L142.732 98.2923C142.739 98.1312 142.824 97.4214 142.904 97.2334C143.05 96.6617 143.407 96.0248 143.91 95.4225C144.017 95.269 144.52 94.7434 144.661 94.6014L178.382 60.881L177.342 53.411L145.195 85.5584C144.784 85.9728 143.307 87.5343 143.008 87.9832C141.669 89.6253 140.844 91.4477 140.76 92.9018L140.522 96.984C140.514 97.1451 140.43 97.8549 140.349 98.0429C140.203 98.6146 139.846 99.2476 139.348 99.8462C139.24 99.9996 138.734 100.529 138.592 100.675L114.893 124.374L122.232 96.9802C122.382 96.4123 122.881 94.329 122.915 93.7881C123.257 91.6971 123.057 89.7059 122.401 88.4052L120.567 84.7489C120.494 84.6031 120.21 83.9509 120.191 83.7475C120.034 83.1797 120.022 82.4469 120.157 81.6796C120.172 81.4916 120.345 80.7894 120.395 80.5938L132.737 34.5308L128.099 28.5801L116.332 72.4946C116.182 73.0624 115.683 75.1495 115.649 75.6867C115.307 77.7776 115.507 79.7689 116.163 81.0695L117.997 84.7259C118.07 84.8716 118.353 85.5239 118.373 85.7272C118.53 86.2951 118.541 87.024 118.407 87.7914C118.392 87.9794 118.219 88.693 118.165 88.8886L109.491 121.262L102.151 93.8686C101.998 93.3046 101.384 91.2482 101.146 90.7609C100.394 88.7774 99.2277 87.1545 98.0115 86.3564L94.593 84.1082C94.4587 84.0199 93.8832 83.594 93.7643 83.4291C93.3423 83.0147 92.9701 82.3893 92.6977 81.6565C92.621 81.4877 92.4138 80.7894 92.3601 80.5938L80.0175 34.5308L73.0271 31.6954L84.7942 75.6099C84.9476 76.1739 85.5615 78.2304 85.7994 78.7176C86.5514 80.7012 87.7177 82.3241 88.9339 83.1221L92.3524 85.3704C92.4867 85.4587 93.0622 85.8845 93.1811 86.0495C93.6031 86.4639 93.9753 87.0892 94.2439 87.8182C94.3244 87.9909 94.5278 88.693 94.5853 88.8886L103.26 121.262L83.2058 101.208C82.7914 100.798 81.2337 99.3205 80.7849 99.0213C79.1428 97.6823 77.3203 96.8574 75.8662 96.773L71.784 96.5351C71.6229 96.5274 70.9131 96.443 70.7251 96.3625C70.1535 96.2167 69.5166 95.8599 68.9142 95.3573C68.7607 95.2498 68.2351 94.7472 68.0932 94.6053L34.3727 60.8848L26.9027 61.9284L59.0501 94.0758C59.4645 94.4863 61.026 95.9634 61.4749 96.2627C63.117 97.6017 64.9394 98.4266 66.3935 98.511L70.4757 98.7489C70.6369 98.7565 71.3466 98.841 71.5346 98.9215C72.1063 99.0673 72.7394 99.4241 73.3379 99.9229C73.4913 100.03 74.0208 100.537 74.1666 100.679L97.8657 124.378L70.4719 117.038C69.9041 116.889 67.8207 116.39 67.2798 116.355C65.1888 116.014 63.1976 116.213 61.8969 116.869L58.2406 118.703C58.0948 118.776 57.4426 119.06 57.2392 119.079C56.6714 119.237 55.9386 119.248 55.1713 119.114C54.9833 119.099 54.2773 118.926 54.0855 118.876L8.02248 106.533L2.07181 111.172L45.9863 122.939C46.5541 123.089 48.6413 123.587 49.1784 123.622C51.2694 123.963 53.2606 123.764 54.5612 123.108L58.2176 121.274C58.3634 121.201 59.0156 120.917 59.219 120.898C59.7868 120.741 60.5157 120.729 61.2831 120.863C61.4711 120.879 62.1847 121.051 62.3804 121.105L94.7542 129.78L67.3604 137.119C66.7964 137.273 64.7399 137.887 64.2527 138.125C62.2691 138.877 60.6462 140.043 59.8482 141.259L57.5999 144.678C57.5116 144.812 57.0858 145.387 56.9208 145.506C56.5064 145.928 55.881 146.301 55.1482 146.573C54.9794 146.65 54.2812 146.857 54.0855 146.911L8.02248 159.253L5.18718 166.243L49.1017 154.476C49.6656 154.323 51.7221 153.709 52.2094 153.471C54.1929 152.719 55.8158 151.553 56.6139 150.337L58.8621 146.918C58.9504 146.784 59.3763 146.208 59.5412 146.09C59.9556 145.667 60.581 145.295 61.3099 145.027C61.4826 144.946 62.1847 144.743 62.3804 144.685L94.7542 136.011L74.6999 156.065C74.2894 156.479 72.8123 158.037 72.513 158.486C71.174 160.128 70.3491 161.95 70.2647 163.404L70.0268 167.487C70.0192 167.648 69.9348 168.357 69.8542 168.546C69.7084 169.117 69.3516 169.754 68.849 170.356C68.7415 170.51 68.239 171.035 68.097 171.177L34.3765 204.898L35.4163 212.368L67.5637 180.22C67.9742 179.806 69.4513 178.245 69.7506 177.796C71.0896 176.154 71.9145 174.331 71.9989 172.877L72.2368 168.795C72.2444 168.634 72.3288 167.924 72.4094 167.736C72.5552 167.164 72.912 166.531 73.4108 165.933C73.5182 165.779 74.0246 165.25 74.1666 165.104L97.8657 141.405L90.5262 168.799C90.3765 169.367 89.8778 171.45 89.8432 171.991C89.5018 174.082 89.7013 176.073 90.3573 177.374L92.1913 181.03C92.2642 181.176 92.5481 181.828 92.5672 182.031C92.7245 182.599 92.7361 183.332 92.6018 184.099C92.5864 184.287 92.4138 184.989 92.3639 185.185L80.0214 231.248L84.6599 237.199L96.4269 193.284C96.5766 192.717 97.0753 190.629 97.1099 190.092C97.4513 188.001 97.2518 186.01 96.5957 184.709L94.7618 181.053C94.6889 180.907 94.405 180.255 94.3858 180.052C94.2285 179.484 94.217 178.755 94.3513 177.988C94.3667 177.8 94.5393 177.086 94.593 176.89L103.268 144.516L110.607 171.91C110.761 172.474 111.375 174.531 111.612 175.018C112.364 177.002 113.531 178.624 114.747 179.422L118.165 181.671C118.3 181.759 118.875 182.185 118.994 182.35C119.416 182.764 119.788 183.39 120.061 184.122C120.138 184.291 120.345 184.989 120.398 185.185L132.741 231.248L139.731 234.083L127.964 190.169C127.811 189.605 127.197 187.549 126.959 187.061C126.207 185.078 125.041 183.455 123.825 182.657L120.406 180.408C120.272 180.32 119.696 179.894 119.577 179.729C119.155 179.315 118.783 178.69 118.515 177.961C118.434 177.788 118.231 177.086 118.173 176.89L109.498 144.516L129.553 164.571C129.967 164.981 131.525 166.458 131.974 166.758C133.616 168.097 135.438 168.921 136.892 169.006L140.974 169.244C141.136 169.251 141.845 169.336 142.033 169.416C142.605 169.562 143.242 169.919 143.844 170.422C143.998 170.529 144.523 171.032 144.665 171.174L178.386 204.894L185.856 203.854L153.708 171.707C153.294 171.296 151.732 169.819 151.284 169.52C149.641 168.181 147.819 167.356 146.365 167.272L142.283 167.034C142.122 167.026 141.412 166.942 141.224 166.861C140.652 166.715 140.019 166.359 139.421 165.86C139.267 165.752 138.738 165.246 138.592 165.104L114.893 141.405L142.287 148.744C142.854 148.894 144.938 149.393 145.479 149.427C147.57 149.769 149.561 149.569 150.862 148.913L154.518 147.079C154.664 147.006 155.316 146.723 155.519 146.703C156.087 146.546 156.82 146.535 157.587 146.669C157.775 146.684 158.477 146.857 158.673 146.907L204.736 159.249L210.687 154.611L166.772 142.844C166.204 142.694 164.117 142.195 163.58 142.161C161.489 141.819 159.498 142.019 158.197 142.675L154.541 144.509C154.395 144.582 153.739 144.866 153.54 144.885C152.972 145.042 152.243 145.054 151.475 144.919C151.287 144.904 150.574 144.731 150.378 144.678L118.004 136.003L145.398 128.663C145.962 128.51 148.019 127.896 148.506 127.658C150.489 126.906 152.112 125.74 152.91 124.524L155.159 121.105C155.247 120.971 155.673 120.395 155.838 120.276C156.252 119.854 156.877 119.482 157.61 119.21C157.779 119.133 158.477 118.926 158.673 118.872L204.736 106.53L207.571 99.5392L163.657 111.306C163.093 111.46 161.036 112.074 160.549 112.311C158.566 113.063 156.943 114.23 156.145 115.446L153.896 118.865C153.808 118.999 153.382 119.574 153.217 119.693C152.803 120.115 152.178 120.487 151.449 120.756C151.276 120.837 150.574 121.04 150.378 121.097L118.004 129.772L138.059 109.718C138.469 109.304 139.946 107.746 140.245 107.297V107.293Z" fill="url(#paint2_radial_0_1)"/>
</g>
</g>
</g>
</g>
<g id="Frame 1618875119">
<g id="Frame 1618875118">
<g id="Frame 1618875112">
<path id="Vector_2" d="M309.647 1.5V130.73C309.647 139.22 302.767 146.11 294.267 146.11H276.277V90.49H198.407V146.11H165.037V14.31C165.037 7.23 170.777 1.5 177.847 1.5H198.397V57.12H276.267V1.5H309.637H309.647Z" stroke="white" stroke-width="3" stroke-miterlimit="10"/>
<path id="Vector_3" d="M364.017 34.88V57.06H475.257V90.45H364.017V112.73H475.257V130.73C475.257 139.22 468.377 146.11 459.877 146.11H330.647V14.31C330.647 7.23 336.387 1.5 343.457 1.5H475.257V34.88H364.017Z" stroke="white" stroke-width="3" stroke-miterlimit="10"/>
<path id="Vector_4" d="M640.867 90.45H600.647L640.827 146.11H600.697L560.517 90.45H529.627V146.11H496.257V14.31C496.257 7.23 501.997 1.5 509.067 1.5H640.857V90.45H640.867ZM607.487 57.06V34.88H529.627V57.06H607.487Z" stroke="white" stroke-width="3" stroke-miterlimit="10"/>
<path id="Vector_5" d="M695.237 34.88V57.06H806.477V90.45H695.237V112.73H806.477V130.73C806.477 139.22 799.597 146.11 791.097 146.11H661.867V14.31C661.867 7.23 667.607 1.5 674.677 1.5H806.477V34.88H695.237Z" stroke="white" stroke-width="3" stroke-miterlimit="10"/>
</g>
<g id="Frame">
<path id="Vector_6" d="M1009.09 1.5V130.73C1009.09 139.22 1002.21 146.11 993.707 146.11H864.477V14.31C864.477 7.23 870.217 1.5 877.287 1.5H897.837V112.74H920.037V14.31C920.037 7.23 925.777 1.5 932.847 1.5H953.397V112.74H975.687V1.5H1009.08H1009.09Z" stroke="white" stroke-width="3" stroke-miterlimit="10"/>
<path id="Vector_7" d="M1063.46 34.88V57.06H1174.7V90.45H1063.46V112.73H1174.7V130.73C1174.7 139.22 1167.82 146.11 1159.32 146.11H1030.09V14.31C1030.09 7.23 1035.83 1.5 1042.9 1.5H1174.7V34.88H1063.46Z" stroke="white" stroke-width="3" stroke-miterlimit="10"/>
</g>
<g id="Frame 1618875114">
<path id="Vector_8" d="M1377.31 57.12V130.73C1377.31 139.22 1370.43 146.11 1361.93 146.11H1232.7V14.31C1232.7 7.23 1238.44 1.5 1245.51 1.5H1377.31V34.87H1266.07V112.74H1343.94V90.49H1305V57.12H1377.31Z" fill="white" stroke="white" stroke-miterlimit="10"/>
<path id="Vector_9" d="M1542.92 90.45H1502.7L1542.88 146.11H1502.75L1462.57 90.45H1431.68V146.11H1398.31V14.31C1398.31 7.23 1404.05 1.5 1411.12 1.5H1542.91V90.45H1542.92ZM1509.55 57.06V34.88H1431.69V57.06H1509.55Z" fill="white" stroke="white" stroke-miterlimit="10"/>
<path id="Vector_10" d="M1708.53 1.5V130.73C1708.53 139.22 1701.65 146.11 1693.15 146.11H1563.92V14.31C1563.92 7.23 1569.66 1.5 1576.73 1.5H1708.53ZM1675.16 34.86H1597.29V112.73H1675.16V34.86Z" fill="white" stroke="white" stroke-miterlimit="10"/>
<path id="Vector_11" d="M1874.14 1.5V130.73C1874.14 139.22 1867.26 146.11 1858.76 146.11H1729.53V14.31C1729.53 7.23 1735.27 1.5 1742.34 1.5H1762.89V112.74H1785.09V1.5H1818.46V112.74H1840.75V1.5H1874.14Z" fill="white" stroke="white" stroke-miterlimit="10"/>
</g>
<g id="Frame 1618875113">
<path id="Vector_12" d="M1990.87 54.4148L1983.38 67.7148C1983.08 68.2448 1981.71 70.4147 1981.24 70.7647C1980 72.2347 1978.28 73.2047 1976.38 73.5447C1975.92 73.7047 1974.13 73.7847 1973.63 73.7947H1948.71L1932.14 103.225H1957.05C1958.48 103.205 1963.74 102.925 1965.04 102.415C1970.21 101.375 1974.79 97.9247 1977.46 93.1847L1984.95 79.8847C1985.25 79.3547 1986.62 77.1847 1987.09 76.8347C1988.34 75.3647 1990.06 74.3947 1991.97 74.0547C1992.42 73.9047 1994.2 73.8148 1994.7 73.8148H2019.63L2036.21 44.3848H2011.31C2009.88 44.4048 2004.62 44.6848 2003.32 45.1948C1998.15 46.2348 1993.57 49.6847 1990.9 54.4247L1990.87 54.4148Z" fill="white"/>
<path id="Vector_13" d="M2084.44 49.2296H2065.2L2065.01 43.4796C2065.01 27.5696 2067.4 16.3796 2072.18 9.90961C2077.02 3.36961 2085.13 0.0996094 2096.51 0.0996094C2117.95 0.0996094 2128.67 11.9796 2128.67 35.7496C2128.67 51.7796 2120.65 74.8896 2104.62 105.07L2093.02 126.86C2092.96 126.99 2092.77 127.36 2092.45 127.99C2092.13 128.62 2091.7 129.53 2091.13 130.72H2127.15V147.51H2063.21C2064.28 145.12 2066.51 140.37 2069.9 133.27C2073.29 126.17 2077.92 116.58 2083.76 104.51C2088.73 93.9496 2092.88 84.9896 2096.21 77.6296C2099.54 70.2696 2102.06 64.2396 2103.76 59.5196C2107.16 50.0896 2108.85 41.9496 2108.85 35.0896C2108.85 23.0196 2104.67 16.9796 2096.31 16.9796C2087.95 16.9796 2084.24 24.4596 2084.24 39.4296L2084.33 47.7296L2084.43 49.2396L2084.44 49.2296Z" fill="white"/>
<path id="Vector_14" d="M2155.68 0.994141H2220.75L2176.61 146.614H2155.67L2196.13 17.5941H2155.67V0.994141H2155.68Z" fill="white"/>
</g>
</g>
<g id="Frame 1618875117">
<g id="Frame 1618875115">
<path id="Vector_15" d="M207.934 196.844H200.315C199.931 189.449 194.649 186.216 186.966 186.216C179.283 186.216 174.321 189.385 174.321 195.468C174.321 201.55 179.347 203.567 185.013 204.56L192.152 205.808C200.443 207.281 208.51 211.026 208.51 221.719C208.51 232.411 199.547 238.493 187.83 238.493C176.113 238.493 165.421 232.443 165.037 218.837H172.656C173.2 228.025 179.507 231.803 187.83 231.803C196.153 231.803 200.955 227.993 200.955 221.783C200.955 215.572 195.481 213.491 189.559 212.435L182.42 211.186C174.865 209.842 166.765 206.096 166.765 195.532C166.765 184.968 175.953 179.525 186.966 179.525C197.978 179.525 207.486 185.032 207.966 196.813L207.934 196.844Z" fill="white"/>
<path id="Vector_16" d="M232.072 180.711V237.31H224.517V180.711H232.072Z" fill="white"/>
<path id="Vector_17" d="M276.41 179.525C293.793 179.525 301.572 190.538 301.796 201.55H294.177C293.697 193.771 288.703 186.216 276.41 186.216C264.117 186.216 255.73 195.148 255.73 209.009C255.73 222.871 263.829 231.803 276.41 231.803C288.991 231.803 293.377 225.24 293.537 217.269H272.857V210.514H301.22V214.836C301.22 229.498 292.417 238.493 276.154 238.493C259.027 238.493 248.079 226.713 248.079 209.009C248.079 191.306 258.995 179.525 276.378 179.525H276.41Z" fill="white"/>
<path id="Vector_18" d="M317.803 180.711H331.569L349.656 229.371C349.816 229.755 350.04 229.851 350.456 229.851C350.873 229.851 351.001 229.595 351.001 229.211V180.711H358.556V237.31H344.79L326.703 188.65C326.543 188.266 326.319 188.17 325.902 188.17C325.486 188.17 325.358 188.426 325.358 188.81V237.31H317.803V180.711Z" fill="white"/>
<path id="Vector_19" d="M374.562 235.741L391.433 180.711H403.086L419.957 235.741V237.31H412.434L407.216 219.863H387.336L382.117 237.31H374.594V235.741H374.562ZM405.135 213.108L397.772 188.49C397.676 188.266 397.548 188.17 397.228 188.17C396.907 188.17 396.747 188.266 396.683 188.49L389.32 213.108H405.135Z" fill="white"/>
<path id="Vector_20" d="M435.963 180.711H443.518V230.555H469.865V237.31H435.995V180.711H435.963Z" fill="white"/>
<path id="Vector_21" d="M485.903 180.743H520.958V187.498H493.426V204.465H517.788V211.219H493.426V237.31H485.871V180.711L485.903 180.743Z" fill="white"/>
<path id="Vector_22" d="M536.964 180.693H559.437C570.066 180.693 577.525 186.2 577.525 197.212C577.525 206.368 572.371 211.714 564.527 213.251L574.868 235.756V237.324H567.217L556.876 213.731H544.551V237.324H536.996V180.725L536.964 180.693ZM558.669 206.944C565.936 206.944 570.002 204.127 570.002 197.212C570.002 190.297 565.968 187.448 558.669 187.448H544.519V206.944H558.669Z" fill="white"/>
<path id="Vector_23" d="M593.531 235.741L610.402 180.711H622.023L638.894 235.741V237.31H631.37L626.152 219.863H606.272L601.054 237.31H593.531V235.741ZM624.136 213.108L616.773 188.49C616.677 188.266 616.517 188.17 616.228 188.17C615.94 188.17 615.748 188.266 615.684 188.49L608.321 213.108H624.136Z" fill="white"/>
<path id="Vector_24" d="M654.9 180.711H668.666L686.753 229.371C686.913 229.755 687.137 229.851 687.554 229.851C687.97 229.851 688.098 229.595 688.098 229.211V180.711H695.653V237.31H681.887L663.8 188.65C663.64 188.266 663.416 188.17 663 188.17C662.583 188.17 662.455 188.426 662.455 188.81V237.31H654.9V180.711Z" fill="white"/>
<path id="Vector_25" d="M740.119 179.51C757.406 179.51 765.666 190.17 765.826 202.655H758.271C757.951 193.916 752.54 186.264 740.119 186.264C727.698 186.264 719.279 195.1 719.279 208.994C719.279 222.887 727.538 231.723 740.119 231.723C752.7 231.723 758.527 224.104 758.975 214.084H766.53C765.986 227.369 757.406 238.51 740.119 238.51C722.832 238.51 711.66 226.729 711.66 209.026C711.66 191.322 722.832 179.542 740.119 179.542V179.51Z" fill="white"/>
<path id="Vector_26" d="M782.537 180.711H790.092V204.849H815.254V180.711H822.809V237.31H815.254V211.604H790.092V237.31H782.537V180.711Z" fill="white"/>
<path id="Vector_27" d="M846.37 180.711V237.31H838.815V180.711H846.37Z" fill="white"/>
<path id="Vector_28" d="M905.274 196.844H897.655C897.271 189.449 891.989 186.216 884.306 186.216C876.623 186.216 871.661 189.385 871.661 195.468C871.661 201.55 876.687 203.567 882.353 204.56L889.492 205.808C897.783 207.281 905.85 211.026 905.85 221.719C905.85 232.411 896.887 238.493 885.17 238.493C873.453 238.493 862.761 232.443 862.377 218.837H869.996C870.54 228.025 876.847 231.803 885.17 231.803C893.494 231.803 898.295 227.993 898.295 221.783C898.295 215.572 892.821 213.491 886.899 212.435L879.76 211.186C872.205 209.842 864.106 206.096 864.106 195.532C864.106 184.968 873.293 179.525 884.306 179.525C895.318 179.525 904.826 185.032 905.306 196.813L905.274 196.844Z" fill="white"/>
<path id="Vector_29" d="M921.857 180.743H957.712V187.498H929.412V204.465H954.958V211.219H929.412V230.555H958.096V237.31H921.857V180.711V180.743Z" fill="white"/>
<path id="Vector_30" d="M1002.56 179.51C1019.85 179.51 1028.11 190.17 1028.27 202.655H1020.71C1020.39 193.916 1014.98 186.264 1002.56 186.264C990.141 186.264 981.722 195.1 981.722 208.994C981.722 222.887 989.981 231.723 1002.56 231.723C1015.14 231.723 1020.97 224.104 1021.42 214.084H1028.97C1028.43 227.369 1019.85 238.51 1002.56 238.51C985.275 238.51 974.102 226.729 974.102 209.026C974.102 191.322 985.275 179.542 1002.56 179.542V179.51Z" fill="white"/>
<path id="Vector_31" d="M1103.5 209.009C1103.5 226.713 1091.46 238.493 1074.24 238.493C1057.02 238.493 1044.98 226.713 1044.98 209.009C1044.98 191.306 1057.02 179.525 1074.24 179.525C1091.46 179.525 1103.5 191.306 1103.5 209.009ZM1052.63 209.009C1052.63 223.447 1061.27 231.803 1074.24 231.803C1086.44 231.803 1095.85 223.415 1095.85 209.009C1095.85 194.604 1086.4 186.216 1074.24 186.216C1061.27 186.216 1052.63 194.604 1052.63 209.009Z" fill="white"/>
<path id="Vector_32" d="M1119.51 180.711H1133.27L1151.36 229.371C1151.52 229.755 1151.74 229.851 1152.16 229.851C1152.57 229.851 1152.7 229.595 1152.7 229.211V180.711H1160.26V237.31H1146.49L1128.4 188.65C1128.24 188.266 1128.02 188.17 1127.6 188.17C1127.19 188.17 1127.06 188.426 1127.06 188.81V237.31H1119.51V180.711Z" fill="white"/>
<path id="Vector_33" d="M1198.39 229.531C1198.48 229.755 1198.64 229.851 1198.93 229.851C1199.22 229.851 1199.41 229.755 1199.47 229.531L1214.1 180.711H1221.63V182.28L1204.76 237.31H1193.14L1176.26 182.28V180.711H1183.79L1198.42 229.531H1198.39Z" fill="white"/>
<path id="Vector_34" d="M1237.63 180.743H1273.49V187.498H1245.19V204.465H1270.73V211.219H1245.19V230.555H1273.87V237.31H1237.63V180.711V180.743Z" fill="white"/>
<path id="Vector_35" d="M1289.88 180.711H1303.64L1321.73 229.371C1321.89 229.755 1322.12 229.851 1322.53 229.851C1322.95 229.851 1323.08 229.595 1323.08 229.211V180.711H1330.63V237.31H1316.87L1298.78 188.65C1298.62 188.266 1298.39 188.17 1297.98 188.17C1297.56 188.17 1297.43 188.426 1297.43 188.81V237.31H1289.88V180.711Z" fill="white"/>
<path id="Vector_36" d="M1346.64 180.711H1390.37V187.466H1372.28V237.31H1364.73V187.466H1346.64V180.711Z" fill="white"/>
<path id="Vector_37" d="M1413.93 180.711V237.31H1406.37V180.711H1413.93Z" fill="white"/>
<path id="Vector_38" d="M1488.46 209.009C1488.46 226.713 1476.42 238.493 1459.2 238.493C1441.97 238.493 1429.94 226.713 1429.94 209.009C1429.94 191.306 1441.97 179.525 1459.2 179.525C1476.42 179.525 1488.46 191.306 1488.46 209.009ZM1437.59 209.009C1437.59 223.447 1446.23 231.803 1459.2 231.803C1471.39 231.803 1480.8 223.415 1480.8 209.009C1480.8 194.604 1471.36 186.216 1459.2 186.216C1446.23 186.216 1437.59 194.604 1437.59 209.009Z" fill="white"/>
<path id="Vector_39" d="M1504.46 180.711H1518.23L1536.32 229.371C1536.48 229.755 1536.7 229.851 1537.12 229.851C1537.53 229.851 1537.66 229.595 1537.66 229.211V180.711H1545.21V237.31H1531.45L1513.36 188.65C1513.2 188.266 1512.98 188.17 1512.56 188.17C1512.15 188.17 1512.02 188.426 1512.02 188.81V237.31H1504.46V180.711Z" fill="white"/>
</g>
<g id="Frame 1618875116">
<path id="Vector_40" d="M1746.9 236.124L1767.54 180.709H1776.83L1797.51 236.124V237.308H1790.31L1784.42 221.301H1759.77L1753.91 237.308H1746.93V236.124H1746.9ZM1782.5 215.603L1772.51 188.168H1771.71L1761.69 215.603H1782.46H1782.5Z" fill="white"/>
<path id="Vector_41" d="M1833.46 212.098V237.292H1826.32V180.693H1852.83C1862.37 180.693 1870.08 186.392 1870.08 196.412C1870.08 206.432 1862.62 212.194 1853.47 212.194H1843.61L1869.67 236.14V237.324H1861.57L1834.29 212.13H1833.49L1833.46 212.098ZM1833.46 206.688H1851.64C1858.27 206.688 1863.01 203.135 1863.01 196.54C1863.01 189.945 1858.3 186.424 1851.64 186.424H1833.46V206.656V206.688Z" fill="white"/>
<path id="Vector_42" d="M1906.13 180.709V237.308H1898.89V180.709H1906.13Z" fill="white"/>
<path id="Vector_43" d="M1977.97 180.709V185.575L1944.22 231.578H1978.77V237.308H1934.94V232.442L1968.65 186.439H1936.16V180.709H1977.93H1977.97Z" fill="white"/>
<path id="Vector_44" d="M2035.78 179.605C2052.56 179.605 2064.02 190.202 2064.02 208.993C2064.02 227.785 2052.59 238.413 2035.78 238.413C2018.98 238.413 2007.58 227.817 2007.58 208.993C2007.58 190.17 2019.01 179.605 2035.78 179.605ZM2035.78 232.523C2048.43 232.523 2056.65 224.007 2056.65 209.025C2056.65 194.043 2048.43 185.496 2035.78 185.496C2023.14 185.496 2014.88 194.075 2014.88 209.025C2014.88 223.975 2023.14 232.523 2035.78 232.523Z" fill="white"/>
<path id="Vector_45" d="M2101.63 180.709L2130.32 226.968H2131.12V180.709H2138.06V237.308H2129.16L2100.58 191.145H2099.78V237.308H2092.83V180.709H2101.6H2101.63Z" fill="white"/>
<path id="Vector_46" d="M2166.88 236.124L2187.52 180.709H2196.81L2217.49 236.124V237.308H2210.29L2204.39 221.301H2179.74L2173.89 237.308H2166.91V236.124H2166.88ZM2202.44 215.603L2192.45 188.168H2191.65L2181.63 215.603H2202.41H2202.44Z" fill="white"/>
</g>
</g>
</g>
</g>
<defs>
<linearGradient id="paint0_linear_0_1" x1="3.05176e-05" y1="132.888" x2="136.037" y2="132.888" gradientUnits="userSpaceOnUse">
<stop offset="0.68" stop-color="white"/>
<stop offset="0.84" stop-color="#010101"/>
</linearGradient>
<radialGradient id="paint1_radial_0_1" cx="0" cy="0" r="1" gradientUnits="userSpaceOnUse" gradientTransform="translate(106.375 132.889) scale(106.375 106.375)">
<stop stop-color="white"/>
<stop offset="0.28" stop-color="#FFD886"/>
<stop offset="0.47" stop-color="#F37021"/>
<stop offset="0.53" stop-color="#F37735" stop-opacity="0.95"/>
<stop offset="0.64" stop-color="#F58A6C" stop-opacity="0.83"/>
<stop offset="0.65" stop-color="#F68C71" stop-opacity="0.82"/>
<stop offset="0.9" stop-color="#456B9C" stop-opacity="0.95"/>
<stop offset="1" stop-color="#005FAE"/>
</radialGradient>
<radialGradient id="paint2_radial_0_1" cx="0" cy="0" r="1" gradientUnits="userSpaceOnUse" gradientTransform="translate(106.377 132.89) rotate(-45) scale(106.375)">
<stop offset="0.35" stop-color="#010101" stop-opacity="0"/>
<stop offset="1" stop-color="#005FAE" stop-opacity="0.87"/>
</radialGradient>
</defs>
</svg>
