<svg width="2220" height="180" viewBox="0 0 2220 180" fill="none" xmlns="http://www.w3.org/2000/svg">
<g id="Frame 1618875124">
<g id="Group 1000006389">
<mask id="mask0_0_1" style="mask-type:luminance" maskUnits="userSpaceOnUse" x="0" y="0" width="116" height="180">
<g id="Group">
<path id="Vector" d="M3.05176e-05 180H115.917L115.917 0H3.05176e-05L3.05176e-05 180Z" fill="url(#paint0_linear_0_1)"/>
</g>
</mask>
<g mask="url(#mask0_0_1)">
<g id="Group_2">
<g id="_x33_">
<path id="primary" d="M126.47 94.9919C128.268 94.8088 129.86 94.2073 130.788 93.3834L133.391 91.0655C133.495 90.974 133.969 90.5948 134.133 90.5327C134.568 90.2777 135.166 90.1077 135.826 90.0488C135.983 90.0227 136.601 90.0063 136.774 90.0063H177.411L181.285 84.8769H142.548C142.048 84.8769 140.22 84.9292 139.769 85.0175C137.971 85.2006 136.379 85.8021 135.45 86.626L132.848 88.9438C132.743 89.0354 132.269 89.4146 132.106 89.4767C131.674 89.7317 131.076 89.9017 130.416 89.9605C130.259 89.9867 129.634 90.003 129.458 90.003H100.898L121.827 77.92C122.259 77.6683 123.815 76.7104 124.162 76.4096C125.626 75.3537 126.705 74.0362 127.097 72.8593L128.193 69.5508C128.235 69.42 128.461 68.8545 128.569 68.7204C128.817 68.2824 129.249 67.8345 129.795 67.452C129.916 67.3506 130.445 67.027 130.596 66.942L165.785 46.6238L166.577 40.2455L133.028 59.6157C132.596 59.8674 131.04 60.8253 130.694 61.126C129.229 62.182 128.15 63.4995 127.758 64.6764L126.663 67.9849C126.62 68.1156 126.395 68.6812 126.287 68.8185C126.042 69.2566 125.607 69.7012 125.064 70.0837C124.94 70.185 124.407 70.512 124.257 70.6002L99.5216 84.8802L111.605 63.9506C111.85 63.5158 112.723 61.9106 112.87 61.4726C113.612 59.8249 113.887 58.1445 113.635 56.9284L112.929 53.5153C112.899 53.3812 112.811 52.7797 112.84 52.6064C112.834 52.103 112.988 51.5014 113.269 50.8966C113.324 50.7463 113.622 50.2036 113.707 50.0532L134.025 14.8633L131.521 8.94274L112.151 42.4915C111.905 42.9263 111.033 44.5315 110.885 44.9695C110.143 46.6172 109.869 48.2976 110.12 49.5138L110.827 52.9268C110.856 53.0609 110.944 53.6624 110.915 53.8357C110.921 54.3391 110.768 54.9407 110.49 55.5422C110.434 55.6926 110.137 56.2418 110.048 56.3922L95.7685 81.1271V56.961C95.7685 56.4641 95.7162 54.6334 95.628 54.1822C95.4449 52.3841 94.8433 50.792 94.0195 49.8636L91.7016 47.2613C91.6101 47.1567 91.2309 46.6826 91.1687 46.5192C90.9137 46.0844 90.7438 45.4861 90.6849 44.8257C90.6588 44.6688 90.6424 44.0509 90.6424 43.8776V3.24122L85.513 -0.632812V38.1042C85.513 38.6044 85.5653 40.4319 85.6536 40.883C85.8366 42.6811 86.4382 44.2732 87.262 45.2017L89.5799 47.804C89.6714 47.9086 90.0507 48.3826 90.1128 48.5461C90.3678 48.9776 90.5378 49.5759 90.5966 50.2363C90.6228 50.3932 90.6391 51.0176 90.6391 51.1909V79.7508L78.5561 58.8212C78.3044 58.3897 77.3465 56.8335 77.0457 56.487C75.9898 55.0224 74.6723 53.9435 73.4953 53.5512L70.1869 52.4561C70.0561 52.4136 69.4905 52.188 69.3565 52.0801C68.9184 51.8316 68.4706 51.4001 68.0881 50.8541C67.9867 50.7332 67.6631 50.2036 67.5781 50.0532L47.2598 14.8633L40.8816 14.0721L60.2517 47.6209C60.5035 48.0524 61.4613 49.6086 61.7621 49.9551C62.8181 51.4197 64.1356 52.4986 65.3125 52.8909L68.6209 53.9861C68.7517 54.0286 69.3173 54.2541 69.4546 54.362C69.8927 54.6072 70.3373 55.042 70.7198 55.5847C70.8211 55.7089 71.148 56.2418 71.2363 56.3922L85.5163 81.1271L64.5867 69.0441C64.1519 68.7989 62.5467 67.926 62.1086 67.7789C60.461 67.0368 58.7806 66.7622 57.5644 67.0139L54.1514 67.7201C54.0173 67.7495 53.4158 67.8377 53.2425 67.8083C52.7391 67.8149 52.1375 67.6612 51.5327 67.3801C51.3823 67.3245 50.8396 67.027 50.6893 66.942L15.4994 46.6238L9.57882 49.128L43.1276 68.4981C43.5624 68.7433 45.1675 69.6162 45.6056 69.7633C47.2533 70.5054 48.9337 70.78 50.1498 70.5283L53.5629 69.8222C53.6969 69.7927 54.3017 69.7045 54.4717 69.7339C54.9752 69.7273 55.5767 69.881 56.1783 70.1589C56.3287 70.2145 56.8779 70.512 57.0283 70.6002L81.7599 84.8802H57.5939C57.0969 84.8802 55.2662 84.9325 54.815 85.0208C53.0169 85.2038 51.4248 85.8054 50.4964 86.6292L47.8941 88.9471C47.7895 89.0386 47.3154 89.4179 47.152 89.48C46.7172 89.735 46.1189 89.905 45.4585 89.9638C45.3016 89.99 44.6837 90.0063 44.5104 90.0063H3.87403L0 95.1357H38.737C39.2372 95.1357 41.0647 95.0834 41.5158 94.9952C43.3139 94.8121 44.906 94.2105 45.8345 93.3867L48.4368 91.0688C48.5414 90.9773 49.0154 90.598 49.1789 90.5359C49.6104 90.2809 50.2087 90.1109 50.8691 90.0521C51.026 90.0259 51.6504 90.0096 51.8237 90.0096H80.3836L59.454 102.093C59.0225 102.344 57.4664 103.302 57.1198 103.603C55.6552 104.659 54.5764 105.976 54.1841 107.153L53.0889 110.462C53.0464 110.593 52.8208 111.158 52.7129 111.292C52.4645 111.73 52.0329 112.178 51.487 112.561C51.366 112.662 50.8364 112.986 50.686 113.071L15.4961 133.389L14.705 139.767L48.2537 120.397C48.6852 120.145 50.2414 119.187 50.5879 118.887C52.0525 117.831 53.1314 116.513 53.5237 115.336L54.6189 112.028C54.6614 111.897 54.8869 111.331 54.9948 111.194C55.24 110.756 55.6748 110.311 56.2175 109.929C56.3417 109.828 56.8746 109.501 57.025 109.412L81.7599 95.1325L69.6769 116.062C69.4317 116.497 68.5588 118.102 68.4117 118.54C67.6696 120.188 67.395 121.868 67.6467 123.084L68.3529 126.497C68.3823 126.631 68.4706 127.233 68.4411 127.406C68.4477 127.91 68.294 128.511 68.0129 129.116C67.9573 129.266 67.6598 129.809 67.5748 129.959L47.2566 165.149L49.7608 171.07L69.1309 137.521C69.3761 137.086 70.249 135.481 70.3961 135.043C71.1382 133.395 71.4128 131.715 71.1611 130.499L70.455 127.086C70.4255 126.949 70.3373 126.347 70.3667 126.177C70.3602 125.674 70.5138 125.072 70.7917 124.47C70.8473 124.32 71.1448 123.771 71.233 123.62L85.513 98.8855V123.052C85.513 123.549 85.5653 125.379 85.6536 125.83C85.8366 127.629 86.4382 129.221 87.262 130.149L89.5799 132.751C89.6714 132.856 90.0507 133.33 90.1128 133.493C90.3678 133.928 90.5378 134.527 90.5966 135.187C90.6228 135.344 90.6391 135.962 90.6391 136.135V176.771L95.7685 180.645V141.908C95.7685 141.412 95.7162 139.581 95.628 139.13C95.4449 137.332 94.8433 135.739 94.0195 134.811L91.7016 132.209C91.6101 132.104 91.2309 131.63 91.1687 131.467C90.9137 131.035 90.7438 130.437 90.6849 129.776C90.6588 129.619 90.6424 128.995 90.6424 128.822V100.265L102.725 121.191C102.977 121.623 103.935 123.179 104.236 123.526C105.292 124.99 106.609 126.069 107.786 126.461L111.095 127.557C111.225 127.599 111.791 127.825 111.925 127.933C112.363 128.181 112.811 128.613 113.193 129.159C113.295 129.279 113.618 129.809 113.703 129.959L134.022 165.149L140.4 165.941L121.03 132.392C120.778 131.96 119.82 130.404 119.519 130.058C118.463 128.593 117.146 127.514 115.969 127.122L112.661 126.027C112.53 125.984 111.964 125.759 111.827 125.651C111.389 125.405 110.944 124.971 110.562 124.428C110.46 124.304 110.133 123.771 110.045 123.62L95.7653 98.8855L116.695 110.969C117.13 111.214 118.735 112.087 119.173 112.234C120.821 112.976 122.501 113.25 123.717 112.999L127.13 112.293C127.264 112.263 127.866 112.175 128.039 112.204C128.542 112.198 129.144 112.351 129.749 112.633C129.899 112.688 130.442 112.986 130.592 113.071L165.782 133.389L171.703 130.885L138.154 111.515C137.719 111.269 136.114 110.396 135.676 110.249C134.028 109.507 132.348 109.233 131.132 109.484L127.719 110.19C127.585 110.22 126.98 110.308 126.81 110.279C126.306 110.285 125.705 110.132 125.103 109.854C124.953 109.798 124.404 109.501 124.253 109.412L99.5216 95.1325H123.688C124.185 95.1325 126.015 95.0801 126.467 94.9919H126.47Z" fill="url(#paint1_radial_0_1)"/>
<path id="secondary" d="M119.503 68.1924C120.644 66.7932 121.347 65.2403 121.419 64.0013L121.622 60.5228C121.628 60.3855 121.7 59.7807 121.769 59.6205C121.893 59.1334 122.197 58.5907 122.625 58.0774C122.717 57.9467 123.145 57.4988 123.266 57.3778L151.999 28.6447L151.113 22.2795L123.72 49.6723C123.371 50.0254 122.112 51.3559 121.857 51.7384C120.716 53.1377 120.013 54.6905 119.941 55.9296L119.738 59.408C119.732 59.5453 119.66 60.1501 119.591 60.3103C119.467 60.7974 119.163 61.3369 118.738 61.8469C118.647 61.9776 118.215 62.4288 118.094 62.553L97.9001 82.747L104.154 59.4048C104.282 58.9209 104.707 57.1457 104.736 56.6848C105.027 54.903 104.857 53.2063 104.298 52.0981L102.735 48.9825C102.673 48.8583 102.431 48.3025 102.415 48.1292C102.281 47.6454 102.271 47.021 102.385 46.3671C102.399 46.2069 102.546 45.6086 102.588 45.4419L113.105 6.19166L109.153 1.12109L99.126 38.5406C98.9985 39.0244 98.5735 40.8029 98.5441 41.2606C98.2532 43.0423 98.4231 44.739 98.9822 45.8473L100.545 48.9629C100.607 49.0871 100.849 49.6429 100.865 49.8161C100.999 50.3 101.009 50.9211 100.895 51.575C100.882 51.7352 100.734 52.3432 100.689 52.51L93.297 80.0956L87.043 56.7534C86.9122 56.2728 86.3892 54.5205 86.1865 54.1054C85.5457 52.4152 84.5518 51.0323 83.5155 50.3523L80.6026 48.4365C80.4882 48.3613 79.9978 47.9985 79.8965 47.8579C79.5369 47.5048 79.2197 46.9719 78.9876 46.3475C78.9222 46.2036 78.7457 45.6086 78.7 45.4419L68.1829 6.19166L62.2263 3.7757L72.253 41.1952C72.3838 41.6758 72.9069 43.4281 73.1096 43.8433C73.7503 45.5335 74.7442 46.9163 75.7805 47.5963L78.6934 49.5121C78.8078 49.5873 79.2982 49.9502 79.3996 50.0907C79.7592 50.4438 80.0763 50.9767 80.3051 51.5979C80.3738 51.745 80.5471 52.3432 80.5961 52.51L87.9878 80.0956L70.8996 63.0074C70.5465 62.6576 69.2192 61.399 68.8367 61.144C67.4375 60.003 65.8846 59.3001 64.6456 59.2282L61.1671 59.0255C61.0298 59.019 60.425 58.9471 60.2648 58.8784C59.7777 58.7542 59.235 58.4501 58.7217 58.0219C58.591 57.9303 58.1431 57.5021 58.0221 57.3811L29.2889 28.6479L22.9238 29.5372L50.3166 56.93C50.6697 57.2798 52.0002 58.5384 52.3827 58.7934C53.7819 59.9344 55.3348 60.6373 56.5739 60.7092L60.0523 60.9119C60.1896 60.9184 60.7944 60.9903 60.9546 61.059C61.4417 61.1832 61.9811 61.4873 62.4911 61.9123C62.6219 62.0038 63.0731 62.4353 63.1973 62.5563L83.3913 82.7503L60.049 76.4962C59.5652 76.3687 57.79 75.9437 57.329 75.9143C55.5473 75.6234 53.8506 75.7934 52.7423 76.3524L49.6268 77.9151C49.5025 77.9772 48.9468 78.2191 48.7735 78.2355C48.2897 78.3695 47.6652 78.3793 47.0114 78.2649C46.8512 78.2518 46.2497 78.1047 46.0862 78.0622L6.83594 67.5451L1.76538 71.4976L39.1849 81.5243C39.6687 81.6518 41.4472 82.0768 41.9049 82.1062C43.6866 82.3972 45.3833 82.2272 46.4916 81.6681L49.6072 80.1055C49.7314 80.0434 50.2872 79.8014 50.4604 79.7851C50.9443 79.651 51.5654 79.6412 52.2193 79.7556C52.3794 79.7687 52.9875 79.9158 53.1543 79.9616L80.7399 87.3533L57.3977 93.6073C56.9171 93.7381 55.1648 94.2612 54.7496 94.4639C53.0594 95.1046 51.6766 96.0985 50.9966 97.1348L49.0808 100.048C49.0056 100.162 48.6427 100.653 48.5022 100.754C48.1491 101.113 47.6162 101.431 46.9918 101.663C46.8479 101.728 46.2529 101.905 46.0862 101.95L6.83594 112.467L4.41999 118.424L41.8395 108.397C42.3201 108.267 44.0724 107.743 44.4875 107.541C46.1777 106.9 47.5606 105.906 48.2406 104.87L50.1564 101.957C50.2316 101.842 50.5945 101.352 50.735 101.251C51.0881 100.891 51.621 100.574 52.2421 100.345C52.3893 100.277 52.9875 100.103 53.1543 100.054L80.7399 92.6625L63.6517 109.751C63.3019 110.104 62.0433 111.431 61.7883 111.814C60.6473 113.213 59.9444 114.766 59.8725 116.005L59.6698 119.483C59.6633 119.621 59.5914 120.225 59.5227 120.386C59.3985 120.873 59.0944 121.415 58.6662 121.929C58.5746 122.059 58.1464 122.507 58.0254 122.628L29.2922 151.361L30.1782 157.727L57.571 130.334C57.9208 129.981 59.1794 128.65 59.4344 128.268C60.5754 126.868 61.2783 125.316 61.3502 124.076L61.5529 120.598C61.5594 120.461 61.6313 119.856 61.7 119.696C61.8242 119.209 62.1283 118.669 62.5533 118.159C62.6448 118.028 63.0763 117.577 63.1973 117.453L83.3913 97.2591L77.1373 120.601C77.0098 121.085 76.5848 122.86 76.5553 123.321C76.2644 125.103 76.4344 126.8 76.9934 127.908L78.5561 131.024C78.6182 131.148 78.8601 131.704 78.8765 131.877C79.0105 132.361 79.0203 132.985 78.9059 133.639C78.8928 133.799 78.7457 134.397 78.7032 134.564L68.1861 173.814L72.1386 178.885L82.1653 141.465C82.2928 140.982 82.7178 139.203 82.7472 138.745C83.0382 136.964 82.8682 135.267 82.3092 134.159L80.7465 131.043C80.6844 130.919 80.4424 130.363 80.4261 130.19C80.2921 129.706 80.2822 129.085 80.3967 128.431C80.4098 128.271 80.5569 127.663 80.6026 127.496L87.9943 99.9104L94.2484 123.253C94.3791 123.733 94.9022 125.486 95.1049 125.901C95.7457 127.591 96.7395 128.974 97.7758 129.654L100.689 131.57C100.803 131.645 101.294 132.008 101.395 132.148C101.754 132.501 102.072 133.034 102.304 133.659C102.369 133.802 102.546 134.397 102.591 134.564L113.108 173.814L119.065 176.23L109.038 138.811C108.908 138.33 108.384 136.578 108.182 136.163C107.541 134.473 106.547 133.09 105.511 132.41L102.598 130.494C102.484 130.419 101.993 130.056 101.892 129.915C101.532 129.562 101.215 129.029 100.986 128.408C100.918 128.261 100.744 127.663 100.695 127.496L93.3036 99.9104L110.392 116.999C110.745 117.348 112.072 118.607 112.455 118.862C113.854 120.003 115.407 120.706 116.646 120.778L120.124 120.981C120.262 120.987 120.866 121.059 121.027 121.128C121.514 121.252 122.056 121.556 122.57 121.984C122.7 122.076 123.148 122.504 123.269 122.625L152.002 151.358L158.368 150.472L130.975 123.079C130.622 122.73 129.291 121.471 128.909 121.216C127.509 120.075 125.957 119.372 124.717 119.3L121.239 119.097C121.102 119.091 120.497 119.019 120.337 118.95C119.85 118.826 119.31 118.522 118.8 118.097C118.669 118.006 118.218 117.574 118.094 117.453L97.9001 97.2591L121.242 103.513C121.726 103.641 123.501 104.066 123.962 104.095C125.744 104.386 127.441 104.216 128.549 103.657L131.665 102.094C131.789 102.032 132.345 101.79 132.518 101.774C133.002 101.64 133.626 101.63 134.28 101.744C134.44 101.758 135.038 101.905 135.205 101.947L174.455 112.464L179.526 108.512L142.106 98.485C141.623 98.3575 139.844 97.9325 139.386 97.9031C137.605 97.6121 135.908 97.7821 134.8 98.3412L131.684 99.9039C131.56 99.966 131.001 100.208 130.831 100.224C130.347 100.358 129.726 100.368 129.072 100.254C128.912 100.241 128.304 100.093 128.137 100.048L100.551 92.656L123.894 86.402C124.374 86.2712 126.127 85.7481 126.542 85.5454C128.232 84.9047 129.615 83.9108 130.295 82.8745L132.211 79.9616C132.286 79.8472 132.649 79.3568 132.789 79.2555C133.142 78.8958 133.675 78.5787 134.3 78.3466C134.443 78.2812 135.038 78.1047 135.205 78.0589L174.455 67.5418L176.871 61.5853L139.452 71.612C138.971 71.7428 137.219 72.2659 136.804 72.4686C135.114 73.1093 133.731 74.1032 133.051 75.1395L131.135 78.0524C131.06 78.1668 130.697 78.6572 130.556 78.7585C130.203 79.1182 129.67 79.4353 129.049 79.6641C128.902 79.7328 128.304 79.906 128.137 79.9551L100.551 87.3468L117.64 70.2586C117.989 69.9055 119.248 68.5782 119.503 68.1957V68.1924Z" fill="url(#paint2_radial_0_1)"/>
</g>
</g>
</g>
</g>
<g id="Frame 1618875118">
<g id="Frame 1618875112">
<path id="Vector_2" d="M308.527 17.6953V146.925C308.527 155.415 301.647 162.305 293.147 162.305H275.157V106.685H197.287V162.305H163.917V30.5053C163.917 23.4253 169.657 17.6953 176.727 17.6953H197.277V73.3153H275.147V17.6953H308.517H308.527Z" stroke="white" stroke-width="3" stroke-miterlimit="10"/>
<path id="Vector_3" d="M362.897 51.0753V73.2553H474.137V106.645H362.897V128.925H474.137V146.925C474.137 155.415 467.257 162.305 458.757 162.305H329.527V30.5053C329.527 23.4253 335.267 17.6953 342.337 17.6953H474.137V51.0753H362.897Z" stroke="white" stroke-width="3" stroke-miterlimit="10"/>
<path id="Vector_4" d="M639.747 106.645H599.527L639.707 162.305H599.577L559.397 106.645H528.507V162.305H495.137V30.5053C495.137 23.4253 500.877 17.6953 507.947 17.6953H639.737V106.645H639.747ZM606.367 73.2553V51.0753H528.507V73.2553H606.367Z" stroke="white" stroke-width="3" stroke-miterlimit="10"/>
<path id="Vector_5" d="M694.117 51.0753V73.2553H805.357V106.645H694.117V128.925H805.357V146.925C805.357 155.415 798.477 162.305 789.977 162.305H660.747V30.5053C660.747 23.4253 666.487 17.6953 673.557 17.6953H805.357V51.0753H694.117Z" stroke="white" stroke-width="3" stroke-miterlimit="10"/>
</g>
<g id="Frame">
<path id="Vector_6" d="M1007.97 17.6953V146.925C1007.97 155.415 1001.09 162.305 992.587 162.305H863.357V30.5053C863.357 23.4253 869.097 17.6953 876.167 17.6953H896.717V128.935H918.917V30.5053C918.917 23.4253 924.657 17.6953 931.727 17.6953H952.277V128.935H974.567V17.6953H1007.96H1007.97Z" stroke="white" stroke-width="3" stroke-miterlimit="10"/>
<path id="Vector_7" d="M1062.34 51.0753V73.2553H1173.58V106.645H1062.34V128.925H1173.58V146.925C1173.58 155.415 1166.7 162.305 1158.2 162.305H1028.97V30.5053C1028.97 23.4253 1034.71 17.6953 1041.78 17.6953H1173.58V51.0753H1062.34Z" stroke="white" stroke-width="3" stroke-miterlimit="10"/>
</g>
<g id="Frame 1618875114">
<path id="Vector_8" d="M1376.19 73.3153V146.925C1376.19 155.415 1369.31 162.305 1360.81 162.305H1231.58V30.5053C1231.58 23.4253 1237.32 17.6953 1244.39 17.6953H1376.19V51.0653H1264.95V128.935H1342.82V106.685H1303.88V73.3153H1376.19Z" fill="white" stroke="white" stroke-miterlimit="10"/>
<path id="Vector_9" d="M1541.8 106.645H1501.58L1541.76 162.305H1501.63L1461.45 106.645H1430.56V162.305H1397.19V30.5053C1397.19 23.4253 1402.93 17.6953 1410 17.6953H1541.79V106.645H1541.8ZM1508.43 73.2553V51.0753H1430.57V73.2553H1508.43Z" fill="white" stroke="white" stroke-miterlimit="10"/>
<path id="Vector_10" d="M1707.41 17.6953V146.925C1707.41 155.415 1700.53 162.305 1692.03 162.305H1562.8V30.5053C1562.8 23.4253 1568.54 17.6953 1575.61 17.6953H1707.41ZM1674.04 51.0553H1596.17V128.925H1674.04V51.0553Z" fill="white" stroke="white" stroke-miterlimit="10"/>
<path id="Vector_11" d="M1873.02 17.6953V146.925C1873.02 155.415 1866.14 162.305 1857.64 162.305H1728.41V30.5053C1728.41 23.4253 1734.15 17.6953 1741.22 17.6953H1761.77V128.935H1783.97V17.6953H1817.34V128.935H1839.63V17.6953H1873.02Z" fill="white" stroke="white" stroke-miterlimit="10"/>
</g>
<g id="Frame 1618875113">
<path id="Vector_12" d="M1989.75 70.6101L1982.26 83.9101C1981.96 84.4401 1980.59 86.6101 1980.12 86.9601C1978.88 88.4301 1977.16 89.4001 1975.26 89.7401C1974.8 89.9001 1973.01 89.9801 1972.51 89.9901H1947.59L1931.02 119.42H1955.93C1957.36 119.4 1962.62 119.12 1963.92 118.61C1969.09 117.57 1973.67 114.12 1976.34 109.38L1983.83 96.08C1984.13 95.55 1985.5 93.3801 1985.97 93.0301C1987.22 91.5601 1988.94 90.5901 1990.85 90.2501C1991.3 90.1001 1993.08 90.0101 1993.58 90.0101H2018.51L2035.09 60.5801H2010.19C2008.76 60.6001 2003.5 60.8801 2002.2 61.3901C1997.03 62.4301 1992.45 65.8801 1989.78 70.6201L1989.75 70.6101Z" fill="white"/>
<path id="Vector_13" d="M2083.32 65.4249H2064.08L2063.89 59.6749C2063.89 43.7649 2066.28 32.5749 2071.06 26.1049C2075.9 19.5649 2084.01 16.2949 2095.39 16.2949C2116.83 16.2949 2127.55 28.1749 2127.55 51.9449C2127.55 67.9749 2119.53 91.0849 2103.5 121.265L2091.9 143.055C2091.84 143.185 2091.65 143.555 2091.33 144.185C2091.01 144.815 2090.58 145.725 2090.01 146.915H2126.03V163.705H2062.09C2063.16 161.315 2065.39 156.565 2068.78 149.465C2072.17 142.365 2076.8 132.775 2082.64 120.705C2087.61 110.145 2091.76 101.185 2095.09 93.8249C2098.42 86.4649 2100.94 80.4349 2102.64 75.7149C2106.04 66.2849 2107.73 58.1449 2107.73 51.2849C2107.73 39.2149 2103.55 33.1749 2095.19 33.1749C2086.83 33.1749 2083.12 40.6549 2083.12 55.6249L2083.21 63.9249L2083.31 65.4349L2083.32 65.4249Z" fill="white"/>
<path id="Vector_14" d="M2154.56 17.1895H2219.63L2175.49 162.809H2154.55L2195.01 33.7895H2154.55V17.1895H2154.56Z" fill="white"/>
</g>
</g>
</g>
<defs>
<linearGradient id="paint0_linear_0_1" x1="3.05176e-05" y1="90.0016" x2="115.917" y2="90.0016" gradientUnits="userSpaceOnUse">
<stop offset="0.68" stop-color="white"/>
<stop offset="0.84" stop-color="#010101"/>
</linearGradient>
<radialGradient id="paint1_radial_0_1" cx="0" cy="0" r="1" gradientUnits="userSpaceOnUse" gradientTransform="translate(90.6424 90.003) scale(90.6424 90.6424)">
<stop stop-color="white"/>
<stop offset="0.28" stop-color="#FFD886"/>
<stop offset="0.47" stop-color="#F37021"/>
<stop offset="0.53" stop-color="#F37735" stop-opacity="0.95"/>
<stop offset="0.64" stop-color="#F58A6C" stop-opacity="0.83"/>
<stop offset="0.65" stop-color="#F68C71" stop-opacity="0.82"/>
<stop offset="0.9" stop-color="#456B9C" stop-opacity="0.95"/>
<stop offset="1" stop-color="#005FAE"/>
</radialGradient>
<radialGradient id="paint2_radial_0_1" cx="0" cy="0" r="1" gradientUnits="userSpaceOnUse" gradientTransform="translate(90.6434 90.0031) rotate(-45) scale(90.6424)">
<stop offset="0.35" stop-color="#010101" stop-opacity="0"/>
<stop offset="1" stop-color="#005FAE" stop-opacity="0.87"/>
</radialGradient>
</defs>
</svg>
