<svg width="190" height="55" viewBox="0 0 190 55" fill="none" xmlns="http://www.w3.org/2000/svg">
<g clip-path="url(#clip0_71151_144)">
<path d="M54.0309 9.1815L47.1411 21.3268C46.8621 21.8116 45.6069 23.7919 45.1745 24.1104C44.0309 25.4538 42.4549 26.3401 40.6975 26.6448C40.2791 26.7833 38.6334 26.8663 38.1731 26.8663H15.2442L0.000183105 53.7607H22.9151C24.2401 53.7468 29.0658 53.4837 30.2652 53.0128C35.0211 52.0572 39.2331 48.9136 41.6877 44.5789L48.5776 32.4336C48.8566 31.9488 50.1118 29.9685 50.5441 29.65C51.6878 28.3066 53.2777 27.4203 55.0351 27.1018C55.4535 26.9633 57.0853 26.8802 57.5455 26.8802H80.4744L95.7184 -0.000244141H72.8174C71.4925 0.0136046 66.6668 0.276731 65.4674 0.747589C60.6976 1.68931 56.4855 4.84682 54.0309 9.1815Z" fill="#F19749"/>
<path d="M53.9451 48.7901L54.0845 48.7208C57.3202 49.9395 60.7511 50.4796 65.4931 50.4796C70.5699 50.4796 72.7316 49.6764 72.7316 48.4993C72.7316 45.051 53.8334 49.5934 53.8334 41.4502C53.8334 37.9327 57.7386 36.0769 65.2142 36.0769C68.952 36.0769 72.383 36.534 75.5489 37.4618V41.0764L75.4095 41.1179C72.104 40.1485 68.7149 39.636 65.3118 39.636C60.4444 39.636 58.3802 40.2316 58.3802 41.2979C58.3802 44.7462 77.2644 40.3423 77.2644 48.3746C77.2644 52.3076 73.7358 54.0388 65.2003 54.0388C60.8348 54.0388 56.86 53.5125 53.9032 52.5846V48.7901H53.9451Z" fill="#F19749"/>
<path d="M84.9641 36.5901V53.7764H80.4034V36.5901H84.9641Z" fill="#F19749"/>
<path d="M92.4008 45.1069C92.4008 48.4583 95.4965 50.4802 101.536 50.4802C103.363 50.4802 105.134 50.1894 106.836 49.6908V46.5749H96.5013V43.6251H111.383V51.7127C107.979 53.4439 104.953 54.0393 101.355 54.0393C92.8471 54.0393 87.84 50.7295 87.84 45.0654C87.84 39.4012 92.8332 36.0913 101.103 36.0913C105.037 36.0913 108.3 36.8253 111.411 38.4179V42.2679L111.271 42.2956C108.244 40.6476 104.995 39.6505 101.536 39.6505C95.5669 39.6781 92.4008 41.7001 92.4008 45.1069Z" fill="#F19749"/>
<path d="M139.483 36.5901V53.7764H134.211L119.804 41.5618V53.7764H115.243V36.5901H120.041L134.923 49.1647V36.5901H139.483Z" fill="#F19749"/>
<path d="M160.682 50.3137H148.451L146.289 53.762H141.393L152.426 36.5757H157.126L167.6 53.762H162.704L160.682 50.3137ZM158.618 46.8237L154.741 40.2318L150.612 46.8237H158.618Z" fill="#F19749"/>
<path d="M190 50.2727V53.7764H169.764V36.5901H174.324V50.2727H190Z" fill="#F19749"/>
</g>
<defs>
<clipPath id="clip0_71151_144">
<rect width="190" height="54.0517" fill="white"/>
</clipPath>
</defs>
</svg>
