<svg width="225" height="158" viewBox="0 0 225 158" fill="none" xmlns="http://www.w3.org/2000/svg">
<path d="M15.0813 12.6761C14.7504 12.6761 14.4821 12.4078 14.4821 12.0769V10.2814C14.4821 9.44323 14.2426 8.30572 13.7038 7.52742C13.4045 7.10834 12.5064 6.03071 10.5906 6.03071C9.03404 6.03071 8.07615 6.68926 7.47746 7.40769C6.51956 8.60506 6.45969 10.1018 6.45969 11.5386V32.1933C6.45969 33.5703 6.45969 34.8275 7.23798 35.9052C7.65706 36.5039 8.61496 37.4019 10.2913 37.4019C11.6084 37.4019 12.9255 36.9229 13.6439 35.965C13.9433 35.546 14.4821 34.5881 14.4821 32.5525V31.655C14.4821 31.3241 14.7504 31.0558 15.0813 31.0558H19.8698C20.2007 31.0558 20.469 31.3241 20.469 31.655V32.792C20.469 36.9229 19.0321 39.3177 17.9545 40.4552C16.6972 41.8322 14.2426 43.269 10.1117 43.269C6.16035 43.269 3.88534 41.6526 2.56823 40.096C0.469201 37.6471 0.471206 34.8576 0.47274 32.7227L0.472822 10.8202C0.472822 8.06624 0.832034 4.95307 3.52613 2.61819C5.38206 0.941869 8.13601 0.163574 10.3512 0.163574C12.8656 0.163574 15.7992 1.12147 17.5953 2.85766C19.092 4.35438 20.2894 6.86886 20.2894 9.80243V12.0769C20.2894 12.4078 20.0211 12.6761 19.6902 12.6761H15.0813Z" fill="black"/>
<path fill-rule="evenodd" clip-rule="evenodd" d="M27.4789 40.5749C24.6052 37.8809 24.3657 34.8275 24.3657 31.6545V11.7781C24.3657 8.60506 24.6052 5.55176 27.4789 2.85766C29.275 1.18134 31.7296 0.163574 34.8428 0.163574C37.9559 0.163574 40.4106 1.18134 42.2066 2.85766C45.0803 5.55176 45.3198 8.60506 45.3198 11.7781V31.6545C45.3198 34.8275 45.0803 37.8809 42.2066 40.5749C40.4106 42.2513 37.9559 43.269 34.8428 43.269C31.7296 43.269 29.275 42.2513 27.4789 40.5749ZM38.0757 36.2045C39.2132 35.067 39.3329 33.8098 39.3329 32.5525V10.8801C39.3329 9.62282 39.2132 8.36559 38.0757 7.22808C37.4171 6.56953 36.3395 6.03071 34.8428 6.03071C33.3461 6.03071 32.2684 6.56953 31.6099 7.22808C30.4724 8.36559 30.3526 9.62282 30.3526 10.8801V32.5525C30.3526 33.8098 30.4724 35.067 31.6099 36.2045C32.2684 36.8631 33.3461 37.4019 34.8428 37.4019C36.3395 37.4019 37.4171 36.8631 38.0757 36.2045Z" fill="black"/>
<path d="M50.6047 42.0711C50.6047 42.4021 50.873 42.6703 51.2039 42.6703H55.9924C56.3233 42.6703 56.5916 42.4021 56.5916 42.0711V16.6218C56.5916 16.5257 56.6694 16.4479 56.7655 16.4479C56.8404 16.4479 56.9069 16.4958 56.9305 16.5669L63.0408 34.9561C63.1222 35.2011 63.3513 35.3664 63.6095 35.3664H65.9179C66.176 35.3664 66.4051 35.2011 66.4865 34.9561L72.5968 16.5669C72.6205 16.4958 72.687 16.4479 72.7619 16.4479C72.8579 16.4479 72.9358 16.5257 72.9358 16.6218V42.0711C72.9358 42.4021 73.204 42.6703 73.535 42.6703H78.3234C78.6544 42.6703 78.9226 42.4021 78.9226 42.0711V1.36147C78.9226 1.03054 78.6544 0.76226 78.3234 0.76226H73.3652C73.1085 0.76226 72.8802 0.925799 72.7977 1.1689L65.1318 23.7572C65.1086 23.8256 65.0444 23.8716 64.9722 23.8716C64.901 23.8716 64.8375 23.8268 64.8135 23.7598L56.7337 1.15975C56.6485 0.921367 56.4226 0.76226 56.1695 0.76226H51.2039C50.873 0.76226 50.6047 1.03054 50.6047 1.36147V42.0711Z" fill="black"/>
<path d="M84.3356 42.6703C84.0047 42.6703 83.7364 42.4021 83.7364 42.0711V1.36147C83.7364 1.03054 84.0047 0.76226 84.3356 0.76226H89.3011C89.5543 0.76226 89.7802 0.921367 89.8654 1.15975L97.9452 23.7598C97.9692 23.8268 98.0327 23.8716 98.1039 23.8716C98.1761 23.8716 98.2403 23.8256 98.2635 23.7572L105.929 1.1689C106.012 0.925799 106.24 0.76226 106.497 0.76226H111.455C111.786 0.76226 112.054 1.03054 112.054 1.36147V42.0711C112.054 42.4021 111.786 42.6703 111.455 42.6703H106.667C106.336 42.6703 106.067 42.4021 106.067 42.0711V16.6218C106.067 16.5257 105.99 16.4479 105.894 16.4479C105.819 16.4479 105.752 16.4958 105.729 16.5669L99.6182 34.9561C99.5368 35.2011 99.3077 35.3664 99.0496 35.3664H96.7412C96.483 35.3664 96.2539 35.2011 96.1725 34.9561L90.0622 16.5669C90.0386 16.4958 89.9721 16.4479 89.8972 16.4479C89.8011 16.4479 89.7233 16.5257 89.7233 16.6217V42.0711C89.7233 42.4021 89.455 42.6703 89.1241 42.6703H84.3356Z" fill="black"/>
<path d="M117.467 0.76226C117.136 0.76226 116.868 1.03054 116.868 1.36147V31.6545C116.868 40.8743 122.376 43.269 126.866 43.269C131.356 43.269 136.864 40.8743 136.864 31.6545V1.36147C136.864 1.03054 136.596 0.76226 136.265 0.76226H131.477C131.146 0.76226 130.877 1.03054 130.877 1.36147V32.5525C130.877 35.4262 129.5 37.4019 126.866 37.4019C124.232 37.4019 122.855 35.4262 122.855 32.5525V1.36147C122.855 1.03054 122.587 0.76226 122.256 0.76226H117.467Z" fill="black"/>
<path d="M141.698 1.36147C141.698 1.03054 141.966 0.76226 142.297 0.76226H147.271C147.52 0.76226 147.743 0.916132 147.831 1.14884L157.509 26.6463C157.544 26.7396 157.683 26.7142 157.683 26.6144V1.36147C157.683 1.03054 157.951 0.76226 158.282 0.76226H163.07C163.401 0.76226 163.67 1.03054 163.67 1.36147V42.0711C163.67 42.4021 163.401 42.6703 163.07 42.6703H158.096C157.847 42.6703 157.624 42.5165 157.536 42.2838L147.858 16.7863C147.823 16.693 147.685 16.7184 147.685 16.8182V42.0711C147.685 42.4021 147.416 42.6703 147.085 42.6703H142.297C141.966 42.6703 141.698 42.4021 141.698 42.0711V1.36147Z" fill="black"/>
<path d="M169.114 0.76226C168.783 0.76226 168.515 1.03054 168.515 1.36147V42.0711C168.515 42.4021 168.783 42.6703 169.114 42.6703H173.903C174.234 42.6703 174.502 42.4021 174.502 42.0711V1.36147C174.502 1.03054 174.234 0.76226 173.903 0.76226H169.114Z" fill="black"/>
<path d="M178.557 1.36147C178.557 1.03054 178.825 0.76226 179.156 0.76226H198.792C199.123 0.76226 199.391 1.03054 199.391 1.36147V5.85058C199.391 6.18152 199.123 6.44979 198.792 6.44979H192.566C192.235 6.44979 191.967 6.71807 191.967 7.049V42.0711C191.967 42.4021 191.699 42.6703 191.368 42.6703H186.58C186.249 42.6703 185.98 42.4021 185.98 42.0711V7.049C185.98 6.71807 185.712 6.44979 185.381 6.44979H179.156C178.825 6.44979 178.557 6.18152 178.557 5.85058V1.36147Z" fill="black"/>
<path d="M224.436 1.56591C224.578 1.17517 224.289 0.76226 223.873 0.76226H218.825C218.562 0.76226 218.329 0.934331 218.252 1.18627L213.346 17.2334C213.314 17.3358 213.22 17.4058 213.113 17.4058C213.006 17.4058 212.912 17.3366 212.88 17.2349L207.857 1.18251C207.778 0.932473 207.547 0.76226 207.285 0.76226H201.997C201.58 0.76226 201.291 1.17629 201.434 1.56726L209.849 24.5803C209.909 24.7451 209.94 24.9193 209.94 25.0948V42.0711C209.94 42.4021 210.209 42.6703 210.54 42.6703H215.328C215.659 42.6703 215.927 42.4021 215.927 42.0711V25.2725C215.927 25.0982 215.958 24.9253 216.017 24.7614L224.436 1.56591Z" fill="black"/>
<path fill-rule="evenodd" clip-rule="evenodd" d="M55.8362 129.483C55.8362 137.074 56.4091 144.379 63.2846 150.825C67.5817 154.836 73.4545 157.271 80.9028 157.271C88.3512 157.271 94.224 154.836 98.5211 150.825C105.397 144.379 105.969 137.074 105.969 129.483V81.9275C105.969 74.3359 105.397 67.0308 98.5211 60.5851C94.224 56.5744 88.3512 54.1394 80.9028 54.1394C73.4545 54.1394 67.5817 56.5744 63.2846 60.5851C56.4091 67.0308 55.8362 74.3359 55.8362 81.9275V129.483ZM91.6457 131.631C91.6457 134.639 91.3592 137.647 88.6377 140.369C87.0621 141.944 84.4838 143.233 80.9028 143.233C77.3219 143.233 74.7436 141.944 73.168 140.369C70.4465 137.647 70.16 134.639 70.16 131.631V79.779C70.16 76.771 70.4465 73.763 73.168 71.0415C74.7436 69.4658 77.3219 68.1767 80.9028 68.1767C84.4838 68.1767 87.0621 69.4658 88.6377 71.0415C91.3592 73.763 91.6457 76.771 91.6457 79.779V131.631Z" fill="black"/>
<path fill-rule="evenodd" clip-rule="evenodd" d="M2.08337 55.5717C1.2916 55.5717 0.649736 56.2136 0.649736 57.0054V154.405C0.649736 155.196 1.29159 155.838 2.08336 155.838H22.4219C31.0162 155.838 36.316 153.547 39.4672 151.112C48.0615 144.666 48.0615 134.353 48.0615 130.199V122.607C48.0615 117.737 48.0615 115.016 45.1967 110.002C43.9076 107.854 42.1888 105.419 38.3213 103.7C39.7537 102.84 41.9023 101.408 43.7644 99.1161C47.4886 94.6757 48.0615 90.0921 48.0615 83.5032C48.0615 77.6304 47.9183 66.8875 38.8943 60.4418C32.5918 56.0015 24.284 55.5717 19.9869 55.5717H2.08337ZM14.9735 69.8968C14.9735 69.1051 15.6154 68.4632 16.4072 68.4632H21.7057C26.4326 68.4632 29.2973 70.0388 31.0162 71.7576C32.5918 73.4765 33.7377 76.0548 33.7377 78.6331V84.7923C33.7377 87.9435 32.735 91.3812 31.0162 93.3866C29.5838 95.1054 26.719 97.1108 21.849 97.1108H16.4072C15.6154 97.1108 14.9735 96.4689 14.9735 95.6771V69.8968ZM14.9735 111.436C14.9735 110.644 15.6154 110.002 16.4072 110.002H22.2787C25.4299 110.002 27.5785 110.718 29.8703 112.58C33.0215 115.302 33.7377 118.74 33.7377 123.61V128.337C33.7377 130.056 33.5945 135.212 31.1594 138.507C28.1514 142.66 23.5678 142.947 21.4192 142.947H16.4072C15.6154 142.947 14.9735 142.305 14.9735 141.513V111.436Z" fill="black"/>
<path d="M149.039 83.3599C148.247 83.3599 147.605 82.7181 147.605 81.9263V80.6384C147.605 78.4898 147.462 74.3359 145.17 71.4712C143.881 69.8956 141.732 68.1767 137.579 68.1767C135.573 68.1767 132.852 68.6064 130.56 70.8982C127.838 73.763 127.552 77.7736 127.552 81.0681C127.552 83.7896 127.982 88.803 129.844 91.5245C131.419 93.9595 134.284 95.1054 136.433 95.9649L145.17 99.1161C149.467 100.692 154.481 102.554 158.205 107.71C162.072 113.01 162.502 118.74 162.502 125.042V128.48C162.502 138.65 159.78 146.385 155.627 150.682C151.902 154.549 145.313 157.271 137.006 157.271C126.836 157.271 120.247 153.117 116.952 148.533C112.369 142.374 112.369 132.92 112.369 131.631V129.77C112.369 128.978 113.011 128.337 113.802 128.337H125.259C126.051 128.337 126.692 128.978 126.692 129.77V131.058C126.692 133.35 126.979 137.361 128.984 139.939C131.419 142.947 135 143.233 136.862 143.233C142.305 143.233 144.74 141.085 145.886 139.652C148.035 136.931 148.178 132.777 148.178 129.769V126.045C148.178 122.607 147.748 118.31 145.886 115.732C144.024 113.153 140.587 111.864 139.011 111.291L128.555 107.567C123.398 105.705 118.241 103.127 115.377 96.3946C113.371 91.811 113.228 86.7977 113.228 81.7843V78.9195C113.228 70.6117 116.523 64.3093 120.676 60.2986C125.403 55.715 131.419 54.1394 138.008 54.1394C152.332 54.1394 161.929 63.4498 161.929 80.0654V81.9263C161.929 82.7181 161.287 83.3599 160.495 83.3599H149.039Z" fill="black"/>
<path d="M204.345 81.9263C204.345 82.7181 204.987 83.3599 205.778 83.3599H217.235C218.027 83.3599 218.669 82.7181 218.669 81.9263V80.0654C218.669 63.4498 209.072 54.1394 194.748 54.1394C188.159 54.1394 182.143 55.715 177.416 60.2986C173.262 64.3093 169.968 70.6117 169.968 78.9195V81.7843C169.968 86.7977 170.111 91.811 172.116 96.3946C174.981 103.127 180.138 105.705 185.294 107.567L195.75 111.291C197.326 111.864 200.764 113.153 202.626 115.732C204.488 118.31 204.918 122.607 204.918 126.045V129.769C204.918 132.777 204.774 136.931 202.626 139.652C201.48 141.085 199.045 143.233 193.602 143.233C191.74 143.233 188.159 142.947 185.724 139.939C183.718 137.361 183.432 133.35 183.432 131.058V129.77C183.432 128.978 182.79 128.337 181.998 128.337H170.542C169.75 128.337 169.108 128.978 169.108 129.77V131.631C169.108 132.92 169.108 142.374 173.692 148.533C176.986 153.117 183.575 157.271 193.745 157.271C202.053 157.271 208.642 154.549 212.366 150.682C216.52 146.385 219.242 138.65 219.242 128.48V125.042C219.242 118.74 218.812 113.01 214.944 107.71C211.22 102.554 206.207 100.692 201.91 99.1161L193.172 95.9649C191.024 95.1054 188.159 93.9595 186.583 91.5245C184.721 88.803 184.291 83.7896 184.291 81.0681C184.291 77.7736 184.578 73.763 187.299 70.8982C189.591 68.6064 192.313 68.1767 194.318 68.1767C198.472 68.1767 200.621 69.8956 201.91 71.4712C204.202 74.3359 204.345 78.4898 204.345 80.6384V81.9263Z" fill="black"/>
</svg>
