<?xml version="1.0" encoding="UTF-8" standalone="no"?>
<!DOCTYPE svg PUBLIC "-//W3C//DTD SVG 1.1//EN" "http://www.w3.org/Graphics/SVG/1.1/DTD/svg11.dtd">
<svg width="100%" height="100%" viewBox="0 0 562 369" version="1.1" xmlns="http://www.w3.org/2000/svg" xmlns:xlink="http://www.w3.org/1999/xlink" xml:space="preserve" xmlns:serif="http://www.serif.com/" style="fill-rule:evenodd;clip-rule:evenodd;stroke-linejoin:round;stroke-miterlimit:2;">
    <g transform="matrix(1,0,0,1,-1088.04,-554.897)">
        <g transform="matrix(8.33334,0,0,8.33334,1087.18,542.976)">
            <path d="M15.96,37.7L15.96,24.078C15.96,21.904 16.124,19.812 18.094,17.965C19.324,16.817 21.006,16.119 23.14,16.119C25.273,16.119 26.955,16.817 28.186,17.965C30.155,19.812 30.32,21.904 30.32,24.078L30.32,37.7C30.32,39.874 30.155,41.966 28.186,43.813C26.955,44.961 25.273,45.659 23.14,45.659C21.006,45.659 19.324,44.961 18.094,43.813C16.124,41.966 15.96,39.874 15.96,37.7ZM26.217,38.315L26.217,23.463C26.217,22.602 26.135,21.74 25.355,20.96C24.904,20.509 24.165,20.14 23.14,20.14C22.114,20.14 21.376,20.509 20.924,20.96C20.145,21.74 20.063,22.602 20.063,23.463L20.063,38.315C20.063,39.177 20.145,40.038 20.924,40.818C21.376,41.269 22.114,41.638 23.14,41.638C24.165,41.638 24.904,41.269 25.355,40.818C26.135,40.038 26.217,39.177 26.217,38.315ZM0.564,16.529L5.692,16.529C6.923,16.529 9.302,16.653 11.107,17.924C13.692,19.771 13.733,22.848 13.733,24.53C13.733,26.417 13.569,27.73 12.502,29.002C11.969,29.658 11.353,30.069 10.943,30.315C12.051,30.807 12.543,31.504 12.913,32.12C13.733,33.556 13.733,34.335 13.733,35.73L13.733,37.905C13.733,39.094 13.733,42.048 11.272,43.895C10.369,44.592 8.851,45.249 6.389,45.249L0.564,45.249C0.337,45.249 0.153,45.065 0.153,44.838L0.153,16.94C0.153,16.713 0.337,16.529 0.564,16.529ZM4.256,20.633L4.256,28.017C4.256,28.244 4.44,28.427 4.666,28.427L6.225,28.427C7.62,28.427 8.441,27.853 8.851,27.361C9.343,26.786 9.63,25.802 9.63,24.899L9.63,23.135C9.63,22.396 9.302,21.658 8.851,21.166C8.359,20.673 7.538,20.222 6.184,20.222L4.666,20.222C4.44,20.222 4.256,20.406 4.256,20.633ZM4.256,32.531L4.256,41.146C4.256,41.372 4.44,41.556 4.666,41.556L6.102,41.556C6.717,41.556 8.03,41.474 8.892,40.284C9.589,39.341 9.63,37.864 9.63,37.371L9.63,36.018C9.63,34.623 9.425,33.638 8.523,32.858C7.866,32.325 7.251,32.12 6.348,32.12L4.666,32.12C4.44,32.12 4.256,32.304 4.256,32.531ZM42.656,24.489C42.429,24.489 42.245,24.305 42.245,24.078L42.245,23.709C42.245,23.094 42.204,21.904 41.548,21.084C41.179,20.632 40.563,20.14 39.373,20.14C38.799,20.14 38.019,20.263 37.363,20.919C36.583,21.74 36.501,22.889 36.501,23.832C36.501,24.612 36.624,26.048 37.158,26.827C37.609,27.525 38.43,27.853 39.045,28.099L41.548,29.002C42.779,29.453 44.215,29.986 45.281,31.463C46.389,32.981 46.512,34.623 46.512,36.428L46.512,37.412C46.512,40.325 45.733,42.541 44.543,43.772C43.476,44.879 41.589,45.659 39.209,45.659C36.296,45.659 34.409,44.469 33.465,43.156C32.153,41.392 32.153,38.684 32.153,38.315L32.153,37.782C32.153,37.555 32.336,37.371 32.563,37.371L35.845,37.371C36.072,37.371 36.255,37.555 36.255,37.782L36.255,38.151C36.255,38.807 36.337,39.956 36.912,40.695C37.609,41.556 38.635,41.638 39.168,41.638C40.727,41.638 41.425,41.023 41.753,40.613C42.368,39.833 42.409,38.643 42.409,37.782L42.409,36.715C42.409,35.73 42.286,34.5 41.753,33.761C41.22,33.023 40.235,32.653 39.784,32.489L36.789,31.422C35.312,30.889 33.835,30.151 33.014,28.222C32.44,26.909 32.399,25.473 32.399,24.037L32.399,23.217C32.399,20.837 33.342,19.032 34.532,17.883C35.886,16.57 37.609,16.119 39.497,16.119C43.599,16.119 46.348,18.786 46.348,23.545L46.348,24.078C46.348,24.305 46.164,24.489 45.937,24.489L42.656,24.489ZM58.497,24.078L58.497,23.709C58.497,23.094 58.456,21.904 57.8,21.084C57.43,20.632 56.815,20.14 55.625,20.14C55.051,20.14 54.271,20.263 53.615,20.919C52.835,21.74 52.753,22.889 52.753,23.832C52.753,24.612 52.876,26.048 53.41,26.827C53.861,27.525 54.682,27.853 55.297,28.099L57.8,29.002C59.03,29.453 60.466,29.986 61.533,31.463C62.641,32.981 62.764,34.623 62.764,36.428L62.764,37.412C62.764,40.325 61.984,42.541 60.795,43.772C59.728,44.879 57.841,45.659 55.461,45.659C52.548,45.659 50.661,44.469 49.717,43.156C48.404,41.392 48.404,38.684 48.404,38.315L48.404,37.782C48.404,37.555 48.588,37.371 48.815,37.371L52.096,37.371C52.323,37.371 52.507,37.555 52.507,37.782L52.507,38.151C52.507,38.807 52.589,39.956 53.164,40.695C53.861,41.556 54.887,41.638 55.42,41.638C56.979,41.638 57.677,41.023 58.005,40.613C58.62,39.833 58.661,38.643 58.661,37.782L58.661,36.715C58.661,35.73 58.538,34.5 58.005,33.761C57.471,33.023 56.487,32.653 56.036,32.489L53.04,31.422C51.563,30.889 50.086,30.151 49.266,28.222C48.692,26.909 48.651,25.473 48.651,24.037L48.651,23.217C48.651,20.837 49.594,19.032 50.784,17.883C52.138,16.57 53.861,16.119 55.748,16.119C59.851,16.119 62.6,18.786 62.6,23.545L62.6,24.078C62.6,24.305 62.416,24.489 62.189,24.489L58.908,24.489C58.681,24.489 58.497,24.305 58.497,24.078ZM4.025,4.791C3.937,4.791 3.864,4.718 3.864,4.63L3.864,4.147C3.864,3.922 3.8,3.617 3.655,3.408C3.575,3.295 3.334,3.006 2.82,3.006C2.402,3.006 2.144,3.183 1.984,3.376C1.726,3.697 1.71,4.099 1.71,4.485L1.71,10.031C1.71,10.401 1.71,10.739 1.919,11.028C2.032,11.189 2.289,11.43 2.739,11.43C3.093,11.43 3.446,11.301 3.639,11.044C3.72,10.932 3.864,10.674 3.864,10.128L3.864,9.887C3.864,9.798 3.937,9.726 4.025,9.726L5.311,9.726C5.4,9.726 5.472,9.798 5.472,9.887L5.472,10.192C5.472,11.301 5.086,11.945 4.797,12.25C4.459,12.62 3.8,13.006 2.691,13.006C1.63,13.006 1.019,12.572 0.665,12.154C0.102,11.496 0.102,10.747 0.103,10.174L0.103,10.128L0.103,4.292C0.103,3.553 0.199,2.717 0.922,2.09C1.421,1.64 2.16,1.431 2.755,1.431C3.43,1.431 4.218,1.688 4.7,2.154C5.102,2.556 5.424,3.231 5.424,4.019L5.424,4.63C5.424,4.718 5.352,4.791 5.263,4.791L4.025,4.791ZM7.862,12.282C7.09,11.559 7.026,10.739 7.026,9.887L7.026,4.549C7.026,3.697 7.09,2.877 7.862,2.154C8.344,1.704 9.003,1.431 9.839,1.431C10.675,1.431 11.335,1.704 11.817,2.154C12.588,2.877 12.653,3.697 12.653,4.549L12.653,9.887C12.653,10.739 12.588,11.559 11.817,12.282C11.335,12.732 10.675,13.006 9.839,13.006C9.003,13.006 8.344,12.732 7.862,12.282ZM10.708,11.109C11.013,10.803 11.045,10.466 11.045,10.128L11.045,4.308C11.045,3.971 11.013,3.633 10.708,3.328C10.531,3.151 10.241,3.006 9.839,3.006C9.437,3.006 9.148,3.151 8.971,3.328C8.666,3.633 8.634,3.971 8.634,4.308L8.634,10.128C8.634,10.466 8.666,10.803 8.971,11.109C9.148,11.285 9.437,11.43 9.839,11.43C10.241,11.43 10.531,11.285 10.708,11.109ZM14.207,12.684L14.207,1.752C14.207,1.663 14.279,1.591 14.368,1.591L15.701,1.591C15.769,1.591 15.83,1.634 15.852,1.698L18.022,7.767C18.029,7.785 18.046,7.797 18.065,7.797C18.084,7.797 18.101,7.784 18.108,7.766L20.166,1.7C20.188,1.635 20.25,1.591 20.318,1.591L21.65,1.591C21.739,1.591 21.811,1.663 21.811,1.752L21.811,12.684C21.811,12.773 21.739,12.845 21.65,12.845L20.364,12.845C20.275,12.845 20.203,12.773 20.203,12.684L20.203,5.85C20.203,5.824 20.182,5.803 20.156,5.803C20.136,5.803 20.118,5.816 20.112,5.835L18.471,10.773C18.45,10.839 18.388,10.883 18.319,10.883L17.699,10.883C17.629,10.883 17.568,10.839 17.546,10.773L15.905,5.835C15.899,5.816 15.881,5.803 15.861,5.803C15.835,5.803 15.814,5.824 15.814,5.85L15.814,12.684C15.814,12.773 15.742,12.845 15.653,12.845L14.368,12.845C14.279,12.845 14.207,12.773 14.207,12.684ZM23.526,12.845C23.437,12.845 23.365,12.773 23.365,12.684L23.365,1.752C23.365,1.663 23.437,1.591 23.526,1.591L24.859,1.591C24.927,1.591 24.988,1.634 25.011,1.698L27.18,7.767C27.187,7.785 27.204,7.797 27.223,7.797C27.242,7.797 27.259,7.784 27.266,7.766L29.324,1.7C29.346,1.635 29.408,1.591 29.477,1.591L30.808,1.591C30.897,1.591 30.969,1.663 30.969,1.752L30.969,12.684C30.969,12.773 30.897,12.845 30.808,12.845L29.522,12.845C29.433,12.845 29.361,12.773 29.361,12.684L29.361,5.85C29.361,5.824 29.34,5.803 29.315,5.803C29.294,5.803 29.277,5.816 29.27,5.835L27.629,10.773C27.608,10.839 27.546,10.883 27.477,10.883L26.857,10.883C26.788,10.883 26.726,10.839 26.704,10.773L25.063,5.835C25.057,5.816 25.039,5.803 25.019,5.803C24.993,5.803 24.972,5.824 24.972,5.85L24.972,12.684C24.972,12.773 24.9,12.845 24.811,12.845L23.526,12.845ZM32.684,1.591L33.97,1.591C34.058,1.591 34.13,1.663 34.13,1.752L34.13,10.128C34.13,10.9 34.5,11.43 35.208,11.43C35.915,11.43 36.285,10.9 36.285,10.128L36.285,1.752C36.285,1.663 36.357,1.591 36.446,1.591L37.731,1.591C37.82,1.591 37.892,1.663 37.892,1.752L37.892,9.887C37.892,12.362 36.413,13.006 35.208,13.006C34.002,13.006 32.523,12.362 32.523,9.887L32.523,1.752C32.523,1.663 32.595,1.591 32.684,1.591ZM39.446,1.752C39.446,1.663 39.518,1.591 39.607,1.591L40.943,1.591C41.01,1.591 41.07,1.633 41.093,1.695L43.692,8.542C43.702,8.567 43.739,8.56 43.739,8.533L43.739,1.752C43.739,1.663 43.811,1.591 43.9,1.591L45.186,1.591C45.274,1.591 45.346,1.663 45.346,1.752L45.346,12.684C45.346,12.773 45.274,12.845 45.186,12.845L43.85,12.845C43.783,12.845 43.723,12.803 43.699,12.741L41.101,5.894C41.091,5.869 41.054,5.876 41.054,5.903L41.054,12.684C41.054,12.773 40.982,12.845 40.893,12.845L39.607,12.845C39.518,12.845 39.446,12.773 39.446,12.684L39.446,1.752ZM47.061,1.591L48.347,1.591C48.436,1.591 48.508,1.663 48.508,1.752L48.508,12.684C48.508,12.773 48.436,12.845 48.347,12.845L47.061,12.845C46.972,12.845 46.9,12.773 46.9,12.684L46.9,1.752C46.9,1.663 46.972,1.591 47.061,1.591ZM50.062,1.752C50.062,1.663 50.134,1.591 50.223,1.591L55.496,1.591C55.584,1.591 55.656,1.663 55.656,1.752L55.656,2.958C55.656,3.047 55.584,3.119 55.496,3.119L53.824,3.119C53.735,3.119 53.663,3.191 53.663,3.279L53.663,12.684C53.663,12.773 53.591,12.845 53.502,12.845L52.216,12.845C52.127,12.845 52.055,12.773 52.055,12.684L52.055,3.279C52.055,3.191 51.983,3.119 51.894,3.119L50.223,3.119C50.134,3.119 50.062,3.047 50.062,2.958L50.062,1.752ZM62.825,1.807L60.564,8.036C60.548,8.08 60.54,8.126 60.54,8.173L60.54,12.684C60.54,12.773 60.468,12.845 60.379,12.845L59.093,12.845C59.004,12.845 58.932,12.773 58.932,12.684L58.932,8.125C58.932,8.078 58.924,8.031 58.908,7.987L56.648,1.807C56.609,1.702 56.687,1.591 56.799,1.591L58.219,1.591C58.289,1.591 58.352,1.637 58.373,1.704L59.722,6.015C59.73,6.042 59.755,6.061 59.784,6.061C59.813,6.061 59.838,6.042 59.846,6.014L61.164,1.705C61.185,1.637 61.247,1.591 61.318,1.591L62.673,1.591C62.785,1.591 62.863,1.702 62.825,1.807ZM63.962,43.326L63.962,45.255L63.54,45.255L63.54,43.326L62.782,43.326L62.782,42.977L64.72,42.977L64.72,43.326L63.962,43.326ZM67.519,42.977L67.519,45.255L67.139,45.255L67.139,43.65L67.129,43.65L66.43,45.236L66.14,45.236L65.444,43.65L65.432,43.65L65.432,45.255L65.051,45.255L65.051,42.977L65.538,42.977L66.28,44.68L66.293,44.68L67.033,42.977L67.519,42.977Z"/>
        </g>
    </g>
</svg>
