<?xml version="1.0" encoding="utf-8"?>
<!-- Generator: Adobe Illustrator 28.3.0, SVG Export Plug-In . SVG Version: 6.00 Build 0)  -->
<svg version="1.1" id="Layer_1" xmlns="http://www.w3.org/2000/svg" xmlns:xlink="http://www.w3.org/1999/xlink" x="0px" y="0px"
	 viewBox="0 0 400 85" style="enable-background:new 0 0 400 85;" xml:space="preserve">
<style type="text/css">
	.st0{fill:#D6190D;}
	.st1{fill:#FFFFFF;}
</style>
<g>
	<g>
		<g>
			<path class="st0" d="M278.6,60.7h4l3.9,14.8h0.1l4.6-14.8h3.6l4.5,14.8h0.1l4-14.8h3.7l-6,20.6h-3.5l-4.8-15.6h-0.1L288,81.2
				h-3.4L278.6,60.7z"/>
			<path class="st0" d="M313.2,60.7h7.1c1,0,1.9,0.1,2.9,0.3c0.9,0.2,1.7,0.5,2.5,0.9c0.7,0.4,1.3,1,1.7,1.8
				c0.4,0.8,0.6,1.7,0.6,2.9c0,1.5-0.4,2.7-1.2,3.7c-0.8,1-2,1.6-3.5,1.8l5.5,9.1h-4.4l-4.8-8.7h-2.7v8.7h-3.7V60.7z M319.7,69.4
				c0.5,0,1,0,1.6-0.1c0.5,0,1-0.2,1.4-0.3c0.4-0.2,0.8-0.5,1.1-0.8c0.3-0.4,0.4-0.9,0.4-1.6c0-0.6-0.1-1.1-0.4-1.5
				c-0.3-0.4-0.6-0.6-1-0.8c-0.4-0.2-0.9-0.3-1.3-0.4c-0.5-0.1-1-0.1-1.4-0.1h-3.2v5.6H319.7z"/>
			<path class="st0" d="M343,60.7h3.2l8.9,20.6h-4.2l-1.9-4.7H340l-1.9,4.7h-4.1L343,60.7z M347.7,73.4l-3.2-8.4l-3.2,8.4H347.7z"/>
			<path class="st0" d="M361.2,60.7h6.9c1,0,1.9,0.1,2.9,0.3c0.9,0.2,1.7,0.5,2.4,1c0.7,0.5,1.3,1.1,1.7,1.8
				c0.4,0.8,0.6,1.7,0.6,2.9c0,1.3-0.2,2.3-0.7,3.1c-0.4,0.8-1,1.4-1.8,1.8c-0.8,0.4-1.6,0.7-2.6,0.9c-1,0.2-2,0.2-3.1,0.2h-2.6v8.5
				h-3.7V60.7z M367.1,69.6c0.5,0,1.1,0,1.6-0.1c0.6,0,1.1-0.2,1.6-0.3c0.5-0.2,0.9-0.5,1.2-0.9c0.3-0.4,0.5-0.9,0.5-1.6
				c0-0.6-0.1-1.1-0.4-1.5c-0.3-0.4-0.6-0.7-1-0.9c-0.4-0.2-0.9-0.3-1.4-0.4c-0.5-0.1-1-0.1-1.5-0.1h-2.6v5.8H367.1z"/>
			<path class="st0" d="M392.7,65.1c-0.4-0.6-0.9-1-1.6-1.2c-0.6-0.3-1.3-0.4-2-0.4c-0.4,0-0.8,0-1.2,0.1c-0.4,0.1-0.8,0.3-1.1,0.5
				c-0.3,0.2-0.6,0.5-0.8,0.8c-0.2,0.3-0.3,0.7-0.3,1.2c0,0.7,0.2,1.2,0.7,1.6c0.5,0.4,1.1,0.7,1.8,1c0.7,0.3,1.5,0.5,2.4,0.8
				c0.9,0.3,1.6,0.6,2.4,1c0.7,0.4,1.3,1,1.8,1.8c0.5,0.7,0.7,1.7,0.7,2.9c0,1.1-0.2,2.1-0.6,2.9c-0.4,0.8-1,1.5-1.6,2
				c-0.7,0.5-1.5,0.9-2.4,1.2c-0.9,0.3-1.9,0.4-2.9,0.4c-1.3,0-2.5-0.2-3.7-0.6c-1.2-0.4-2.2-1.1-3-2.1l2.8-2.7
				c0.4,0.7,1,1.2,1.8,1.6c0.7,0.4,1.5,0.6,2.3,0.6c0.4,0,0.9-0.1,1.3-0.2c0.4-0.1,0.8-0.3,1.2-0.5c0.3-0.2,0.6-0.5,0.8-0.9
				c0.2-0.4,0.3-0.8,0.3-1.2c0-0.8-0.2-1.3-0.7-1.7c-0.5-0.4-1.1-0.7-1.8-1c-0.7-0.3-1.5-0.5-2.4-0.8c-0.9-0.3-1.6-0.6-2.4-1
				c-0.7-0.4-1.3-1-1.8-1.7c-0.5-0.7-0.7-1.7-0.7-2.9c0-1.1,0.2-2,0.7-2.8c0.4-0.8,1-1.4,1.7-1.9c0.7-0.5,1.5-0.9,2.4-1.1
				c0.9-0.3,1.8-0.4,2.8-0.4c1.1,0,2.1,0.2,3.1,0.5c1,0.3,1.9,0.9,2.7,1.6L392.7,65.1z"/>
		</g>
	</g>
	<path class="st1" d="M35.5,29.2c1.9-2.3,2.8-5.2,2.8-8.6c0-2.6-0.5-4.9-1.5-6.6c-1-1.7-2.3-3.1-3.9-4.1c-1.6-1-3.5-1.7-5.6-2.2
		c-2.1-0.4-4.3-0.6-6.5-0.6H4.4V54H13V34.2h5.9L29.7,54H40L27.6,33.4C31,32.8,33.6,31.4,35.5,29.2z M13,14.5H20c1,0,2.1,0.1,3.3,0.2
		c1.1,0.1,2.1,0.4,3,0.8c0.9,0.4,1.6,1,2.2,1.8c0.6,0.8,0.8,1.9,0.8,3.2c0,1.5-0.3,2.7-0.9,3.5c-0.6,0.8-1.4,1.5-2.4,1.9
		c-1,0.4-2.1,0.7-3.2,0.8c-1.2,0.1-2.4,0.2-3.6,0.2H13V14.5z"/>
	<polygon class="st1" points="52.2,33.8 73.7,33.8 73.7,26.1 52.2,26.1 52.2,14.8 74.9,14.8 74.9,7.1 43.7,7.1 43.7,54 76,54 
		76,46.3 52.2,46.3 	"/>
	<path class="st1" d="M233.6,36.5c0,1.1-0.2,2.3-0.5,3.6c-0.3,1.2-0.9,2.4-1.7,3.4c-0.8,1-1.9,1.9-3.2,2.6c-1.3,0.7-3,1-4.9,1
		c-2,0-3.6-0.3-4.9-1c-1.3-0.7-2.4-1.5-3.2-2.6c-0.8-1-1.4-2.2-1.7-3.4c-0.3-1.2-0.5-2.4-0.5-3.6V7.1h-8.5v29.7
		c0,2.8,0.5,5.4,1.4,7.7c0.9,2.3,2.3,4.2,4,5.8c1.7,1.6,3.7,2.8,6,3.7c2.3,0.9,4.8,1.3,7.5,1.3c2.7,0,5.2-0.4,7.5-1.3
		c2.3-0.9,4.3-2.1,6-3.7c1.7-1.6,3-3.5,4-5.8c1-2.3,1.5-4.8,1.5-7.7V7.1h-8.5V36.5z"/>
	<polygon class="st1" points="244.8,14.8 259.1,14.8 259.1,54 267.6,54 267.6,14.8 281.9,14.8 281.9,7.1 244.8,7.1 	"/>
	<rect x="284.6" y="7.1" class="st1" width="8.5" height="46.9"/>
	<polygon class="st1" points="387,7.1 387,41.7 364.4,7.2 364.4,7.1 353.2,7.1 353.2,54 361.8,54 361.8,18.3 384.8,54 395.5,54 
		395.5,7.1 	"/>
	<path class="st1" d="M321,6c-6.6,0.6-12.5,3.7-16.7,8.7c-4.2,5-6.2,11.4-5.7,18s3.7,12.5,8.7,16.7c4.5,3.8,10,5.8,15.8,5.8
		c0.7,0,1.5,0,2.2-0.1c6.6-0.6,12.5-3.7,16.7-8.7c4.2-5,6.2-11.4,5.7-18C346.5,14.9,334.6,4.8,321,6z M310.6,20
		c2.8-3.4,6.8-5.4,11.1-5.8c0.5,0,1-0.1,1.4-0.1c8.4,0,15.6,6.5,16.3,15c0.8,9-5.9,17-14.9,17.8c-4.4,0.4-8.6-1-12-3.8
		c-3.4-2.8-5.4-6.8-5.8-11.1C306.4,27.6,307.8,23.4,310.6,20z"/>
	<g>
		<path class="st0" d="M144.4,33.2c2.4,0,4.3-1.9,4.3-4.3V7c0-2.4-1.9-4.3-4.3-4.3c-2.4,0-4.3,1.9-4.3,4.3v21.9
			C140.2,31.3,142.1,33.2,144.4,33.2z"/>
	</g>
	<path class="st0" d="M160.1,8L160.1,8c-0.7-0.5-1.6-0.9-2.6-0.9c-2.4,0-4.3,1.9-4.3,4.3c0,1.4,0.7,2.7,1.7,3.5l0,0
		c4.3,3.2,7,8.3,7,14.1c0,9.7-7.9,17.6-17.6,17.6c-9.7,0-17.6-7.9-17.6-17.6c0-5.8,2.8-10.9,7.1-14.1l0,0c1-0.8,1.7-2,1.7-3.5
		c0-2.4-1.9-4.3-4.3-4.3c-1,0-1.8,0.3-2.6,0.8l0,0c-6.4,4.8-10.5,12.4-10.5,21c0,14.4,11.7,26.1,26.1,26.1
		c14.4,0,26.1-11.7,26.1-26.1C170.6,20.3,166.4,12.7,160.1,8z"/>
	<path class="st1" d="M182.6,46.3V7.1h-8.5v11c1.3,3.4,1.9,7.1,1.9,10.8c0,3.8-0.7,7.5-1.9,10.9V54h28.4v-7.7H182.6z"/>
	<path class="st1" d="M121.6,7.1h-9.3l-13,35.1L86.6,7.1h-9.8L95.2,54h7.3l6.6-16.7l3.7-9C113,20.4,116.2,12.8,121.6,7.1z"/>
</g>
</svg>
