<svg xmlns="http://www.w3.org/2000/svg" width="524" height="524" viewBox="0 0 524 524" version="1.1">
	<path d="M 248 76.134 C 248 140.583, 247.724 138.020, 255.662 147.187 L 261 153.351 261 191.176 C 261 211.979, 260.811 229, 260.579 229 C 260.348 229, 253.036 216.568, 244.329 201.374 C 225.859 169.139, 223.337 165.952, 213.525 162.440 C 204.458 159.195, 202.659 157.327, 194.524 142.721 C 190.781 136, 186.730 129.150, 185.523 127.500 C 182.284 123.073, 170 101.397, 170 100.108 C 170 99.499, 169.605 99, 169.121 99 C 168.638 99, 167.654 97.537, 166.935 95.750 C 166.216 93.963, 163.760 89.350, 161.478 85.500 C 159.196 81.650, 154.971 74.338, 152.089 69.250 C 148.793 63.431, 146.228 59.989, 145.175 59.969 C 144.254 59.952, 140.160 59.505, 136.078 58.975 C 131.995 58.445, 128.446 58.221, 128.190 58.476 C 127.750 58.917, 143.812 87.777, 150.465 98.500 C 155.572 106.731, 155.964 107.397, 157.237 110 C 157.909 111.375, 158.705 112.725, 159.005 113 C 159.979 113.891, 170.730 132.395, 172.369 136 C 173.244 137.925, 174.380 140.175, 174.893 141 C 175.407 141.825, 177.905 145.960, 180.446 150.189 C 186.090 159.582, 189.081 162.198, 197.307 164.936 C 200.836 166.110, 204.843 168.271, 206.286 169.778 C 208.802 172.406, 244.321 233.013, 243.705 233.628 C 243.538 233.795, 232.849 227.818, 219.951 220.345 C 183.063 198.973, 179.973 197.864, 166.187 201.044 C 161.070 202.224, 159.600 201.630, 141.500 191.078 C 134.900 187.230, 128.086 183.431, 126.357 182.636 C 121.347 180.333, 103.533 169.719, 103.167 168.819 C 102.983 168.369, 102.346 168, 101.751 168 C 101.155 168, 97.480 166.030, 93.584 163.622 C 83.338 157.290, 62.012 145, 61.270 145 C 58.697 145, 44.982 151.652, 45.217 152.786 C 45.373 153.537, 50 156.755, 55.500 159.937 C 61 163.119, 71.403 169.160, 78.617 173.361 C 85.832 177.563, 92.244 181, 92.867 181 C 93.490 181, 94 181.450, 94 182 C 94 182.550, 94.507 183, 95.127 183 C 96.284 183, 114.907 193.619, 129.978 202.872 C 142.052 210.284, 147.201 211.602, 157.701 209.969 C 167.820 208.395, 163.468 206.530, 202.912 229.337 L 234.325 247.500 196.912 248 C 155.364 248.555, 158.485 248.027, 148.707 256.164 L 142.896 261 85.982 261 L 29.067 261 24.034 267.649 C 21.265 271.306, 19 274.681, 19 275.149 C 19 276.520, 132.530 276.221, 137.145 274.838 C 139.278 274.199, 143.796 271.274, 147.187 268.338 L 153.351 263 191.426 263.032 C 221.579 263.057, 229.164 263.317, 227.883 264.282 C 226.993 264.952, 214.442 272.250, 199.991 280.500 C 169.208 298.073, 165.942 300.683, 162.437 310.500 C 158.984 320.173, 157.792 321.166, 132.500 335.444 C 131.400 336.064, 128.025 338.170, 125 340.123 C 121.975 342.075, 116.125 345.434, 112 347.586 C 107.875 349.739, 104.275 351.748, 104 352.051 C 103.725 352.354, 101.025 353.879, 98 355.440 C 94.975 357.002, 88.225 360.859, 83 364.013 C 77.775 367.167, 70.575 371.347, 67 373.301 C 61.107 376.523, 60.442 377.212, 59.881 380.678 C 58.502 389.199, 58.030 396, 58.818 396 C 59.702 396, 90.214 378.550, 103.127 370.660 C 107.321 368.097, 111.221 366, 111.793 366 C 112.365 366, 112.983 365.651, 113.167 365.225 C 113.567 364.295, 134.286 352, 135.454 352 C 137.468 352, 157.501 339.194, 160.077 336.260 C 161.655 334.462, 163.683 330.457, 164.584 327.361 C 165.534 324.091, 167.537 320.324, 169.360 318.376 C 172.098 315.452, 232.811 279.477, 233.628 280.295 C 233.795 280.462, 227.816 291.151, 220.340 304.049 C 199.979 339.181, 199.561 340.163, 200.456 350.806 C 200.859 355.588, 201.214 360.665, 201.246 362.089 C 201.278 363.540, 198.102 370.347, 194.012 377.589 C 175.165 410.960, 169.670 420.537, 169.100 421 C 168.762 421.275, 167.170 423.975, 165.564 427 C 163.957 430.025, 161.861 433.625, 160.905 435 C 158.422 438.570, 145 461.972, 145 462.730 C 145 465.409, 151.655 479.019, 152.850 478.783 C 153.636 478.627, 156.853 474, 159.998 468.500 C 163.143 463, 168.091 454.450, 170.992 449.500 C 173.894 444.550, 177.345 438.475, 178.662 436 C 179.979 433.525, 181.465 430.825, 181.965 430 C 182.465 429.175, 185.895 423.100, 189.587 416.500 C 193.279 409.900, 198.248 401.463, 200.629 397.751 C 210.324 382.638, 211.744 377.832, 209.947 366.212 C 208.432 356.412, 207.918 357.851, 220.931 335.500 C 225.734 327.250, 233.677 313.569, 238.582 305.098 L 247.500 289.696 248 327.098 C 248.555 368.635, 248.027 365.515, 256.164 375.293 L 261 381.104 261 438.018 L 261 494.933 267.649 499.966 C 271.306 502.735, 274.681 505, 275.149 505 C 276.520 505, 276.221 391.470, 274.838 386.855 C 274.199 384.722, 271.274 380.204, 268.338 376.813 L 263 370.649 263 332.824 C 263 312.021, 263.189 295, 263.421 295 C 263.652 295, 270.964 307.432, 279.671 322.626 C 298.141 354.861, 300.663 358.048, 310.475 361.560 C 319.542 364.805, 321.341 366.673, 329.476 381.279 C 333.219 388, 337.270 394.850, 338.477 396.500 C 341.716 400.927, 354 422.603, 354 423.892 C 354 424.501, 354.395 425, 354.879 425 C 355.362 425, 356.345 426.463, 357.064 428.250 C 357.782 430.038, 360.915 435.775, 364.026 441 C 367.136 446.225, 371.350 453.538, 373.390 457.250 C 375.683 461.424, 377.747 464.012, 378.799 464.031 C 379.735 464.048, 383.840 464.495, 387.922 465.025 C 392.005 465.555, 395.551 465.782, 395.803 465.530 C 396.203 465.130, 382.748 441.146, 371.794 422.731 C 369.755 419.304, 367.514 415.375, 366.814 414 C 366.114 412.625, 365.295 411.275, 364.995 411 C 364.021 410.109, 353.270 391.605, 351.631 388 C 350.756 386.075, 349.620 383.825, 349.107 383 C 348.593 382.175, 346.095 378.040, 343.554 373.811 C 337.910 364.418, 334.919 361.802, 326.693 359.064 C 323.164 357.890, 319.157 355.729, 317.714 354.222 C 315.198 351.594, 279.679 290.987, 280.295 290.372 C 280.462 290.205, 291.151 296.182, 304.049 303.655 C 340.937 325.027, 344.027 326.136, 357.813 322.956 C 362.930 321.776, 364.400 322.370, 382.500 332.922 C 389.100 336.770, 395.914 340.569, 397.643 341.364 C 402.653 343.667, 420.467 354.281, 420.833 355.181 C 421.017 355.631, 421.587 356, 422.100 356 C 422.614 356, 426.289 357.965, 430.267 360.366 C 442.957 368.027, 462.075 379, 462.730 379 C 465.304 379, 479.018 372.348, 478.783 371.213 C 478.510 369.897, 465.793 362.103, 448 352.348 C 443.325 349.784, 438.825 347.133, 438 346.455 C 437.175 345.778, 434.025 343.965, 431 342.427 C 423.413 338.570, 400.366 325.305, 395.500 321.995 C 383.977 314.156, 377.292 312.340, 366.251 314.047 C 356.187 315.603, 360.516 317.460, 321.088 294.663 L 289.675 276.500 327.088 276 C 368.636 275.445, 365.515 275.973, 375.293 267.836 L 381.104 263 438.018 263 L 494.933 263 499.966 256.351 C 502.735 252.694, 505 249.319, 505 248.851 C 505 247.480, 391.470 247.779, 386.855 249.162 C 384.722 249.801, 380.204 252.726, 376.813 255.662 L 370.649 261 332.574 260.968 C 302.421 260.943, 294.836 260.683, 296.117 259.718 C 297.007 259.048, 309.558 251.750, 324.009 243.500 C 354.792 225.927, 358.058 223.317, 361.563 213.500 C 365.016 203.827, 366.208 202.834, 391.500 188.556 C 392.600 187.936, 395.975 185.830, 399 183.877 C 402.025 181.925, 407.875 178.566, 412 176.414 C 416.125 174.261, 419.725 172.252, 420 171.949 C 420.275 171.646, 422.975 170.121, 426 168.560 C 429.025 166.998, 435.775 163.141, 441 159.987 C 446.225 156.833, 453.425 152.653, 457 150.699 C 462.893 147.477, 463.558 146.788, 464.119 143.322 C 465.498 134.801, 465.970 128, 465.182 128 C 464.298 128, 433.786 145.450, 420.873 153.340 C 416.679 155.903, 412.779 158, 412.207 158 C 411.635 158, 411.017 158.349, 410.833 158.775 C 410.433 159.705, 389.714 172, 388.546 172 C 386.518 172, 366.490 184.817, 363.888 187.780 C 362.289 189.601, 360.246 193.741, 359.342 196.993 C 358.269 200.852, 356.626 203.937, 354.600 205.898 C 351.738 208.667, 291.055 244.388, 290.372 243.705 C 290.205 243.538, 296.184 232.849, 303.660 219.951 C 324.021 184.819, 324.439 183.837, 323.544 173.194 C 323.141 168.412, 322.786 163.335, 322.754 161.911 C 322.722 160.460, 325.898 153.653, 329.988 146.411 C 350.453 110.174, 354.350 103.473, 355.140 103.167 C 355.613 102.983, 356 102.413, 356 101.900 C 356 101.386, 357.965 97.711, 360.366 93.733 C 368.027 81.043, 379 61.925, 379 61.270 C 379 58.632, 372.346 44.981, 371.175 45.217 C 369.974 45.459, 348.764 80.658, 344.490 89.500 C 343.693 91.150, 342.607 93.175, 342.077 94 C 341.547 94.825, 337.911 101.125, 333.996 108 C 330.081 114.875, 324.416 124.550, 321.407 129.500 C 313.690 142.196, 312.392 147.161, 314.031 157.701 C 315.608 167.839, 317.437 163.569, 294.673 202.900 L 276.500 234.300 276 196.900 C 275.445 155.366, 275.973 158.485, 267.836 148.707 L 263 142.896 263 85.982 L 263 29.067 256.351 24.034 C 252.694 21.265, 249.319 19, 248.851 19 C 248.383 19, 248 44.710, 248 76.134 M 310.706 24.697 C 310.153 25.628, 297.716 71.972, 292.525 92.443 C 290.581 100.112, 288.559 107.762, 288.032 109.443 C 281.692 129.678, 281.183 138.768, 285.882 147.894 C 289.333 154.597, 289.365 155.002, 287.434 167.750 C 286.957 170.895, 287.127 172, 288.086 172 C 288.847 172, 288.580 172.590, 287.441 173.429 C 285.841 174.606, 285.763 174.942, 287 175.343 C 287.825 175.611, 290.559 176.488, 293.075 177.294 L 297.650 178.759 298.825 174.365 C 300.612 167.683, 300.273 164.458, 297 157 C 293.221 148.390, 293.245 147.286, 297.565 131.500 C 299.522 124.350, 301.722 116.250, 302.455 113.500 C 303.187 110.750, 304.776 104.900, 305.986 100.500 C 307.196 96.100, 308.543 91.150, 308.980 89.500 C 310.173 84.992, 315.553 65.190, 319.632 50.290 L 323.249 37.081 318.364 30.870 C 313.502 24.689, 311.615 23.168, 310.706 24.697 M 185.405 32.750 C 185.702 33.712, 189.583 48, 194.030 64.500 C 198.476 81, 203.036 97.875, 204.164 102 C 205.291 106.125, 206.799 111.750, 207.514 114.500 C 214.085 139.764, 216.772 145.408, 224.851 150.910 C 231.883 155.699, 233.431 157.465, 235.005 162.500 C 235.692 164.700, 236.898 167.738, 237.684 169.250 C 238.470 170.763, 238.773 172, 238.357 172 C 237.940 172, 238.089 172.489, 238.686 173.086 C 240.272 174.672, 251 173.190, 251 171.385 C 251 170.623, 250.495 170, 249.878 170 C 249.126 170, 249.188 169.479, 250.063 168.424 C 250.946 167.360, 251.030 166.628, 250.320 166.174 C 249.742 165.803, 248.938 164.438, 248.532 163.140 C 247.446 159.660, 244.202 156.254, 237.834 151.908 C 231.700 147.720, 231.622 147.569, 228.025 133 C 226.870 128.325, 225.468 123.051, 224.909 121.280 C 224.350 119.509, 222.829 113.884, 221.529 108.780 C 217.105 91.408, 210.054 64.535, 206.272 50.631 L 202.500 36.763 195.500 33.934 C 187.153 30.560, 184.638 30.265, 185.405 32.750 M 385.675 117.410 C 337.401 166.505, 340.595 162.451, 339.643 175.836 C 339.051 184.142, 339.031 184.193, 333.775 190.336 C 330.874 193.726, 328.163 196.650, 327.750 196.833 C 326.224 197.512, 327.088 199.768, 330.294 203.478 L 333.588 207.288 337.114 204.977 C 341.795 201.909, 344.998 194.683, 345.007 187.172 C 345.011 183.283, 345.619 180.557, 346.941 178.500 C 348.002 176.850, 366.451 158.175, 387.939 137 L 427.009 98.500 425.844 89.250 C 425.162 83.843, 424.217 80, 423.569 80 C 422.959 80, 405.906 96.834, 385.675 117.410 M 87.750 98.261 C 83.230 98.831, 80 99.710, 80 100.369 C 79.999 101.376, 89.823 111.203, 144 164.388 C 161.652 181.717, 164.585 183.557, 175.836 184.357 C 184.115 184.947, 184.211 184.985, 190.066 190.057 L 195.961 195.164 198.730 193.190 C 203.879 189.520, 205.275 187.412, 203.955 185.300 C 201.997 182.164, 193.517 179, 187.072 179 C 179.048 179, 179.183 179.116, 136.107 135.158 C 115.068 113.688, 98.012 97.062, 97.107 97.141 C 96.223 97.219, 92.013 97.723, 87.750 98.261 M 468 191.618 C 455.075 195.157, 441.125 198.983, 437 200.119 C 432.875 201.256, 423.875 203.697, 417 205.545 C 381.901 214.977, 378.960 216.223, 373.839 223.840 C 369.072 230.929, 366.028 233.837, 362.609 234.567 C 360.899 234.932, 358.938 235.684, 358.250 236.238 C 357.563 236.792, 357 236.954, 357 236.599 C 357 236.244, 355.875 236.691, 354.500 237.592 C 353.125 238.493, 352 238.863, 352 238.415 C 352 237.967, 351.530 238.070, 350.956 238.644 C 350.299 239.301, 350.162 242.128, 350.588 246.283 C 351.192 252.179, 351.425 252.718, 352.781 251.362 C 353.615 250.527, 355.131 250.062, 356.148 250.328 C 357.166 250.595, 358.250 250.404, 358.558 249.906 C 358.866 249.408, 359.766 249, 360.558 249 C 362.451 249, 368.828 242.677, 372.756 236.905 C 376.466 231.453, 375.463 231.815, 415.500 221.487 C 438.650 215.516, 460.705 209.717, 473.369 206.272 L 487.237 202.500 490.066 195.500 C 492.903 188.480, 493.650 184.921, 492.250 185.091 C 491.837 185.141, 480.925 188.078, 468 191.618 M 30.191 206.065 C 26.720 208.858, 24.057 211.674, 24.273 212.322 C 24.488 212.970, 34.302 216.093, 46.082 219.263 C 84.414 229.577, 94.459 232.229, 97 232.708 C 98.375 232.966, 102.425 234.011, 106 235.029 C 132.784 242.657, 138.289 243.063, 147.894 238.118 C 153.525 235.219, 154.896 234.902, 159.394 235.459 C 162.202 235.807, 166.370 236.184, 168.655 236.296 C 170.939 236.408, 172.574 236.881, 172.286 237.346 C 171.998 237.812, 172.528 238.037, 173.462 237.846 C 174.835 237.566, 179.712 227.080, 178.738 226.502 C 173.325 223.292, 163.918 223.508, 157 227 C 149.152 230.962, 147.584 230.857, 125.978 224.936 C 115.815 222.150, 105.250 219.276, 102.500 218.548 C 99.750 217.821, 84.675 213.734, 69 209.466 C 53.325 205.199, 39.600 201.545, 38.500 201.346 C 37.230 201.117, 34.197 202.840, 30.191 206.065 M 171.211 272.608 C 170.501 273.374, 168.980 274, 167.829 274 C 163.273 274, 156.652 279.235, 151.266 287.095 C 147.530 292.546, 148.520 292.190, 108.500 302.513 C 85.350 308.484, 63.295 314.283, 50.631 317.728 L 36.763 321.500 33.934 328.500 C 30.561 336.846, 30.266 339.358, 32.750 338.601 C 33.713 338.308, 45.525 335.101, 59 331.475 C 72.475 327.849, 86.875 323.956, 91 322.824 C 95.125 321.692, 99.850 320.410, 101.500 319.976 C 140.821 309.622, 144.922 307.952, 150.161 300.160 C 154.928 293.071, 157.972 290.163, 161.391 289.433 C 163.101 289.068, 165.063 288.316, 165.750 287.762 C 166.438 287.208, 167 287.046, 167 287.401 C 167 287.756, 168.012 287.383, 169.250 286.572 C 170.488 285.761, 171.950 285.093, 172.500 285.088 C 173.930 285.075, 174.181 282.268, 173.282 276.358 C 172.633 272.088, 172.281 271.452, 171.211 272.608 M 383 282.889 C 381.625 283.336, 378.075 284.934, 375.111 286.438 C 370.564 288.747, 368.924 289.081, 364.611 288.575 C 361.800 288.246, 357.631 287.869, 355.346 287.738 C 353.062 287.607, 351.401 287.163, 351.655 286.750 C 351.910 286.337, 351.459 286, 350.653 286 C 349.327 286, 346 293.521, 346 296.520 C 346 297.990, 352.581 300, 357.395 300 C 359.477 300, 363.621 298.705, 367 297 C 375.765 292.575, 373.188 292.162, 424 306.149 C 428.125 307.284, 433.750 308.804, 436.500 309.525 C 439.250 310.247, 450.725 313.358, 462 316.439 C 473.275 319.521, 483.625 322.262, 485 322.532 C 487.838 323.088, 500.434 313.805, 499.727 311.678 C 499.512 311.030, 489.698 307.907, 477.918 304.737 C 439.586 294.423, 429.541 291.771, 427 291.292 C 425.625 291.034, 421.575 289.989, 418 288.971 C 397.821 283.224, 387.489 281.428, 383 282.889 M 186.429 319.232 C 182.217 322.122, 179.002 329.731, 178.993 336.828 C 178.989 340.717, 178.381 343.443, 177.059 345.500 C 175.998 347.150, 157.549 365.825, 136.061 387 L 96.991 425.500 98.156 434.750 C 98.838 440.157, 99.783 444, 100.431 444 C 101.350 444, 170.588 374.364, 177.150 366.840 C 181.936 361.353, 183.754 356.642, 184.357 348.164 C 184.949 339.858, 184.969 339.807, 190.225 333.664 C 193.126 330.274, 195.838 327.350, 196.250 327.167 C 197.718 326.514, 196.957 324.403, 193.927 320.728 C 190.385 316.431, 190.483 316.450, 186.429 319.232 M 320.583 330.363 L 316.802 333.727 319.068 337.183 C 322.089 341.792, 329.367 344.998, 336.828 345.007 C 340.722 345.011, 343.440 345.619, 345.500 346.945 C 347.150 348.007, 365.825 366.461, 387 387.953 L 425.500 427.029 434.750 425.854 C 440.033 425.182, 444 424.211, 444 423.589 C 444.001 422.619, 434.068 412.689, 380 359.612 C 362.348 342.283, 359.415 340.443, 348.164 339.643 C 339.905 339.055, 339.775 339.003, 334.029 334.025 C 327.525 328.391, 326.981 328.200, 325.261 330.954 C 324.590 332.029, 323.019 333.434, 321.770 334.076 C 320.224 334.872, 320.760 333.931, 323.453 331.122 C 328.304 326.063, 326.078 325.474, 320.583 330.363 M 225.158 349.866 C 223.356 355.882, 223.757 359.611, 227 367 C 230.779 375.610, 230.755 376.714, 226.435 392.500 C 222.596 406.530, 220.827 413.054, 218.640 421.255 C 217.051 427.212, 209.750 454.046, 204.367 473.710 L 200.751 486.919 205.699 493.210 C 208.420 496.669, 211.281 499.500, 212.056 499.500 C 213.467 499.500, 218.184 483.151, 229.945 437.500 C 232.637 427.050, 236.290 413.100, 238.062 406.500 C 242.398 390.349, 242.409 384.440, 238.118 376.106 C 234.720 369.507, 234.505 366.921, 236.543 357.241 C 236.979 355.173, 236.777 353.437, 235.992 352.491 C 234.982 351.274, 235.053 351, 236.378 351 C 239.569 351, 237.918 349.160, 233.322 347.594 C 226.848 345.388, 226.468 345.494, 225.158 349.866 M 276.250 350.701 C 273.307 351.086, 271.351 354, 274.035 354 C 274.737 354, 274.726 354.644, 274 356 C 273.411 357.100, 273.286 358, 273.721 358 C 274.156 358, 275.145 359.431, 275.920 361.180 C 277.673 365.141, 281.134 368.721, 287.170 372.817 C 292.728 376.589, 291.740 373.837, 302.508 415.500 C 308.932 440.356, 314.324 460.857, 317.728 473.369 L 321.500 487.237 328.500 490.066 C 336.847 493.440, 339.362 493.735, 338.595 491.250 C 338.298 490.288, 334.417 476, 329.970 459.500 C 325.524 443, 320.964 426.125, 319.836 422 C 318.709 417.875, 317.201 412.250, 316.486 409.500 C 309.915 384.236, 307.228 378.592, 299.149 373.090 C 292.117 368.301, 290.569 366.535, 288.995 361.500 C 288.308 359.300, 287.036 356.150, 286.168 354.500 C 285.301 352.850, 284.796 351.275, 285.046 351 C 285.643 350.343, 280.362 350.163, 276.250 350.701" stroke="none" fill="#000000" fill-rule="evenodd"/>
</svg>