<?xml version="1.0" encoding="UTF-8"?>
<svg id="logo" xmlns="http://www.w3.org/2000/svg" version="1.1" xmlns:xlink="http://www.w3.org/1999/xlink" viewBox="0 0 1080 1080">
  <!-- Generator: Adobe Illustrator 29.8.3, SVG Export Plug-In . SVG Version: 2.1.1 Build 3)  -->
  <defs>
    <style>
      .st0 {
        mask: url(#mask);
      }

      .st1, .st2 {
        fill: #010101;
      }

      .st1, .st3 {
        stroke: #010101;
        stroke-miterlimit: 10;
      }

      .st4 {
        fill: url(#radial-gradient);
      }

      .st5 {
        fill: url(#radial-gradient1);
      }

      .st6 {
        fill: url(#linear-gradient);
      }

      .st3 {
        fill: none;
        stroke-width: 3px;
      }
    </style>
    <linearGradient id="linear-gradient" x1="40" y1="541.85" x2="394.57" y2="541.85" gradientTransform="translate(434.57 1083.7) rotate(-180)" gradientUnits="userSpaceOnUse">
      <stop offset=".68" stop-color="#fff"/>
      <stop offset=".84" stop-color="#010101"/>
    </linearGradient>
    <mask id="mask" x="40" y="261.96" width="554.52" height="559.77" maskUnits="userSpaceOnUse">
      <rect class="st6" x="40" y="261.96" width="354.57" height="559.77" transform="translate(434.57 1083.7) rotate(180)"/>
    </mask>
    <radialGradient id="radial-gradient" cx="317.26" cy="541.85" fx="317.26" fy="541.85" r="277.26" gradientUnits="userSpaceOnUse">
      <stop offset="0" stop-color="#fff"/>
      <stop offset=".25" stop-color="#ffd886"/>
      <stop offset=".5" stop-color="#f37021"/>
      <stop offset=".55" stop-color="#f37735" stop-opacity=".95"/>
      <stop offset=".64" stop-color="#f58a6c" stop-opacity=".83"/>
      <stop offset=".65" stop-color="#f68c71" stop-opacity=".82"/>
      <stop offset=".9" stop-color="#456b9c" stop-opacity=".95"/>
      <stop offset="1" stop-color="#005fae"/>
    </radialGradient>
    <radialGradient id="radial-gradient1" cx="-398.17" cy="-477.64" fx="-398.17" fy="-477.64" r="277.26" gradientTransform="translate(936.55 598.04) rotate(-45)" gradientUnits="userSpaceOnUse">
      <stop offset=".35" stop-color="#fff" stop-opacity="0"/>
      <stop offset="1" stop-color="#005fae"/>
    </radialGradient>
  </defs>
  <g id="_x33_">
    <g>
      <path class="st2" d="M809.5,491.19l-7.49,13.3c-.3.53-1.67,2.7-2.14,3.05-1.24,1.47-2.96,2.44-4.86,2.78-.46.16-2.25.24-2.75.25h-24.92l-16.57,29.43h24.91c1.43-.02,6.69-.3,7.99-.81,5.17-1.04,9.75-4.49,12.42-9.23l7.49-13.3c.3-.53,1.67-2.7,2.14-3.05,1.25-1.47,2.97-2.44,4.88-2.78.45-.15,2.23-.24,2.73-.24h24.93l16.58-29.43h-24.9c-1.43.02-6.69.3-7.99.81-5.17,1.04-9.75,4.49-12.42,9.23Z"/>
      <path class="st1" d="M539.18,672.34v73.61c0,8.49-6.88,15.38-15.38,15.38h-129.23v-131.8c0-7.08,5.74-12.81,12.81-12.81h131.8v33.37h-111.24v77.87h77.87v-22.25h-38.94v-33.37h72.31Z"/>
      <path class="st1" d="M704.43,705.67h-40.22l40.18,55.66h-40.13l-40.18-55.66h-30.89v55.66h-33.37v-131.8c0-7.08,5.74-12.81,12.81-12.81h131.79v88.95ZM671.06,672.28v-22.18h-77.86v22.18h77.86Z"/>
      <path class="st1" d="M869.7,616.72v129.23c0,8.49-6.88,15.38-15.38,15.38h-129.23v-131.8c0-7.08,5.74-12.81,12.81-12.81h131.8ZM836.33,650.09h-77.87v77.87h77.87v-77.87Z"/>
      <path class="st1" d="M1034.95,616.72v129.23c0,8.49-6.88,15.38-15.38,15.38h-129.23v-131.8c0-7.08,5.74-12.81,12.81-12.81h20.55v111.24h22.2v-111.24h33.37v111.24h22.29v-111.24h33.39Z"/>
      <g>
        <path class="st2" d="M403.73,801.39h-2.38c-.12-2.31-1.77-3.32-4.17-3.32s-3.95.99-3.95,2.89,1.57,2.53,3.34,2.84l2.23.39c2.59.46,5.11,1.63,5.11,4.97s-2.8,5.24-6.46,5.24-7-1.89-7.12-6.14h2.38c.17,2.87,2.14,4.05,4.74,4.05s4.1-1.19,4.1-3.13-1.71-2.59-3.56-2.92l-2.23-.39c-2.36-.42-4.89-1.59-4.89-4.89s2.87-5,6.31-5,6.41,1.72,6.56,5.4Z"/>
        <path class="st2" d="M410.69,796.36v17.68h-2.36v-17.68h2.36Z"/>
        <path class="st2" d="M423.82,795.99c5.43,0,7.86,3.44,7.93,6.88h-2.38c-.15-2.43-1.71-4.79-5.55-4.79s-6.46,2.79-6.46,7.12,2.53,7.12,6.46,7.12,5.3-2.05,5.35-4.54h-6.46v-2.11h8.86v1.35c0,4.58-2.75,7.39-7.83,7.39-5.35,0-8.77-3.68-8.77-9.21s3.41-9.21,8.84-9.21Z"/>
        <path class="st2" d="M436.08,796.36h4.3l5.65,15.2c.05.12.12.15.25.15s.17-.08.17-.2v-15.15h2.36v17.68h-4.3l-5.65-15.2c-.05-.12-.12-.15-.25-.15s-.17.08-.17.2v15.15h-2.36v-17.68Z"/>
        <path class="st2" d="M452.93,813.55l5.27-17.19h3.64l5.27,17.19v.49h-2.35l-1.63-5.45h-6.21l-1.63,5.45h-2.35v-.49ZM462.48,806.48l-2.3-7.69c-.03-.07-.07-.1-.17-.1s-.15.03-.17.1l-2.3,7.69h4.94Z"/>
        <path class="st2" d="M471.22,796.36h2.36v15.57h8.23v2.11h-10.58v-17.68Z"/>
        <path class="st2" d="M493.87,796.36h10.95v2.11h-8.6v5.3h7.61v2.11h-7.61v8.15h-2.36v-17.68Z"/>
        <path class="st2" d="M508.87,796.36h7.02c3.31,0,5.65,1.72,5.65,5.16,0,2.86-1.61,4.53-4.06,5.01l3.23,7.03v.49h-2.39l-3.23-7.37h-3.86v7.37h-2.36v-17.68ZM515.65,804.56c2.27,0,3.54-.88,3.54-3.04s-1.26-3.05-3.54-3.05h-4.42v6.09h4.42Z"/>
        <path class="st2" d="M524.61,813.55l5.27-17.19h3.64l5.27,17.19v.49h-2.35l-1.63-5.45h-6.21l-1.63,5.45h-2.35v-.49ZM534.17,806.48l-2.3-7.69c-.03-.07-.07-.1-.17-.1s-.15.03-.17.1l-2.3,7.69h4.94Z"/>
        <path class="st2" d="M542.91,796.36h4.3l5.65,15.2c.05.12.12.15.25.15s.17-.08.17-.2v-15.15h2.36v17.68h-4.3l-5.65-15.2c-.05-.12-.12-.15-.25-.15s-.17.08-.17.2v15.15h-2.36v-17.68Z"/>
        <path class="st2" d="M568.82,795.99c5.4,0,7.98,3.33,8.03,7.23h-2.36c-.1-2.73-1.79-5.12-5.67-5.12s-6.51,2.76-6.51,7.1,2.58,7.1,6.51,7.1,5.75-2.38,5.89-5.51h2.36c-.17,4.15-2.85,7.63-8.25,7.63s-8.89-3.68-8.89-9.21,3.49-9.21,8.89-9.21Z"/>
        <path class="st2" d="M581.22,796.36h2.36v7.54h7.86v-7.54h2.36v17.68h-2.36v-8.03h-7.86v8.03h-2.36v-17.68Z"/>
        <path class="st2" d="M601.56,796.36v17.68h-2.36v-17.68h2.36Z"/>
        <path class="st2" d="M619.29,801.39h-2.38c-.12-2.31-1.77-3.32-4.17-3.32s-3.95.99-3.95,2.89,1.57,2.53,3.34,2.84l2.23.39c2.59.46,5.11,1.63,5.11,4.97s-2.8,5.24-6.46,5.24-7-1.89-7.12-6.14h2.38c.17,2.87,2.14,4.05,4.74,4.05s4.1-1.19,4.1-3.13-1.71-2.59-3.56-2.92l-2.23-.39c-2.36-.42-4.89-1.59-4.89-4.89s2.87-5,6.31-5,6.41,1.72,6.56,5.4Z"/>
        <path class="st2" d="M623.88,796.36h11.2v2.11h-8.84v5.3h7.98v2.11h-7.98v6.04h8.96v2.11h-11.32v-17.68Z"/>
        <path class="st2" d="M655.66,795.99c5.4,0,7.98,3.33,8.03,7.23h-2.36c-.1-2.73-1.79-5.12-5.67-5.12s-6.51,2.76-6.51,7.1,2.58,7.1,6.51,7.1,5.75-2.38,5.89-5.51h2.36c-.17,4.15-2.85,7.63-8.25,7.63s-8.89-3.68-8.89-9.21,3.49-9.21,8.89-9.21Z"/>
        <path class="st2" d="M685.23,805.2c0,5.53-3.76,9.21-9.14,9.21s-9.14-3.68-9.14-9.21,3.76-9.21,9.14-9.21,9.14,3.68,9.14,9.21ZM669.34,805.2c0,4.51,2.7,7.12,6.75,7.12,3.81,0,6.75-2.62,6.75-7.12s-2.95-7.12-6.75-7.12c-4.05,0-6.75,2.62-6.75,7.12Z"/>
        <path class="st2" d="M689.53,796.36h4.3l5.65,15.2c.05.12.12.15.25.15s.17-.08.17-.2v-15.15h2.36v17.68h-4.3l-5.65-15.2c-.05-.12-.12-.15-.25-.15s-.17.08-.17.2v15.15h-2.36v-17.68Z"/>
        <path class="st2" d="M713.29,811.61c.03.07.08.1.17.1s.15-.03.17-.1l4.57-15.25h2.35v.49l-5.27,17.19h-3.63l-5.27-17.19v-.49h2.35l4.57,15.25Z"/>
        <path class="st2" d="M724.67,796.36h11.2v2.11h-8.84v5.3h7.98v2.11h-7.98v6.04h8.96v2.11h-11.32v-17.68Z"/>
        <path class="st2" d="M740.41,796.36h4.3l5.65,15.2c.05.12.12.15.25.15s.17-.08.17-.2v-15.15h2.36v17.68h-4.3l-5.65-15.2c-.05-.12-.12-.15-.25-.15s-.17.08-.17.2v15.15h-2.36v-17.68Z"/>
        <path class="st2" d="M756.94,796.36h13.66v2.11h-5.65v15.57h-2.36v-15.57h-5.65v-2.11Z"/>
        <path class="st2" d="M776.76,796.36v17.68h-2.36v-17.68h2.36Z"/>
        <path class="st2" d="M799.33,805.2c0,5.53-3.76,9.21-9.14,9.21s-9.14-3.68-9.14-9.21,3.76-9.21,9.14-9.21,9.14,3.68,9.14,9.21ZM783.44,805.2c0,4.51,2.7,7.12,6.75,7.12,3.81,0,6.75-2.62,6.75-7.12s-2.95-7.12-6.75-7.12c-4.05,0-6.75,2.62-6.75,7.12Z"/>
        <path class="st2" d="M803.63,796.36h4.3l5.65,15.2c.05.12.12.15.25.15s.17-.08.17-.2v-15.15h2.36v17.68h-4.3l-5.65-15.2c-.05-.12-.12-.15-.25-.15s-.17.08-.17.2v15.15h-2.36v-17.68Z"/>
      </g>
      <g>
        <path class="st2" d="M887.51,813.67l6.45-17.31h2.9l6.46,17.31v.37h-2.25l-1.84-5h-7.7l-1.83,5h-2.18v-.37ZM898.63,807.26l-3.12-8.57h-.25l-3.13,8.57h6.49Z"/>
        <path class="st2" d="M914.6,806.17v7.87h-2.23v-17.68h8.28c2.98,0,5.39,1.78,5.39,4.91s-2.33,4.93-5.19,4.93h-3.08l8.14,7.48v.37h-2.53l-8.52-7.87h-.25ZM914.6,804.47h5.68c2.07,0,3.55-1.11,3.55-3.17s-1.47-3.16-3.55-3.16h-5.68v6.32Z"/>
        <path class="st2" d="M937.61,796.36v17.68h-2.26v-17.68h2.26Z"/>
        <path class="st2" d="M960.53,796.36v1.52l-10.54,14.37h10.79v1.79h-13.69v-1.52l10.53-14.37h-10.15v-1.79h13.05Z"/>
        <path class="st2" d="M977.37,796.02c5.24,0,8.82,3.31,8.82,9.18s-3.57,9.19-8.82,9.19-8.81-3.31-8.81-9.19,3.57-9.18,8.81-9.18ZM977.37,812.54c3.95,0,6.52-2.66,6.52-7.34s-2.57-7.35-6.52-7.35-6.53,2.68-6.53,7.35,2.58,7.34,6.53,7.34Z"/>
        <path class="st2" d="M998.41,796.36l8.96,14.45h.25v-14.45h2.17v17.68h-2.78l-8.93-14.42h-.25v14.42h-2.17v-17.68h2.74Z"/>
        <path class="st2" d="M1018.86,813.67l6.45-17.31h2.9l6.46,17.31v.37h-2.25l-1.84-5h-7.7l-1.83,5h-2.18v-.37ZM1029.97,807.26l-3.12-8.57h-.25l-3.13,8.57h6.49Z"/>
      </g>
      <g>
        <path class="st2" d="M916.26,484.63h-19.24l-.19-5.75c0-15.91,2.39-27.1,7.17-33.57,4.84-6.54,12.95-9.81,24.33-9.81,21.44,0,32.16,11.88,32.16,35.65,0,16.03-8.02,39.14-24.05,69.32l-11.6,21.79c-.06.13-.25.5-.57,1.13-.32.63-.75,1.54-1.32,2.73h36.02v16.79h-63.94c1.07-2.39,3.3-7.14,6.69-14.24,3.4-7.11,8.02-16.69,13.86-28.76,4.97-10.56,9.12-19.52,12.45-26.88,3.33-7.36,5.85-13.39,7.55-18.11,3.4-9.43,5.09-17.57,5.09-24.43,0-12.07-4.18-18.11-12.54-18.11s-12.07,7.48-12.07,22.45l.09,8.3.1,1.51Z"/>
        <path class="st2" d="M974.93,437.29h65.07l-44.14,145.62h-20.94l40.46-129.02h-40.46v-16.6Z"/>
      </g>
      <g id="stroke">
        <path class="st3" d="M539.17,259.86v129.23c0,8.49-6.88,15.38-15.38,15.38h-17.99v-55.62h-77.87v55.62h-33.37v-131.8c0-7.08,5.74-12.81,12.81-12.81h20.55v55.62h77.87v-55.62h33.37Z"/>
        <path class="st3" d="M593.19,293.24v22.18h111.24v33.39h-111.24v22.28h111.24v18c0,8.49-6.88,15.38-15.38,15.38h-129.23v-131.8c0-7.08,5.74-12.81,12.81-12.81h131.8v33.38h-111.24Z"/>
        <path class="st3" d="M869.69,348.81h-40.22l40.18,55.66h-40.13l-40.18-55.66h-30.89v55.66h-33.37v-131.8c0-7.08,5.74-12.81,12.81-12.81h131.79v88.95ZM836.31,315.42v-22.18h-77.86v22.18h77.86Z"/>
        <path class="st3" d="M923.71,293.24v22.18h111.24v33.39h-111.24v22.28h111.24v18c0,8.49-6.88,15.38-15.38,15.38h-129.23v-131.8c0-7.08,5.74-12.81,12.81-12.81h131.8v33.38h-111.24Z"/>
        <g>
          <path class="st3" d="M539.17,438.29v129.23c0,8.49-6.88,15.38-15.38,15.38h-129.23v-131.8c0-7.08,5.74-12.81,12.81-12.81h20.55v111.24h22.2v-98.43c0-7.08,5.74-12.81,12.81-12.81h20.55v111.24h22.29v-111.24h33.39Z"/>
          <path class="st3" d="M593.19,471.67v22.18h111.24v33.39h-111.24v22.28h111.24v18c0,8.49-6.88,15.38-15.38,15.38h-129.23v-131.8c0-7.08,5.74-12.81,12.81-12.81h131.8v33.38h-111.24Z"/>
        </g>
      </g>
    </g>
    <g class="st0">
      <g id="_x33_1" data-name="_x33_">
        <path id="primary" class="st4" d="M426.85,557.1c5.5-.56,10.37-2.4,13.21-4.92l7.96-7.09c.32-.28,1.77-1.44,2.27-1.63,1.33-.78,3.16-1.3,5.18-1.48.48-.08,2.37-.13,2.9-.13h124.3l11.85-15.69h-118.49c-1.53,0-7.12.16-8.5.43-5.5.56-10.37,2.4-13.21,4.92l-7.96,7.09c-.32.28-1.77,1.44-2.27,1.63-1.32.78-3.15,1.3-5.17,1.48-.48.08-2.39.13-2.93.13h-87.36l64.02-36.96c1.32-.77,6.08-3.7,7.14-4.62,4.48-3.23,7.78-7.26,8.98-10.86l3.35-10.12c.13-.4.82-2.13,1.15-2.54.76-1.34,2.08-2.71,3.75-3.88.37-.31,1.99-1.3,2.45-1.56l107.64-62.15,2.42-19.51-102.62,59.25c-1.32.77-6.08,3.7-7.14,4.62-4.48,3.23-7.78,7.26-8.98,10.86l-3.35,10.12c-.13.4-.82,2.13-1.15,2.55-.75,1.34-2.08,2.7-3.74,3.87-.38.31-2.01,1.31-2.47,1.58l-75.66,43.68,36.96-64.02c.75-1.33,3.42-6.24,3.87-7.58,2.27-5.04,3.11-10.18,2.34-13.9l-2.16-10.44c-.09-.41-.36-2.25-.27-2.78-.02-1.54.45-3.38,1.31-5.23.17-.46,1.08-2.12,1.34-2.58l62.15-107.64-7.66-18.11-59.25,102.62c-.75,1.33-3.42,6.24-3.87,7.58-2.27,5.04-3.11,10.18-2.34,13.9l2.16,10.44c.09.41.36,2.25.27,2.78.02,1.54-.45,3.38-1.3,5.22-.17.46-1.08,2.14-1.35,2.6l-43.68,75.66v-73.92c0-1.52-.16-7.12-.43-8.5-.56-5.5-2.4-10.37-4.92-13.21l-7.09-7.96c-.28-.32-1.44-1.77-1.63-2.27-.78-1.33-1.3-3.16-1.48-5.18-.08-.48-.13-2.37-.13-2.9v-124.3l-15.69-11.85v118.49c0,1.53.16,7.12.43,8.5.56,5.5,2.4,10.37,4.92,13.21l7.09,7.96c.28.32,1.44,1.77,1.63,2.27.78,1.32,1.3,3.15,1.48,5.17.08.48.13,2.39.13,2.92v87.36l-36.96-64.02c-.77-1.32-3.7-6.08-4.62-7.14-3.23-4.48-7.26-7.78-10.86-8.98l-10.12-3.35c-.4-.13-2.13-.82-2.54-1.15-1.34-.76-2.71-2.08-3.88-3.75-.31-.37-1.3-1.99-1.56-2.45l-62.15-107.64-19.51-2.42,59.25,102.62c.77,1.32,3.7,6.08,4.62,7.14,3.23,4.48,7.26,7.78,10.86,8.98l10.12,3.35c.4.13,2.13.82,2.55,1.15,1.34.75,2.7,2.08,3.87,3.74.31.38,1.31,2.01,1.58,2.47l43.68,75.66-64.02-36.96c-1.33-.75-6.24-3.42-7.58-3.87-5.04-2.27-10.18-3.11-13.9-2.34l-10.44,2.16c-.41.09-2.25.36-2.78.27-1.54.02-3.38-.45-5.23-1.31-.46-.17-2.12-1.08-2.58-1.34l-107.64-62.15-18.11,7.66,102.62,59.25c1.33.75,6.24,3.42,7.58,3.87,5.04,2.27,10.18,3.11,13.9,2.34l10.44-2.16c.41-.09,2.26-.36,2.78-.27,1.54-.02,3.38.45,5.22,1.3.46.17,2.14,1.08,2.6,1.35l75.65,43.68h-73.92c-1.52,0-7.12.16-8.5.43-5.5.56-10.37,2.4-13.21,4.92l-7.96,7.09c-.32.28-1.77,1.44-2.27,1.63-1.33.78-3.16,1.3-5.18,1.48-.48.08-2.37.13-2.9.13H51.85l-11.85,15.69h118.49c1.53,0,7.12-.16,8.5-.43,5.5-.56,10.37-2.4,13.21-4.92l7.96-7.09c.32-.28,1.77-1.44,2.27-1.63,1.32-.78,3.15-1.3,5.17-1.48.48-.08,2.39-.13,2.92-.13h87.36l-64.02,36.96c-1.32.77-6.08,3.7-7.14,4.62-4.48,3.23-7.78,7.26-8.98,10.86l-3.35,10.12c-.13.4-.82,2.13-1.15,2.54-.76,1.34-2.08,2.71-3.75,3.88-.37.31-1.99,1.3-2.45,1.56l-107.64,62.15-2.42,19.51,102.62-59.25c1.32-.77,6.08-3.7,7.14-4.62,4.48-3.23,7.78-7.26,8.98-10.86l3.35-10.12c.13-.4.82-2.13,1.15-2.55.75-1.34,2.08-2.7,3.74-3.87.38-.31,2.01-1.31,2.47-1.58l75.66-43.68-36.96,64.02c-.75,1.33-3.42,6.24-3.87,7.58-2.27,5.04-3.11,10.18-2.34,13.9l2.16,10.44c.09.41.36,2.25.27,2.78.02,1.54-.45,3.38-1.31,5.23-.17.46-1.08,2.12-1.34,2.58l-62.15,107.64,7.66,18.11,59.25-102.62c.75-1.33,3.42-6.24,3.87-7.58,2.27-5.04,3.11-10.18,2.34-13.9l-2.16-10.44c-.09-.42-.36-2.26-.27-2.78-.02-1.54.45-3.38,1.3-5.22.17-.46,1.08-2.14,1.35-2.6l43.68-75.66v73.92c0,1.52.16,7.12.43,8.5.56,5.5,2.4,10.37,4.92,13.21l7.09,7.96c.28.32,1.44,1.77,1.63,2.27.78,1.33,1.3,3.16,1.48,5.18.08.48.13,2.37.13,2.9v124.3l15.69,11.85v-118.49c0-1.52-.16-7.12-.43-8.5-.56-5.5-2.4-10.37-4.92-13.21l-7.09-7.96c-.28-.32-1.44-1.77-1.63-2.27-.78-1.32-1.3-3.15-1.48-5.17-.08-.48-.13-2.39-.13-2.92v-87.35l36.96,64.01c.77,1.32,3.7,6.08,4.62,7.14,3.23,4.48,7.26,7.78,10.86,8.98l10.12,3.35c.4.13,2.13.82,2.54,1.15,1.34.76,2.71,2.08,3.88,3.75.31.37,1.3,1.99,1.56,2.45l62.15,107.64,19.51,2.42-59.25-102.62c-.77-1.32-3.7-6.08-4.62-7.14-3.23-4.48-7.26-7.78-10.86-8.98l-10.12-3.35c-.4-.13-2.13-.82-2.55-1.15-1.34-.75-2.7-2.08-3.87-3.74-.31-.38-1.31-2.01-1.58-2.47l-43.68-75.66,64.02,36.96c1.33.75,6.24,3.42,7.58,3.87,5.04,2.27,10.18,3.11,13.9,2.34l10.44-2.16c.41-.09,2.25-.36,2.78-.27,1.54-.02,3.38.45,5.23,1.31.46.17,2.12,1.08,2.58,1.34l107.64,62.15,18.11-7.66-102.62-59.25c-1.33-.75-6.24-3.42-7.58-3.87-5.04-2.27-10.18-3.11-13.9-2.34l-10.44,2.16c-.41.09-2.26.36-2.78.27-1.54.02-3.38-.45-5.22-1.3-.46-.17-2.14-1.08-2.6-1.35l-75.65-43.68h73.92c1.52,0,7.12-.16,8.5-.43Z"/>
        <path id="secondary" class="st5" d="M405.54,475.14c3.49-4.28,5.64-9.03,5.86-12.82l.62-10.64c.02-.42.24-2.27.45-2.76.38-1.49,1.31-3.15,2.62-4.72.28-.4,1.59-1.77,1.96-2.14l87.89-87.89-2.71-19.47-83.79,83.79c-1.07,1.08-4.92,5.15-5.7,6.32-3.49,4.28-5.64,9.03-5.86,12.82l-.62,10.64c-.02.42-.24,2.27-.45,2.76-.38,1.49-1.31,3.14-2.61,4.7-.28.4-1.6,1.78-1.97,2.16l-61.77,61.77,19.13-71.4c.39-1.48,1.69-6.91,1.78-8.32.89-5.45.37-10.64-1.34-14.03l-4.78-9.53c-.19-.38-.93-2.08-.98-2.61-.41-1.48-.44-3.39-.09-5.39.04-.49.49-2.32.62-2.83l32.17-120.06-12.09-15.51-30.67,114.46c-.39,1.48-1.69,6.92-1.78,8.32-.89,5.45-.37,10.64,1.34,14.03l4.78,9.53c.19.38.93,2.08.98,2.61.41,1.48.44,3.38.09,5.38-.04.49-.49,2.35-.63,2.86l-22.61,84.38-19.13-71.4c-.4-1.47-2-6.83-2.62-8.1-1.96-5.17-5-9.4-8.17-11.48l-8.91-5.86c-.35-.23-1.85-1.34-2.16-1.77-1.1-1.08-2.07-2.71-2.78-4.62-.2-.44-.74-2.26-.88-2.77l-32.17-120.06-18.22-7.39,30.67,114.46c.4,1.47,2,6.83,2.62,8.1,1.96,5.17,5,9.4,8.17,11.48l8.91,5.86c.35.23,1.85,1.34,2.16,1.77,1.1,1.08,2.07,2.71,2.77,4.61.21.45.74,2.28.89,2.79l22.61,84.38-52.27-52.27c-1.08-1.07-5.14-4.92-6.31-5.7-4.28-3.49-9.03-5.64-12.82-5.86l-10.64-.62c-.42-.02-2.27-.24-2.76-.45-1.49-.38-3.15-1.31-4.72-2.62-.4-.28-1.77-1.59-2.14-1.96l-87.89-87.89-19.47,2.72,83.79,83.79c1.08,1.07,5.15,4.92,6.32,5.7,4.28,3.49,9.03,5.64,12.82,5.86l10.64.62c.42.02,2.27.24,2.76.45,1.49.38,3.14,1.31,4.7,2.61.4.28,1.78,1.6,2.16,1.97l61.77,61.77-71.4-19.13c-1.48-.39-6.91-1.69-8.32-1.78-5.45-.89-10.64-.37-14.03,1.34l-9.53,4.78c-.38.19-2.08.93-2.61.98-1.48.41-3.39.44-5.39.09-.49-.04-2.33-.49-2.83-.62l-120.06-32.17-15.51,12.09,114.46,30.67c1.48.39,6.92,1.69,8.32,1.78,5.45.89,10.64.37,14.03-1.34l9.53-4.78c.38-.19,2.08-.93,2.61-.98,1.48-.41,3.38-.44,5.38-.09.49.04,2.35.49,2.86.63l84.38,22.61-71.4,19.13c-1.47.4-6.83,2-8.1,2.62-5.17,1.96-9.4,5-11.48,8.17l-5.86,8.91c-.23.35-1.34,1.85-1.77,2.16-1.08,1.1-2.71,2.07-4.62,2.78-.44.2-2.26.74-2.77.88l-120.06,32.17-7.39,18.22,114.46-30.67c1.47-.4,6.83-2,8.1-2.62,5.17-1.96,9.4-5,11.48-8.17l5.86-8.91c.23-.35,1.34-1.85,1.77-2.16,1.08-1.1,2.71-2.07,4.61-2.77.45-.21,2.28-.74,2.79-.89l84.38-22.61-52.27,52.27c-1.07,1.08-4.92,5.14-5.7,6.31-3.49,4.28-5.64,9.03-5.86,12.82l-.62,10.64c-.02.42-.24,2.27-.45,2.76-.38,1.49-1.31,3.15-2.62,4.72-.28.4-1.59,1.77-1.96,2.14l-87.89,87.89,2.71,19.47,83.79-83.79c1.07-1.08,4.92-5.15,5.7-6.32,3.49-4.28,5.64-9.03,5.86-12.82l.62-10.64c.02-.42.24-2.27.45-2.76.38-1.49,1.31-3.14,2.61-4.7.28-.4,1.6-1.78,1.97-2.16l61.77-61.77-19.13,71.4c-.39,1.48-1.69,6.91-1.78,8.32-.89,5.45-.37,10.64,1.34,14.03l4.78,9.53c.19.38.93,2.08.98,2.61.41,1.48.44,3.39.09,5.39-.04.49-.49,2.32-.62,2.83l-32.17,120.06,12.09,15.51,30.67-114.46c.39-1.48,1.69-6.92,1.78-8.32.89-5.45.37-10.64-1.34-14.03l-4.78-9.53c-.19-.38-.93-2.08-.98-2.61-.41-1.48-.44-3.38-.09-5.38.04-.49.49-2.35.63-2.86l22.61-84.38,19.13,71.4c.4,1.47,2,6.83,2.62,8.1,1.96,5.17,5,9.4,8.17,11.48l8.91,5.86c.35.23,1.85,1.34,2.16,1.77,1.1,1.08,2.07,2.71,2.78,4.62.2.44.74,2.26.88,2.77l32.17,120.06,18.22,7.39-30.67-114.46c-.4-1.47-2-6.83-2.62-8.1-1.96-5.17-5-9.4-8.17-11.48l-8.91-5.86c-.35-.23-1.85-1.34-2.16-1.77-1.1-1.08-2.07-2.71-2.77-4.61-.21-.45-.74-2.28-.89-2.79l-22.61-84.38,52.27,52.27c1.08,1.07,5.14,4.92,6.31,5.7,4.28,3.49,9.03,5.64,12.82,5.86l10.64.62c.42.02,2.27.24,2.76.45,1.49.38,3.15,1.31,4.72,2.62.4.28,1.77,1.59,2.14,1.96l87.89,87.89,19.47-2.71-83.79-83.79c-1.08-1.07-5.15-4.92-6.32-5.7-4.28-3.49-9.03-5.64-12.82-5.86l-10.64-.62c-.42-.02-2.27-.24-2.76-.45-1.49-.38-3.14-1.31-4.7-2.61-.4-.28-1.78-1.6-2.16-1.97l-61.77-61.77,71.4,19.13c1.48.39,6.91,1.69,8.32,1.78,5.45.89,10.64.37,14.03-1.34l9.53-4.78c.38-.19,2.08-.93,2.61-.98,1.48-.41,3.39-.44,5.39-.09.49.04,2.32.49,2.83.62l120.06,32.17,15.51-12.09-114.46-30.67c-1.48-.39-6.92-1.69-8.32-1.78-5.45-.89-10.64-.37-14.03,1.34l-9.53,4.78c-.38.19-2.09.93-2.61.98-1.48.41-3.38.44-5.38.09-.49-.04-2.35-.49-2.86-.63l-84.38-22.61,71.4-19.13c1.47-.4,6.83-2,8.1-2.62,5.17-1.96,9.4-5,11.48-8.17l5.86-8.91c.23-.35,1.34-1.85,1.77-2.16,1.08-1.1,2.71-2.07,4.62-2.78.44-.2,2.26-.74,2.77-.88l120.06-32.17,7.39-18.22-114.46,30.67c-1.47.4-6.83,2-8.1,2.62-5.17,1.96-9.4,5-11.48,8.17l-5.86,8.91c-.23.35-1.34,1.85-1.77,2.16-1.08,1.1-2.71,2.07-4.61,2.77-.45.21-2.28.74-2.79.89l-84.38,22.61,52.27-52.27c1.07-1.08,4.92-5.14,5.7-6.31Z"/>
      </g>
    </g>
  </g>
</svg>