<svg width="1000" height="1000" viewBox="0 0 1000 1000" fill="none" xmlns="http://www.w3.org/2000/svg">
<mask id="path-1-inside-1_336_6277" fill="white">
<path d="M697.63 527.51C707.54 526.51 716.33 523.19 721.44 518.64L735.8 505.86C736.37 505.35 739 503.27 739.89 502.93C742.28 501.52 745.58 500.58 749.24 500.25C750.11 500.1 753.52 500.02 754.47 500.02H978.62L999.99 471.73H786.31C783.56 471.75 773.48 472.02 770.98 472.51C761.07 473.51 752.28 476.83 747.17 481.38L732.81 494.16C732.24 494.67 729.61 496.76 728.71 497.1C726.32 498.51 723.03 499.44 719.39 499.77C718.52 499.92 715.07 500 714.12 500.01H556.58L672.03 433.36C674.4 431.97 683 426.69 684.91 425.02C692.99 419.2 698.94 411.93 701.1 405.43L707.15 387.18C707.39 386.45 708.62 383.33 709.23 382.59C710.59 380.17 712.99 377.71 715.99 375.6C716.67 375.04 719.58 373.26 720.4 372.78L914.52 260.71L918.88 225.52L733.82 332.36C731.45 333.75 722.85 339.03 720.94 340.7C712.86 346.52 706.91 353.79 704.75 360.29L698.7 378.54C698.46 379.27 697.23 382.39 696.62 383.13C695.26 385.54 692.87 388 689.88 390.11C689.2 390.68 686.26 392.47 685.43 392.95L549 471.72L615.65 356.27C617.01 353.88 621.81 345.01 622.64 342.61C626.73 333.52 628.25 324.25 626.86 317.55L622.97 298.72C622.82 297.97 622.32 294.65 622.48 293.71C622.45 290.93 623.29 287.61 624.84 284.28C625.14 283.46 626.78 280.46 627.25 279.63L739.32 85.51L725.5 52.86L618.66 237.92C617.3 240.31 612.49 249.18 611.67 251.58C607.58 260.66 606.06 269.93 607.45 276.64L611.34 295.47C611.49 296.22 611.99 299.54 611.83 300.48C611.86 303.25 611.02 306.57 609.48 309.89C609.17 310.72 607.52 313.74 607.05 314.58L528.28 451.01V317.7C528.26 314.95 527.99 304.87 527.5 302.38C526.5 292.47 523.18 283.68 518.62 278.57L505.84 264.21C505.33 263.64 503.24 261.01 502.91 260.12C501.5 257.73 500.56 254.43 500.23 250.77C500.08 249.9 500 246.49 500 245.54V21.37L471.71 0V213.68C471.73 216.43 472 226.51 472.49 229.01C473.49 238.92 476.81 247.71 481.36 252.82L494.14 267.18C494.65 267.75 496.74 270.38 497.08 271.28C498.49 273.67 499.42 276.96 499.75 280.6C499.9 281.47 499.98 284.92 499.99 285.87V443.41L433.34 327.96C431.95 325.59 426.67 316.99 425 315.08C419.18 307 411.91 301.05 405.41 298.89L387.16 292.84C386.44 292.6 383.31 291.37 382.57 290.76C380.15 289.4 377.69 287 375.58 284C375.02 283.32 373.24 280.41 372.76 279.59L260.69 85.47L225.5 81.11L332.34 266.17C333.73 268.54 339.01 277.14 340.68 279.05C346.5 287.13 353.77 293.08 360.27 295.24L378.52 301.29C379.25 301.53 382.37 302.76 383.11 303.37C385.52 304.73 387.98 307.12 390.09 310.11C390.66 310.79 392.45 313.73 392.93 314.56L471.7 450.99L356.25 384.34C353.86 382.98 344.99 378.18 342.59 377.35C333.5 373.26 324.23 371.74 317.53 373.13L298.7 377.02C297.95 377.17 294.63 377.67 293.69 377.51C290.91 377.54 287.59 376.7 284.25 375.15C283.43 374.85 280.43 373.21 279.6 372.74L85.48 260.67L52.83 274.49L237.89 381.33C240.28 382.69 249.15 387.5 251.55 388.32C260.63 392.41 269.9 393.93 276.61 392.54L295.44 388.65C296.19 388.5 299.51 388 300.45 388.16C303.22 388.13 306.54 388.97 309.86 390.51C310.69 390.82 313.71 392.47 314.55 392.94L450.98 471.71H317.68C314.93 471.73 304.85 472 302.36 472.49C292.45 473.49 283.66 476.81 278.55 481.37L264.19 494.15C263.62 494.66 260.99 496.75 260.1 497.08C257.71 498.49 254.41 499.43 250.75 499.76C249.88 499.91 246.47 499.99 245.52 499.99H21.37L0 528.28H213.68C216.43 528.26 226.51 527.99 229.01 527.5C238.92 526.5 247.71 523.18 252.82 518.63L267.18 505.85C267.75 505.34 270.38 503.25 271.28 502.91C273.67 501.5 276.96 500.57 280.61 500.24C281.48 500.09 284.93 500.01 285.88 500H443.42L327.97 566.65C325.6 568.04 317 573.32 315.09 574.99C307.01 580.81 301.06 588.08 298.9 594.58L292.85 612.83C292.61 613.55 291.38 616.68 290.77 617.42C289.41 619.84 287.01 622.3 284.01 624.41C283.33 624.97 280.42 626.75 279.6 627.23L85.48 739.3L81.12 774.49L266.18 667.65C268.55 666.26 277.15 660.98 279.06 659.31C287.14 653.49 293.09 646.22 295.25 639.72L301.3 621.47C301.54 620.74 302.77 617.62 303.38 616.88C304.74 614.47 307.13 612.01 310.12 609.9C310.8 609.33 313.74 607.54 314.57 607.06L451.01 528.29L384.35 643.74C382.99 646.13 378.19 655 377.36 657.4C373.27 666.49 371.75 675.76 373.14 682.46L377.03 701.29C377.18 702.04 377.68 705.36 377.52 706.3C377.55 709.08 376.71 712.4 375.16 715.74C374.86 716.56 373.22 719.56 372.75 720.39L260.68 914.51L274.5 947.16L381.34 762.1C382.7 759.71 387.51 750.84 388.33 748.44C392.42 739.36 393.94 730.09 392.55 723.38L388.66 704.55C388.51 703.8 388.01 700.48 388.17 699.54C388.14 696.77 388.98 693.45 390.52 690.13C390.83 689.3 392.48 686.28 392.95 685.44L471.72 549.01V682.32C471.74 685.07 472.01 695.15 472.5 697.64C473.5 707.55 476.82 716.34 481.38 721.45L494.16 735.81C494.67 736.38 496.76 739.01 497.09 739.9C498.5 742.29 499.44 745.59 499.77 749.25C499.92 750.12 500 753.53 500 754.48V978.63L528.29 1000V786.32C528.27 783.57 528 773.49 527.51 770.99C526.51 761.08 523.19 752.29 518.64 747.18L505.86 732.82C505.35 732.25 503.26 729.62 502.92 728.72C501.51 726.33 500.58 723.04 500.25 719.4C500.1 718.53 500.02 715.08 500.01 714.13V556.6L566.66 672.04C568.05 674.41 573.33 683.01 575 684.92C580.82 693 588.09 698.96 594.59 701.11L612.84 707.16C613.56 707.4 616.69 708.63 617.43 709.24C619.85 710.6 622.31 713 624.42 716C624.98 716.68 626.76 719.59 627.24 720.41L739.31 914.53L774.5 918.89L667.66 733.83C666.27 731.46 660.99 722.86 659.32 720.95C653.5 712.87 646.23 706.92 639.73 704.76L621.48 698.71C620.75 698.47 617.63 697.24 616.89 696.63C614.48 695.27 612.02 692.88 609.91 689.89C609.34 689.21 607.55 686.27 607.07 685.44L528.3 549.01L643.75 615.66C646.14 617.02 655.01 621.82 657.41 622.65C666.5 626.74 675.77 628.26 682.47 626.87L701.3 622.98C702.05 622.83 705.37 622.33 706.31 622.49C709.09 622.46 712.41 623.3 715.75 624.85C716.57 625.15 719.57 626.79 720.4 627.26L914.52 739.33L947.17 725.51L762.11 618.67C759.72 617.31 750.85 612.5 748.45 611.68C739.37 607.59 730.1 606.07 723.39 607.46L704.56 611.35C703.81 611.5 700.49 612 699.55 611.84C696.78 611.87 693.46 611.03 690.14 609.49C689.31 609.18 686.29 607.53 685.45 607.06L549.02 528.29H682.32C685.07 528.27 695.15 528 697.64 527.51H697.63Z"/>
</mask>
<path d="M697.63 527.51C707.54 526.51 716.33 523.19 721.44 518.64L735.8 505.86C736.37 505.35 739 503.27 739.89 502.93C742.28 501.52 745.58 500.58 749.24 500.25C750.11 500.1 753.52 500.02 754.47 500.02H978.62L999.99 471.73H786.31C783.56 471.75 773.48 472.02 770.98 472.51C761.07 473.51 752.28 476.83 747.17 481.38L732.81 494.16C732.24 494.67 729.61 496.76 728.71 497.1C726.32 498.51 723.03 499.44 719.39 499.77C718.52 499.92 715.07 500 714.12 500.01H556.58L672.03 433.36C674.4 431.97 683 426.69 684.91 425.02C692.99 419.2 698.94 411.93 701.1 405.43L707.15 387.18C707.39 386.45 708.62 383.33 709.23 382.59C710.59 380.17 712.99 377.71 715.99 375.6C716.67 375.04 719.58 373.26 720.4 372.78L914.52 260.71L918.88 225.52L733.82 332.36C731.45 333.75 722.85 339.03 720.94 340.7C712.86 346.52 706.91 353.79 704.75 360.29L698.7 378.54C698.46 379.27 697.23 382.39 696.62 383.13C695.26 385.54 692.87 388 689.88 390.11C689.2 390.68 686.26 392.47 685.43 392.95L549 471.72L615.65 356.27C617.01 353.88 621.81 345.01 622.64 342.61C626.73 333.52 628.25 324.25 626.86 317.55L622.97 298.72C622.82 297.97 622.32 294.65 622.48 293.71C622.45 290.93 623.29 287.61 624.84 284.28C625.14 283.46 626.78 280.46 627.25 279.63L739.32 85.51L725.5 52.86L618.66 237.92C617.3 240.31 612.49 249.18 611.67 251.58C607.58 260.66 606.06 269.93 607.45 276.64L611.34 295.47C611.49 296.22 611.99 299.54 611.83 300.48C611.86 303.25 611.02 306.57 609.48 309.89C609.17 310.72 607.52 313.74 607.05 314.58L528.28 451.01V317.7C528.26 314.95 527.99 304.87 527.5 302.38C526.5 292.47 523.18 283.68 518.62 278.57L505.84 264.21C505.33 263.64 503.24 261.01 502.91 260.12C501.5 257.73 500.56 254.43 500.23 250.77C500.08 249.9 500 246.49 500 245.54V21.37L471.71 0V213.68C471.73 216.43 472 226.51 472.49 229.01C473.49 238.92 476.81 247.71 481.36 252.82L494.14 267.18C494.65 267.75 496.74 270.38 497.08 271.28C498.49 273.67 499.42 276.96 499.75 280.6C499.9 281.47 499.98 284.92 499.99 285.87V443.41L433.34 327.96C431.95 325.59 426.67 316.99 425 315.08C419.18 307 411.91 301.05 405.41 298.89L387.16 292.84C386.44 292.6 383.31 291.37 382.57 290.76C380.15 289.4 377.69 287 375.58 284C375.02 283.32 373.24 280.41 372.76 279.59L260.69 85.47L225.5 81.11L332.34 266.17C333.73 268.54 339.01 277.14 340.68 279.05C346.5 287.13 353.77 293.08 360.27 295.24L378.52 301.29C379.25 301.53 382.37 302.76 383.11 303.37C385.52 304.73 387.98 307.12 390.09 310.11C390.66 310.79 392.45 313.73 392.93 314.56L471.7 450.99L356.25 384.34C353.86 382.98 344.99 378.18 342.59 377.35C333.5 373.26 324.23 371.74 317.53 373.13L298.7 377.02C297.95 377.17 294.63 377.67 293.69 377.51C290.91 377.54 287.59 376.7 284.25 375.15C283.43 374.85 280.43 373.21 279.6 372.74L85.48 260.67L52.83 274.49L237.89 381.33C240.28 382.69 249.15 387.5 251.55 388.32C260.63 392.41 269.9 393.93 276.61 392.54L295.44 388.65C296.19 388.5 299.51 388 300.45 388.16C303.22 388.13 306.54 388.97 309.86 390.51C310.69 390.82 313.71 392.47 314.55 392.94L450.98 471.71H317.68C314.93 471.73 304.85 472 302.36 472.49C292.45 473.49 283.66 476.81 278.55 481.37L264.19 494.15C263.62 494.66 260.99 496.75 260.1 497.08C257.71 498.49 254.41 499.43 250.75 499.76C249.88 499.91 246.47 499.99 245.52 499.99H21.37L0 528.28H213.68C216.43 528.26 226.51 527.99 229.01 527.5C238.92 526.5 247.71 523.18 252.82 518.63L267.18 505.85C267.75 505.34 270.38 503.25 271.28 502.91C273.67 501.5 276.96 500.57 280.61 500.24C281.48 500.09 284.93 500.01 285.88 500H443.42L327.97 566.65C325.6 568.04 317 573.32 315.09 574.99C307.01 580.81 301.06 588.08 298.9 594.58L292.85 612.83C292.61 613.55 291.38 616.68 290.77 617.42C289.41 619.84 287.01 622.3 284.01 624.41C283.33 624.97 280.42 626.75 279.6 627.23L85.48 739.3L81.12 774.49L266.18 667.65C268.55 666.26 277.15 660.98 279.06 659.31C287.14 653.49 293.09 646.22 295.25 639.72L301.3 621.47C301.54 620.74 302.77 617.62 303.38 616.88C304.74 614.47 307.13 612.01 310.12 609.9C310.8 609.33 313.74 607.54 314.57 607.06L451.01 528.29L384.35 643.74C382.99 646.13 378.19 655 377.36 657.4C373.27 666.49 371.75 675.76 373.14 682.46L377.03 701.29C377.18 702.04 377.68 705.36 377.52 706.3C377.55 709.08 376.71 712.4 375.16 715.74C374.86 716.56 373.22 719.56 372.75 720.39L260.68 914.51L274.5 947.16L381.34 762.1C382.7 759.71 387.51 750.84 388.33 748.44C392.42 739.36 393.94 730.09 392.55 723.38L388.66 704.55C388.51 703.8 388.01 700.48 388.17 699.54C388.14 696.77 388.98 693.45 390.52 690.13C390.83 689.3 392.48 686.28 392.95 685.44L471.72 549.01V682.32C471.74 685.07 472.01 695.15 472.5 697.64C473.5 707.55 476.82 716.34 481.38 721.45L494.16 735.81C494.67 736.38 496.76 739.01 497.09 739.9C498.5 742.29 499.44 745.59 499.77 749.25C499.92 750.12 500 753.53 500 754.48V978.63L528.29 1000V786.32C528.27 783.57 528 773.49 527.51 770.99C526.51 761.08 523.19 752.29 518.64 747.18L505.86 732.82C505.35 732.25 503.26 729.62 502.92 728.72C501.51 726.33 500.58 723.04 500.25 719.4C500.1 718.53 500.02 715.08 500.01 714.13V556.6L566.66 672.04C568.05 674.41 573.33 683.01 575 684.92C580.82 693 588.09 698.96 594.59 701.11L612.84 707.16C613.56 707.4 616.69 708.63 617.43 709.24C619.85 710.6 622.31 713 624.42 716C624.98 716.68 626.76 719.59 627.24 720.41L739.31 914.53L774.5 918.89L667.66 733.83C666.27 731.46 660.99 722.86 659.32 720.95C653.5 712.87 646.23 706.92 639.73 704.76L621.48 698.71C620.75 698.47 617.63 697.24 616.89 696.63C614.48 695.27 612.02 692.88 609.91 689.89C609.34 689.21 607.55 686.27 607.07 685.44L528.3 549.01L643.75 615.66C646.14 617.02 655.01 621.82 657.41 622.65C666.5 626.74 675.77 628.26 682.47 626.87L701.3 622.98C702.05 622.83 705.37 622.33 706.31 622.49C709.09 622.46 712.41 623.3 715.75 624.85C716.57 625.15 719.57 626.79 720.4 627.26L914.52 739.33L947.17 725.51L762.11 618.67C759.72 617.31 750.85 612.5 748.45 611.68C739.37 607.59 730.1 606.07 723.39 607.46L704.56 611.35C703.81 611.5 700.49 612 699.55 611.84C696.78 611.87 693.46 611.03 690.14 609.49C689.31 609.18 686.29 607.53 685.45 607.06L549.02 528.29H682.32C685.07 528.27 695.15 528 697.64 527.51H697.63Z" stroke="url(#paint0_radial_336_6277)" stroke-opacity="0.3" stroke-width="2" mask="url(#path-1-inside-1_336_6277)"/>
<mask id="path-2-inside-2_336_6277" fill="white">
<path d="M659.2 379.7C665.5 371.98 669.37 363.42 669.76 356.59L670.88 337.4C670.92 336.64 671.31 333.31 671.7 332.43C672.39 329.74 674.06 326.74 676.42 323.93C676.93 323.21 679.28 320.74 679.95 320.07L838.45 161.57L833.55 126.45L682.45 277.55C680.52 279.51 673.58 286.83 672.17 288.94C665.87 296.66 662 305.22 661.61 312.05L660.49 331.24C660.45 332 660.07 335.34 659.67 336.21C658.98 338.89 657.31 341.88 654.97 344.69C654.46 345.41 652.08 347.91 651.41 348.59L540.02 459.98L574.52 331.22C575.22 328.56 577.56 318.75 577.73 316.22C579.33 306.39 578.4 297.04 575.32 290.92L566.69 273.74C566.35 273.06 565.01 269.98 564.91 269.03C564.16 266.35 564.11 262.92 564.74 259.31C564.82 258.43 565.63 255.12 565.87 254.2L623.88 37.6905L602.08 9.73047L546.77 216.13C546.07 218.79 543.73 228.6 543.56 231.14C541.96 240.97 542.89 250.32 545.97 256.44L554.6 273.62C554.94 274.3 556.28 277.38 556.38 278.34C557.12 281.01 557.17 284.43 556.55 288.04C556.47 288.92 555.66 292.27 555.42 293.2L514.65 445.37L480.15 316.61C479.42 313.96 476.55 304.29 475.43 302.01C471.9 292.69 466.42 285.06 460.69 281.3L444.63 270.73C443.99 270.31 441.3 268.31 440.74 267.53C438.76 265.59 437 262.64 435.74 259.19C435.37 258.39 434.41 255.12 434.16 254.2L376.15 37.6905L343.29 24.3705L398.6 230.77C399.33 233.42 402.2 243.09 403.32 245.37C406.85 254.69 412.33 262.31 418.06 266.08L434.12 276.65C434.76 277.07 437.45 279.07 438.02 279.85C440 281.79 441.75 284.73 443.01 288.17C443.38 288.97 444.35 292.28 444.61 293.2L485.38 445.37L391.12 351.11C389.16 349.18 381.84 342.24 379.73 340.83C372.01 334.53 363.45 330.66 356.62 330.27L337.43 329.15C336.67 329.11 333.33 328.73 332.46 328.33C329.77 327.64 326.77 325.97 323.96 323.61C323.24 323.1 320.77 320.75 320.1 320.08L161.6 161.58L126.48 166.48L277.58 317.58C279.54 319.51 286.86 326.45 288.97 327.86C296.69 334.16 305.25 338.03 312.08 338.42L331.27 339.54C332.03 339.58 335.37 339.97 336.24 340.36C338.92 341.05 341.91 342.72 344.72 345.06C345.44 345.57 347.94 347.95 348.62 348.62L460.02 460.02L331.26 425.52C328.6 424.82 318.79 422.48 316.26 422.31C306.43 420.71 297.08 421.64 290.96 424.72L273.78 433.35C273.1 433.69 270.02 435.03 269.07 435.12C266.39 435.87 262.96 435.92 259.35 435.29C258.47 435.21 255.16 434.4 254.24 434.16L37.73 376.15L9.77002 397.95L216.17 453.26C218.83 453.96 228.64 456.3 231.18 456.47C241.01 458.07 250.36 457.14 256.48 454.06L273.66 445.43C274.34 445.09 277.42 443.75 278.38 443.65C281.05 442.91 284.47 442.86 288.08 443.48C288.96 443.56 292.31 444.37 293.24 444.61L445.41 485.38L316.65 519.88C314 520.61 304.33 523.48 302.05 524.6C292.73 528.13 285.1 533.611 281.34 539.341L270.77 555.401C270.35 556.041 268.35 558.73 267.57 559.29C265.63 561.27 262.68 563.03 259.23 564.29C258.43 564.66 255.16 565.62 254.24 565.87L37.73 623.88L24.41 656.74L230.81 601.43C233.46 600.7 243.13 597.831 245.41 596.711C254.72 593.181 262.35 587.7 266.11 581.97L276.67 565.91C277.09 565.27 279.09 562.58 279.87 562.01C281.81 560.03 284.75 558.281 288.19 557.021C288.99 556.651 292.3 555.68 293.22 555.42L445.39 514.65L351.13 608.91C349.2 610.87 342.26 618.19 340.85 620.3C334.55 628.02 330.68 636.58 330.29 643.41L329.17 662.6C329.13 663.36 328.75 666.69 328.35 667.57C327.66 670.26 325.99 673.26 323.63 676.07C323.12 676.79 320.77 679.26 320.1 679.93L161.6 838.43L166.5 873.55L317.6 722.451C319.53 720.491 326.47 713.17 327.88 711.06C334.18 703.34 338.05 694.781 338.44 687.951L339.56 668.76C339.6 668 339.99 664.66 340.38 663.79C341.07 661.11 342.74 658.12 345.08 655.31C345.59 654.59 347.97 652.09 348.64 651.41L460.04 540.01L425.54 668.781C424.84 671.441 422.5 681.251 422.33 683.781C420.73 693.611 421.66 702.961 424.74 709.081L433.37 726.26C433.71 726.94 435.05 730.02 435.15 730.97C435.9 733.65 435.95 737.08 435.32 740.69C435.24 741.57 434.43 744.88 434.19 745.8L376.18 962.31L397.98 990.271L453.29 783.87C453.99 781.21 456.33 771.4 456.5 768.86C458.1 759.03 457.17 749.68 454.09 743.56L445.46 726.38C445.12 725.7 443.78 722.62 443.68 721.66C442.94 718.99 442.89 715.571 443.51 711.961C443.59 711.081 444.4 707.73 444.64 706.8L485.42 554.63L519.92 683.401C520.65 686.051 523.52 695.72 524.64 698C528.17 707.32 533.65 714.951 539.38 718.711L555.44 729.281C556.08 729.701 558.77 731.7 559.33 732.48C561.31 734.42 563.07 737.37 564.33 740.82C564.7 741.62 565.66 744.89 565.91 745.81L623.92 962.32L656.78 975.641L601.47 769.24C600.74 766.59 597.87 756.921 596.75 754.641C593.22 745.321 587.74 737.7 582.01 733.93L565.95 723.37C565.31 722.95 562.62 720.95 562.05 720.17C560.07 718.23 558.32 715.29 557.06 711.85C556.69 711.05 555.72 707.74 555.46 706.82L514.69 554.651L608.95 648.91C610.91 650.84 618.23 657.78 620.34 659.19C628.06 665.49 636.62 669.36 643.46 669.75L662.65 670.87C663.41 670.91 666.75 671.29 667.62 671.69C670.31 672.38 673.31 674.05 676.12 676.41C676.84 676.92 679.31 679.27 679.98 679.94L838.48 838.44L873.6 833.54L722.5 682.44C720.54 680.51 713.22 673.57 711.11 672.16C703.39 665.86 694.83 661.99 688 661.6L668.81 660.48C668.05 660.44 664.71 660.05 663.84 659.66C661.16 658.97 658.17 657.301 655.36 654.961C654.64 654.451 652.14 652.071 651.46 651.401L540.07 540.01L668.83 574.51C671.49 575.21 681.3 577.55 683.83 577.72C693.66 579.32 703.01 578.39 709.13 575.31L726.31 566.68C726.99 566.34 730.07 565.001 731.02 564.901C733.7 564.151 737.13 564.1 740.74 564.73C741.62 564.81 744.93 565.62 745.85 565.86L962.36 623.87L990.32 602.07L783.92 546.76C781.26 546.06 771.45 543.72 768.91 543.55C759.08 541.95 749.73 542.881 743.61 545.961L726.43 554.591C725.75 554.931 722.67 556.27 721.71 556.37C719.04 557.11 715.62 557.16 712.01 556.54C711.13 556.46 707.78 555.65 706.85 555.41L554.68 514.64L683.45 480.14C686.1 479.41 695.77 476.54 698.05 475.42C707.37 471.89 715 466.41 718.76 460.68L729.33 444.62C729.75 443.98 731.75 441.29 732.53 440.73C734.47 438.75 737.42 436.99 740.87 435.73C741.67 435.36 744.94 434.4 745.86 434.15L962.37 376.14L975.69 343.28L769.29 398.59C766.64 399.32 756.97 402.19 754.69 403.31C745.38 406.84 737.75 412.32 733.99 418.05L723.43 434.11C723.01 434.75 721.01 437.44 720.23 438.01C718.29 439.99 715.35 441.74 711.91 443C711.11 443.37 707.8 444.34 706.88 444.6L554.71 485.37L648.97 391.11C650.9 389.15 657.84 381.83 659.25 379.72L659.2 379.7Z"/>
</mask>
<path d="M659.2 379.7C665.5 371.98 669.37 363.42 669.76 356.59L670.88 337.4C670.92 336.64 671.31 333.31 671.7 332.43C672.39 329.74 674.06 326.74 676.42 323.93C676.93 323.21 679.28 320.74 679.95 320.07L838.45 161.57L833.55 126.45L682.45 277.55C680.52 279.51 673.58 286.83 672.17 288.94C665.87 296.66 662 305.22 661.61 312.05L660.49 331.24C660.45 332 660.07 335.34 659.67 336.21C658.98 338.89 657.31 341.88 654.97 344.69C654.46 345.41 652.08 347.91 651.41 348.59L540.02 459.98L574.52 331.22C575.22 328.56 577.56 318.75 577.73 316.22C579.33 306.39 578.4 297.04 575.32 290.92L566.69 273.74C566.35 273.06 565.01 269.98 564.91 269.03C564.16 266.35 564.11 262.92 564.74 259.31C564.82 258.43 565.63 255.12 565.87 254.2L623.88 37.6905L602.08 9.73047L546.77 216.13C546.07 218.79 543.73 228.6 543.56 231.14C541.96 240.97 542.89 250.32 545.97 256.44L554.6 273.62C554.94 274.3 556.28 277.38 556.38 278.34C557.12 281.01 557.17 284.43 556.55 288.04C556.47 288.92 555.66 292.27 555.42 293.2L514.65 445.37L480.15 316.61C479.42 313.96 476.55 304.29 475.43 302.01C471.9 292.69 466.42 285.06 460.69 281.3L444.63 270.73C443.99 270.31 441.3 268.31 440.74 267.53C438.76 265.59 437 262.64 435.74 259.19C435.37 258.39 434.41 255.12 434.16 254.2L376.15 37.6905L343.29 24.3705L398.6 230.77C399.33 233.42 402.2 243.09 403.32 245.37C406.85 254.69 412.33 262.31 418.06 266.08L434.12 276.65C434.76 277.07 437.45 279.07 438.02 279.85C440 281.79 441.75 284.73 443.01 288.17C443.38 288.97 444.35 292.28 444.61 293.2L485.38 445.37L391.12 351.11C389.16 349.18 381.84 342.24 379.73 340.83C372.01 334.53 363.45 330.66 356.62 330.27L337.43 329.15C336.67 329.11 333.33 328.73 332.46 328.33C329.77 327.64 326.77 325.97 323.96 323.61C323.24 323.1 320.77 320.75 320.1 320.08L161.6 161.58L126.48 166.48L277.58 317.58C279.54 319.51 286.86 326.45 288.97 327.86C296.69 334.16 305.25 338.03 312.08 338.42L331.27 339.54C332.03 339.58 335.37 339.97 336.24 340.36C338.92 341.05 341.91 342.72 344.72 345.06C345.44 345.57 347.94 347.95 348.62 348.62L460.02 460.02L331.26 425.52C328.6 424.82 318.79 422.48 316.26 422.31C306.43 420.71 297.08 421.64 290.96 424.72L273.78 433.35C273.1 433.69 270.02 435.03 269.07 435.12C266.39 435.87 262.96 435.92 259.35 435.29C258.47 435.21 255.16 434.4 254.24 434.16L37.73 376.15L9.77002 397.95L216.17 453.26C218.83 453.96 228.64 456.3 231.18 456.47C241.01 458.07 250.36 457.14 256.48 454.06L273.66 445.43C274.34 445.09 277.42 443.75 278.38 443.65C281.05 442.91 284.47 442.86 288.08 443.48C288.96 443.56 292.31 444.37 293.24 444.61L445.41 485.38L316.65 519.88C314 520.61 304.33 523.48 302.05 524.6C292.73 528.13 285.1 533.611 281.34 539.341L270.77 555.401C270.35 556.041 268.35 558.73 267.57 559.29C265.63 561.27 262.68 563.03 259.23 564.29C258.43 564.66 255.16 565.62 254.24 565.87L37.73 623.88L24.41 656.74L230.81 601.43C233.46 600.7 243.13 597.831 245.41 596.711C254.72 593.181 262.35 587.7 266.11 581.97L276.67 565.91C277.09 565.27 279.09 562.58 279.87 562.01C281.81 560.03 284.75 558.281 288.19 557.021C288.99 556.651 292.3 555.68 293.22 555.42L445.39 514.65L351.13 608.91C349.2 610.87 342.26 618.19 340.85 620.3C334.55 628.02 330.68 636.58 330.29 643.41L329.17 662.6C329.13 663.36 328.75 666.69 328.35 667.57C327.66 670.26 325.99 673.26 323.63 676.07C323.12 676.79 320.77 679.26 320.1 679.93L161.6 838.43L166.5 873.55L317.6 722.451C319.53 720.491 326.47 713.17 327.88 711.06C334.18 703.34 338.05 694.781 338.44 687.951L339.56 668.76C339.6 668 339.99 664.66 340.38 663.79C341.07 661.11 342.74 658.12 345.08 655.31C345.59 654.59 347.97 652.09 348.64 651.41L460.04 540.01L425.54 668.781C424.84 671.441 422.5 681.251 422.33 683.781C420.73 693.611 421.66 702.961 424.74 709.081L433.37 726.26C433.71 726.94 435.05 730.02 435.15 730.97C435.9 733.65 435.95 737.08 435.32 740.69C435.24 741.57 434.43 744.88 434.19 745.8L376.18 962.31L397.98 990.271L453.29 783.87C453.99 781.21 456.33 771.4 456.5 768.86C458.1 759.03 457.17 749.68 454.09 743.56L445.46 726.38C445.12 725.7 443.78 722.62 443.68 721.66C442.94 718.99 442.89 715.571 443.51 711.961C443.59 711.081 444.4 707.73 444.64 706.8L485.42 554.63L519.92 683.401C520.65 686.051 523.52 695.72 524.64 698C528.17 707.32 533.65 714.951 539.38 718.711L555.44 729.281C556.08 729.701 558.77 731.7 559.33 732.48C561.31 734.42 563.07 737.37 564.33 740.82C564.7 741.62 565.66 744.89 565.91 745.81L623.92 962.32L656.78 975.641L601.47 769.24C600.74 766.59 597.87 756.921 596.75 754.641C593.22 745.321 587.74 737.7 582.01 733.93L565.95 723.37C565.31 722.95 562.62 720.95 562.05 720.17C560.07 718.23 558.32 715.29 557.06 711.85C556.69 711.05 555.72 707.74 555.46 706.82L514.69 554.651L608.95 648.91C610.91 650.84 618.23 657.78 620.34 659.19C628.06 665.49 636.62 669.36 643.46 669.75L662.65 670.87C663.41 670.91 666.75 671.29 667.62 671.69C670.31 672.38 673.31 674.05 676.12 676.41C676.84 676.92 679.31 679.27 679.98 679.94L838.48 838.44L873.6 833.54L722.5 682.44C720.54 680.51 713.22 673.57 711.11 672.16C703.39 665.86 694.83 661.99 688 661.6L668.81 660.48C668.05 660.44 664.71 660.05 663.84 659.66C661.16 658.97 658.17 657.301 655.36 654.961C654.64 654.451 652.14 652.071 651.46 651.401L540.07 540.01L668.83 574.51C671.49 575.21 681.3 577.55 683.83 577.72C693.66 579.32 703.01 578.39 709.13 575.31L726.31 566.68C726.99 566.34 730.07 565.001 731.02 564.901C733.7 564.151 737.13 564.1 740.74 564.73C741.62 564.81 744.93 565.62 745.85 565.86L962.36 623.87L990.32 602.07L783.92 546.76C781.26 546.06 771.45 543.72 768.91 543.55C759.08 541.95 749.73 542.881 743.61 545.961L726.43 554.591C725.75 554.931 722.67 556.27 721.71 556.37C719.04 557.11 715.62 557.16 712.01 556.54C711.13 556.46 707.78 555.65 706.85 555.41L554.68 514.64L683.45 480.14C686.1 479.41 695.77 476.54 698.05 475.42C707.37 471.89 715 466.41 718.76 460.68L729.33 444.62C729.75 443.98 731.75 441.29 732.53 440.73C734.47 438.75 737.42 436.99 740.87 435.73C741.67 435.36 744.94 434.4 745.86 434.15L962.37 376.14L975.69 343.28L769.29 398.59C766.64 399.32 756.97 402.19 754.69 403.31C745.38 406.84 737.75 412.32 733.99 418.05L723.43 434.11C723.01 434.75 721.01 437.44 720.23 438.01C718.29 439.99 715.35 441.74 711.91 443C711.11 443.37 707.8 444.34 706.88 444.6L554.71 485.37L648.97 391.11C650.9 389.15 657.84 381.83 659.25 379.72L659.2 379.7Z" stroke="url(#paint1_radial_336_6277)" stroke-opacity="0.3" stroke-width="2" mask="url(#path-2-inside-2_336_6277)"/>
<defs>
<radialGradient id="paint0_radial_336_6277" cx="0" cy="0" r="1" gradientUnits="userSpaceOnUse" gradientTransform="translate(499.995 500) rotate(90) scale(500 499.995)">
<stop offset="0.543269" stop-color="#E98833"/>
<stop offset="1" stop-color="#146DFF"/>
</radialGradient>
<radialGradient id="paint1_radial_336_6277" cx="0" cy="0" r="1" gradientUnits="userSpaceOnUse" gradientTransform="translate(500.045 500) rotate(90) scale(490.27 490.275)">
<stop offset="0.543269" stop-color="#E98833"/>
<stop offset="1" stop-color="#146DFF"/>
</radialGradient>
</defs>
</svg>
